<svg width="50" height="50" viewBox="0 0 50 50" fill="none" xmlns="http://www.w3.org/2000/svg">
<path fill-rule="evenodd" clip-rule="evenodd" d="M48 25C48 37.7025 37.7025 48 25 48C12.2975 48 2 37.7025 2 25C2 12.2975 12.2975 2 25 2C37.7025 2 48 12.2975 48 25ZM50 25C50 38.8071 38.8071 50 25 50C11.1929 50 0 38.8071 0 25C0 11.1929 11.1929 0 25 0C38.8071 0 50 11.1929 50 25ZM25.2459 15H25.0901L24.7524 15.0018C23.0859 15.0078 21.4196 15.0381 19.754 15.0925L19.4548 15.105L19.3043 15.1103L19.0033 15.121L18.7057 15.1335C16.7631 15.2224 14.9132 15.3648 14.0609 15.5961C13.4668 15.7602 12.9254 16.0799 12.4908 16.5233C12.0562 16.9667 11.7437 17.5183 11.5845 18.1231C11.4078 18.7975 11.2835 19.6944 11.1995 20.6179L11.182 20.803L11.1435 21.2657L11.1295 21.4508L11.1243 21.5433L11.112 21.7266C11.0175 23.1858 11.0035 24.508 11 24.8906V25.1094C11.0088 26.3184 11.0566 27.5268 11.1435 28.7325L11.1575 28.9176L11.1715 29.1045C11.259 30.1223 11.3885 31.1349 11.5828 31.8769C11.7423 32.4813 12.0549 33.0326 12.4894 33.4757C12.924 33.9188 13.4653 34.2382 14.0592 34.4021C14.9115 34.637 16.7614 34.7776 18.704 34.8648L19.0033 34.8772L19.3025 34.8897L19.4548 34.8968L19.7523 34.9075C22.0974 34.9893 24.3341 35 24.8749 35H25.1234C26.1927 34.9982 33.9089 34.9591 35.9391 34.4039C36.5332 34.2398 37.0746 33.9202 37.5092 33.4767C37.9438 33.0333 38.2563 32.4817 38.4155 31.8769C38.6097 31.1331 38.7392 30.1223 38.8267 29.1045L38.8425 28.9194L38.8565 28.7325C38.9825 27.0384 38.9982 25.412 39 25.0667V24.9333C38.9982 24.6005 38.9842 23.0772 38.8705 21.4508L38.8565 21.2657L38.818 20.803L38.8005 20.6179C38.7165 19.6944 38.5922 18.7993 38.4155 18.1231C38.2563 17.5183 37.9438 16.9667 37.5092 16.5233C37.0746 16.0799 36.5332 15.7602 35.9391 15.5961C33.9737 15.0587 26.6845 15.0053 25.2459 15ZM22.2007 29.286V20.7123L29.4759 25.0009L22.2007 29.286Z" fill="white"/>
</svg>
