<svg width="50" height="50" viewBox="0 0 50 50" fill="none" xmlns="http://www.w3.org/2000/svg">
<path fill-rule="evenodd" clip-rule="evenodd" d="M48 25C48 37.7025 37.7025 48 25 48C12.2975 48 2 37.7025 2 25C2 12.2975 12.2975 2 25 2C37.7025 2 48 12.2975 48 25ZM50 25C50 38.8071 38.8071 50 25 50C11.1929 50 0 38.8071 0 25C0 11.1929 11.1929 0 25 0C38.8071 0 50 11.1929 50 25ZM30.4184 12C30.4179 13.5561 30.9945 15.0594 32.0408 16.23C34.1224 18.585 37 18.45 37 18.45V23.085C34.6388 23.089 32.3362 22.3648 30.4184 21.015V30.45C30.4184 35.175 26.5153 39 21.7092 39C17.2245 39 13 35.445 13 30.45C13 25.32 17.6224 21.3 22.9031 21.99V26.73C20.2857 25.935 17.7449 27.87 17.7449 30.45C17.7449 32.61 19.551 34.35 21.7245 34.35C22.7522 34.3499 23.7398 33.9589 24.4792 33.2594C25.2187 32.5599 25.6523 31.6065 25.6888 30.6V12H30.4184Z" fill="white"/>
</svg>
