<svg width="50" height="50" viewBox="0 0 50 50" fill="none" xmlns="http://www.w3.org/2000/svg">
<path fill-rule="evenodd" clip-rule="evenodd" d="M48 25C48 37.7025 37.7025 48 25 48C12.2975 48 2 37.7025 2 25C2 12.2975 12.2975 2 25 2C37.7025 2 48 12.2975 48 25ZM50 25C50 38.8071 38.8071 50 25 50C11.1929 50 0 38.8071 0 25C0 11.1929 11.1929 0 25 0C38.8071 0 50 11.1929 50 25ZM9.92024 24.0647L34.7269 14.2728C36.5808 13.5109 37.3081 14.3871 36.8816 16.3755L32.7743 36.2833C32.4614 37.8987 31.67 38.4675 30.2156 37.5861L23.9536 32.7863L20.2973 36.3276C19.8482 36.7254 19.1442 36.7217 18.7597 35.9214L19.1748 30.7379L32.3904 18.4895C33.1305 17.8173 32.2704 17.6543 31.4302 18.2654L16.0429 27.9996L9.67896 25.9294C8.58434 25.4338 8.92198 24.5207 9.92024 24.0647Z" fill="white"/>
</svg>
