<svg width="50" height="50" viewBox="0 0 50 50" fill="none" xmlns="http://www.w3.org/2000/svg">
<path fill-rule="evenodd" clip-rule="evenodd" d="M48 25C48 37.7025 37.7025 48 25 48C12.2975 48 2 37.7025 2 25C2 12.2975 12.2975 2 25 2C37.7025 2 48 12.2975 48 25ZM50 25C50 38.8071 38.8071 50 25 50C11.1929 50 0 38.8071 0 25C0 11.1929 11.1929 0 25 0C38.8071 0 50 11.1929 50 25ZM37.3742 17C38.3348 17 38.5354 17.5169 38.3348 18.2189H38.3336C37.9312 20.1513 34.0647 25.8419 34.0647 25.8419C33.7288 26.4037 33.5946 26.6853 34.0647 27.3166C34.2308 27.5593 34.5846 27.9213 34.9892 28.3354C35.4054 28.7614 35.8755 29.2425 36.2505 29.7054C37.6123 31.3087 38.6393 32.66 38.9269 33.5909C39.1879 34.5269 38.7336 35 37.8273 35H34.6555C33.805 35 33.3772 34.5025 32.4524 33.427C32.0607 32.9715 31.5798 32.4123 30.94 31.7433C29.0574 29.8469 28.2515 29.6 27.7803 29.6C27.1411 29.6 26.9501 29.789 26.9501 30.7366V33.7104C26.9501 34.5269 26.7012 35 24.6846 35C21.3218 35 17.6305 32.867 15.0084 28.9327C11.0754 23.1714 10 18.8154 10 17.9386C10 17.4461 10.1812 17 11.0875 17H14.2617C15.0725 17 15.377 17.3703 15.6778 18.2896C17.2305 23.0133 19.8465 27.1417 20.9219 27.1417C21.3255 27.1417 21.5103 26.9476 21.5103 25.8766V20.9934C21.4379 19.6037 20.9732 19.0026 20.629 18.5574C20.4166 18.2825 20.2501 18.0672 20.2501 17.7624C20.2501 17.3909 20.5534 17 21.0572 17H26.0451C26.7169 17 26.9393 17.3754 26.9393 18.2189V24.7876C26.9393 25.4909 27.2426 25.7364 27.4443 25.7364C27.8479 25.7364 28.1838 25.4909 28.9233 24.7169C31.2082 22.0477 32.8213 17.9386 32.8213 17.9386C33.0231 17.4461 33.3953 17 34.2024 17H37.3742Z" fill="white"/>
</svg>
