<svg width="50" height="50" viewBox="0 0 50 50" fill="none" xmlns="http://www.w3.org/2000/svg">
<path fill-rule="evenodd" clip-rule="evenodd" d="M48 25C48 37.7025 37.7025 48 25 48C12.2975 48 2 37.7025 2 25C2 12.2975 12.2975 2 25 2C37.7025 2 48 12.2975 48 25ZM50 25C50 38.8071 38.8071 50 25 50C11.1929 50 0 38.8071 0 25C0 11.1929 11.1929 0 25 0C38.8071 0 50 11.1929 50 25ZM31.17 12H19.83C17.7534 12 15.7618 12.8249 14.2934 14.2934C12.8249 15.7618 12 17.7534 12 19.83V31.17C12 35.49 15.51 39 19.83 39H31.17C33.2466 39 35.2382 38.1751 36.7066 36.7066C38.1751 35.2382 39 33.2466 39 31.17V19.83C39 15.51 35.49 12 31.17 12ZM16.1235 16.1235C17.0349 15.212 18.271 14.7 19.56 14.7H31.44C34.1265 14.7 36.3 16.8735 36.3 19.56V31.44C36.3 32.729 35.788 33.9651 34.8765 34.8765C33.9651 35.788 32.729 36.3 31.44 36.3H19.56C16.8735 36.3 14.7 34.1265 14.7 31.44V19.56C14.7 18.271 15.212 17.0349 16.1235 16.1235ZM33.7807 17.2193C33.4643 16.9028 33.0351 16.725 32.5875 16.725C32.1399 16.725 31.7107 16.9028 31.3943 17.2193C31.0778 17.5357 30.9 17.9649 30.9 18.4125C30.9 18.8601 31.0778 19.2893 31.3943 19.6057C31.7107 19.9222 32.1399 20.1 32.5875 20.1C33.0351 20.1 33.4643 19.9222 33.7807 19.6057C34.0972 19.2893 34.275 18.8601 34.275 18.4125C34.275 17.9649 34.0972 17.5357 33.7807 17.2193ZM30.273 20.727C29.0071 19.4612 27.2902 18.75 25.5 18.75C23.7098 18.75 21.9929 19.4612 20.727 20.727C19.4612 21.9929 18.75 23.7098 18.75 25.5C18.75 27.2902 19.4612 29.0071 20.727 30.273C21.9929 31.5388 23.7098 32.25 25.5 32.25C27.2902 32.25 29.0071 31.5388 30.273 30.273C31.5388 29.0071 32.25 27.2902 32.25 25.5C32.25 23.7098 31.5388 21.9929 30.273 20.727ZM22.6362 22.6362C23.3957 21.8767 24.4259 21.45 25.5 21.45C26.5741 21.45 27.6043 21.8767 28.3638 22.6362C29.1233 23.3957 29.55 24.4259 29.55 25.5C29.55 26.5741 29.1233 27.6043 28.3638 28.3638C27.6043 29.1233 26.5741 29.55 25.5 29.55C24.4259 29.55 23.3957 29.1233 22.6362 28.3638C21.8767 27.6043 21.45 26.5741 21.45 25.5C21.45 24.4259 21.8767 23.3957 22.6362 22.6362Z" fill="white"/>
</svg>
