<svg width="32" height="32" viewBox="0 0 32 32" fill="none" xmlns="http://www.w3.org/2000/svg">
<path d="M16.0007 31C24.285 31 31.0007 24.2843 31.0007 16C31.0007 7.71573 24.285 1 16.0007 1C7.71646 1 1.00073 7.71573 1.00073 16C1.00073 24.2843 7.71646 31 16.0007 31Z" stroke="#E46D07" stroke-width="2" stroke-linecap="round" stroke-linejoin="round"/>
<path d="M24.5728 28.3095C19.1975 26.8888 24.9611 23.3608 22.8342 20.7022C21.8921 19.5244 19.4936 17.696 20.6828 15.6549C22.5774 12.4029 30.653 13.4183 31.0014 16.0104" stroke="#E46D07" stroke-width="2" stroke-linecap="round" stroke-linejoin="round"/>
<path d="M5.8576 27.0506C7.42931 25.613 8.95151 24.2041 9.73197 22.3217C10.3878 20.7399 11.2348 18.6061 10.2431 17.2101C9.33298 15.9289 6.48829 17.4436 5.65884 16.1087C4.96265 14.9883 5.43073 12.504 6.53422 12.2495C8.37029 11.8261 11.715 14.3527 11.1158 11.976C8.45408 6.12295 12.448 7.42851 9.57208 2.44736" stroke="#E46D07" stroke-width="2" stroke-linecap="round" stroke-linejoin="round"/>
<path d="M29.6486 9.7759C28.6701 9.15659 27.0371 8.57341 25.2818 8.66939C23.5265 8.76538 19.8531 10.8628 19.0331 8.94587C18.0374 6.61827 21.0755 3.39746 24.5161 3.69054" stroke="#E46D07" stroke-width="2" stroke-linecap="round" stroke-linejoin="round"/>
</svg>
