<svg width="24" height="24" viewBox="0 0 24 24" fill="none" xmlns="http://www.w3.org/2000/svg">
<path fill-rule="evenodd" clip-rule="evenodd" d="M17.191 15.4782L23.6469 21.934C23.8738 22.1611 24.0012 22.469 24.0011 22.79C24.001 23.111 23.8733 23.4189 23.6463 23.6458C23.4192 23.8727 23.1113 24.0001 22.7903 24C22.4692 23.9999 22.1614 23.8723 21.9345 23.6452L15.4786 17.1893C13.5487 18.6841 11.1219 19.3875 8.69175 19.1565C6.26162 18.9255 4.01077 17.7773 2.39711 15.9457C0.783443 14.114 -0.0718282 11.7364 0.00528377 9.29655C0.0823958 6.85668 1.0861 4.53783 2.81221 2.81172C4.53832 1.08561 6.85717 0.0819075 9.29704 0.00479549C11.7369 -0.0723165 14.1145 0.782955 15.9462 2.39662C17.7778 4.01028 18.926 6.26113 19.157 8.69126C19.388 11.1214 18.6846 13.5483 17.1898 15.4782M9.60117 16.7993C11.5107 16.7993 13.342 16.0408 14.6922 14.6905C16.0425 13.3403 16.801 11.509 16.801 9.59949C16.801 7.68997 16.0425 5.85866 14.6922 4.50843C13.342 3.15819 11.5107 2.39964 9.60117 2.39964C7.69166 2.39964 5.86035 3.15819 4.51012 4.50843C3.15988 5.85866 2.40133 7.68997 2.40133 9.59949C2.40133 11.509 3.15988 13.3403 4.51012 14.6905C5.86035 16.0408 7.69166 16.7993 9.60117 16.7993Z" fill="white"/>
</svg>
