<svg width="28" height="28" viewBox="0 0 28 28" fill="none" xmlns="http://www.w3.org/2000/svg">
<path fill-rule="evenodd" clip-rule="evenodd" d="M20.0556 18.0579L27.5874 25.5897C27.8522 25.8546 28.0008 26.2138 28.0007 26.5884C28.0006 26.9629 27.8517 27.322 27.5867 27.5867C27.3218 27.8515 26.9626 28.0001 26.5881 28C26.2136 27.9999 25.8544 27.851 25.5897 27.586L18.0578 20.0542C15.8063 21.7981 12.9749 22.6188 10.1398 22.3493C7.30465 22.0797 4.67867 20.7402 2.79606 18.6033C0.913448 16.4664 -0.0843693 13.6925 0.00559474 10.846C0.0955587 7.99946 1.26655 5.29413 3.28034 3.28034C5.29413 1.26655 7.99946 0.0955587 10.846 0.00559474C13.6925 -0.0843693 16.4664 0.913448 18.6033 2.79606C20.7402 4.67867 22.0797 7.30465 22.3492 10.1398C22.6188 12.975 21.7981 15.8063 20.0542 18.0579M11.2008 19.5992C13.4286 19.5992 15.5651 18.7142 17.1404 17.139C18.7156 15.5637 19.6006 13.4272 19.6006 11.1994C19.6006 8.97163 18.7156 6.8351 17.1404 5.25983C15.5651 3.68456 13.4286 2.79958 11.2008 2.79958C8.97303 2.79958 6.8365 3.68456 5.26123 5.25983C3.68596 6.8351 2.80098 8.97163 2.80098 11.1994C2.80098 13.4272 3.68596 15.5637 5.26123 17.139C6.8365 18.7142 8.97303 19.5992 11.2008 19.5992Z" fill="#E46D07"/>
</svg>