<svg width="51" height="51" viewBox="0 0 51 51" fill="none" xmlns="http://www.w3.org/2000/svg">
<path d="M43.0331 43.033C47.7215 38.3446 50.3555 31.9858 50.3555 25.3553C50.3555 18.7249 47.7215 12.3661 43.0331 7.67767C38.3447 2.98926 31.9859 0.355339 25.3555 0.35534C18.7251 0.355339 12.3662 2.98926 7.6778 7.67767C2.98939 12.3661 0.355468 18.7249 0.35547 25.3553C0.355468 31.9858 2.98939 38.3446 7.6778 43.033C12.3662 47.7214 18.7251 50.3553 25.3555 50.3553C31.9859 50.3553 38.3447 47.7214 43.0331 43.033ZM36.1808 23.7931C36.3883 23.7895 36.5944 23.8272 36.7871 23.9041C36.9798 23.981 37.1552 24.0955 37.3032 24.2409C37.4512 24.3864 37.5687 24.5598 37.6489 24.7511C37.7292 24.9425 37.7705 25.1479 37.7705 25.3553C37.7705 25.5628 37.7292 25.7682 37.6489 25.9595C37.5687 26.1509 37.4512 26.3243 37.3032 26.4698C37.1552 26.6152 36.9798 26.7297 36.7871 26.8066C36.5944 26.8835 36.3883 26.9212 36.1808 26.9176L18.0789 26.9176L24.1954 33.0341C24.4884 33.3271 24.653 33.7245 24.653 34.1389C24.653 34.5533 24.4884 34.9508 24.1954 35.2438C23.9023 35.5368 23.5049 35.7014 23.0905 35.7014C22.6761 35.7014 22.2787 35.5368 21.9857 35.2438L13.2021 26.4602C12.909 26.1672 12.7444 25.7697 12.7444 25.3553C12.7444 24.9409 12.909 24.5435 13.2021 24.2505L21.9857 15.4669C22.2787 15.1739 22.6761 15.0092 23.0905 15.0092C23.5049 15.0092 23.9023 15.1739 24.1954 15.4669C24.4884 15.7599 24.653 16.1573 24.653 16.5717C24.653 16.9861 24.4884 17.3836 24.1954 17.6766L18.0789 23.7931L36.1808 23.7931Z" fill="#E46D07"/>
</svg>
