<svg width="1440" height="50" viewBox="0 0 1440 50" fill="none" xmlns="http://www.w3.org/2000/svg">
<path fill-rule="evenodd" clip-rule="evenodd" d="M0 49.5095C30 47.5691 110 11.4039 170 10.4336C230 9.46339 304.5 49.5119 366.5 49.5121C428.5 49.5123 474 0.0275739 540 0.0275739C597.5 0.0275739 719.5 45.6286 779.5 49.5095C877.549 55.8516 960.554 -1.43502 1051 0.0275488C1111 0.997783 1189 46.5988 1249 49.5095C1309 52.4203 1326 31.3486 1356 31.3486C1386 31.3486 1440 49.5095 1440 49.5095C1320 49.5095 1200 49.5095 1080 49.5095C840 49.5095 606.5 49.5121 366.5 49.5121C246.5 49.5121 120 49.5095 0 49.5095Z" fill="#E46D07"/>
</svg>
