<svg width="50" height="50" viewBox="0 0 50 50" fill="none" xmlns="http://www.w3.org/2000/svg">
<rect x="1" y="1" width="48" height="48" rx="24" stroke="white" stroke-width="2"/>
<path d="M19.83 12H31.17C35.49 12 39 15.51 39 19.83V31.17C39 33.2466 38.1751 35.2382 36.7066 36.7066C35.2382 38.1751 33.2466 39 31.17 39H19.83C15.51 39 12 35.49 12 31.17V19.83C12 17.7534 12.8249 15.7618 14.2934 14.2934C15.7618 12.8249 17.7534 12 19.83 12ZM19.56 14.7C18.271 14.7 17.0349 15.212 16.1235 16.1235C15.212 17.0349 14.7 18.271 14.7 19.56V31.44C14.7 34.1265 16.8735 36.3 19.56 36.3H31.44C32.729 36.3 33.9651 35.788 34.8765 34.8765C35.788 33.9651 36.3 32.729 36.3 31.44V19.56C36.3 16.8735 34.1265 14.7 31.44 14.7H19.56ZM32.5875 16.725C33.0351 16.725 33.4643 16.9028 33.7807 17.2193C34.0972 17.5357 34.275 17.9649 34.275 18.4125C34.275 18.8601 34.0972 19.2893 33.7807 19.6057C33.4643 19.9222 33.0351 20.1 32.5875 20.1C32.1399 20.1 31.7107 19.9222 31.3943 19.6057C31.0778 19.2893 30.9 18.8601 30.9 18.4125C30.9 17.9649 31.0778 17.5357 31.3943 17.2193C31.7107 16.9028 32.1399 16.725 32.5875 16.725ZM25.5 18.75C27.2902 18.75 29.0071 19.4612 30.273 20.727C31.5388 21.9929 32.25 23.7098 32.25 25.5C32.25 27.2902 31.5388 29.0071 30.273 30.273C29.0071 31.5388 27.2902 32.25 25.5 32.25C23.7098 32.25 21.9929 31.5388 20.727 30.273C19.4612 29.0071 18.75 27.2902 18.75 25.5C18.75 23.7098 19.4612 21.9929 20.727 20.727C21.9929 19.4612 23.7098 18.75 25.5 18.75ZM25.5 21.45C24.4259 21.45 23.3957 21.8767 22.6362 22.6362C21.8767 23.3957 21.45 24.4259 21.45 25.5C21.45 26.5741 21.8767 27.6043 22.6362 28.3638C23.3957 29.1233 24.4259 29.55 25.5 29.55C26.5741 29.55 27.6043 29.1233 28.3638 28.3638C29.1233 27.6043 29.55 26.5741 29.55 25.5C29.55 24.4259 29.1233 23.3957 28.3638 22.6362C27.6043 21.8767 26.5741 21.45 25.5 21.45Z" fill="white"/>
</svg>
