<svg width="50" height="50" viewBox="0 0 50 50" fill="none" xmlns="http://www.w3.org/2000/svg">
<rect x="1" y="1" width="48" height="48" rx="24" stroke="white" stroke-width="2"/>
<path d="M32.0408 16.23C30.9945 15.0594 30.4179 13.5561 30.4184 12H25.6888V30.6C25.6523 31.6065 25.2187 32.5599 24.4792 33.2594C23.7398 33.9589 22.7522 34.3499 21.7245 34.35C19.551 34.35 17.7449 32.61 17.7449 30.45C17.7449 27.87 20.2857 25.935 22.9031 26.73V21.99C17.6224 21.3 13 25.32 13 30.45C13 35.445 17.2245 39 21.7092 39C26.5153 39 30.4184 35.175 30.4184 30.45V21.015C32.3362 22.3648 34.6388 23.089 37 23.085V18.45C37 18.45 34.1224 18.585 32.0408 16.23Z" fill="white"/>
</svg>
