<svg width="50" height="50" viewBox="0 0 50 50" fill="none" xmlns="http://www.w3.org/2000/svg">
<rect x="1" y="1" width="48" height="48" rx="24" stroke="white" stroke-width="2"/>
<path fill-rule="evenodd" clip-rule="evenodd" d="M38.3348 18.2189C38.5354 17.5169 38.3348 17 37.3742 17H34.2024C33.3953 17 33.0231 17.4461 32.8213 17.9386C32.8213 17.9386 31.2082 22.0477 28.9233 24.7169C28.1838 25.4909 27.8479 25.7364 27.4443 25.7364C27.2426 25.7364 26.9393 25.4909 26.9393 24.7876V18.2189C26.9393 17.3754 26.7169 17 26.0451 17H21.0572C20.5534 17 20.2501 17.3909 20.2501 17.7624C20.2501 18.5609 21.3931 18.746 21.5103 20.9934V25.8766C21.5103 26.9476 21.3255 27.1417 20.9219 27.1417C19.8465 27.1417 17.2305 23.0133 15.6778 18.2896C15.377 17.3703 15.0725 17 14.2617 17H11.0875C10.1812 17 10 17.4461 10 17.9386C10 18.8154 11.0754 23.1714 15.0084 28.9327C17.6305 32.867 21.3218 35 24.6846 35C26.7012 35 26.9501 34.5269 26.9501 33.7104V30.7366C26.9501 29.789 27.1411 29.6 27.7803 29.6C28.2515 29.6 29.0574 29.8469 30.94 31.7433C33.0908 33.992 33.4448 35 34.6555 35H37.8273C38.7336 35 39.1879 34.5269 38.9269 33.5909C38.6393 32.66 37.6123 31.3087 36.2505 29.7054C35.511 28.7926 34.4018 27.809 34.0647 27.3166C33.5946 26.6853 33.7288 26.4037 34.0647 25.8419C34.0647 25.8419 37.9312 20.1513 38.3336 18.2189" fill="white"/>
</svg>
