<svg width="50" height="50" viewBox="0 0 50 50" fill="none" xmlns="http://www.w3.org/2000/svg">
<rect x="1" y="1" width="48" height="48" rx="24" stroke="white" stroke-width="2"/>
<path d="M25.0901 15H25.2459C26.6845 15.0053 33.9737 15.0587 35.9391 15.5961C36.5332 15.7602 37.0746 16.0799 37.5092 16.5233C37.9438 16.9667 38.2563 17.5183 38.4155 18.1231C38.5922 18.7993 38.7165 19.6944 38.8005 20.6179L38.818 20.803L38.8565 21.2657L38.8705 21.4508C38.9843 23.0772 38.9983 24.6005 39 24.9333V25.0667C38.9983 25.412 38.9825 27.0384 38.8565 28.7325L38.8425 28.9194L38.8267 29.1045C38.7392 30.1223 38.6097 31.1331 38.4155 31.8769C38.2563 32.4817 37.9438 33.0333 37.5092 33.4767C37.0746 33.9201 36.5332 34.2398 35.9391 34.4039C33.9089 34.9591 26.1927 34.9982 25.1234 35H24.8749C24.3341 35 22.0974 34.9893 19.7523 34.9075L19.4548 34.8968L19.3025 34.8897L19.0033 34.8772L18.704 34.8648C16.7614 34.7776 14.9115 34.637 14.0592 34.4021C13.4653 34.2382 12.924 33.9188 12.4894 33.4757C12.0549 33.0326 11.7423 32.4813 11.5828 31.8769C11.3885 31.1349 11.259 30.1223 11.1715 29.1045L11.1575 28.9176L11.1435 28.7325C11.0566 27.5268 11.0088 26.3184 11 25.1094L11 24.8906C11.0035 24.508 11.0175 23.1858 11.112 21.7266L11.1243 21.5433L11.1295 21.4508L11.1435 21.2657L11.182 20.803L11.1995 20.6179C11.2835 19.6944 11.4078 18.7975 11.5845 18.1231C11.7437 17.5183 12.0562 16.9667 12.4908 16.5233C12.9254 16.0799 13.4668 15.7602 14.0609 15.5961C14.9132 15.3648 16.7631 15.2224 18.7057 15.1335L19.0033 15.121L19.3043 15.1103L19.4548 15.105L19.754 15.0925C21.4196 15.0381 23.0859 15.0078 24.7524 15.0018L25.0901 15ZM22.2007 20.7123V29.286L29.4759 25.0009L22.2007 20.7123Z" fill="white"/>
</svg>
