<svg width="30" height="30" viewBox="0 0 30 30" fill="none" xmlns="http://www.w3.org/2000/svg">
<g clip-path="url(#clip0_3_42)">
<path d="M0.708281 10.4349C0.248789 11.8744 -5.85834e-05 13.408 1.0345e-08 14.9999C-5.85834e-05 16.5919 0.248848 18.1256 0.70834 19.5651L15 20.2174L29.2917 19.5652C29.7511 18.1256 30.0001 16.5919 30.0001 15C30 13.408 29.7512 11.8744 29.2917 10.4348L15 9.78265L0.708281 10.4349Z" fill="#F0F0F0"/>
<path d="M29.2916 10.4349L15 9.78271L0.708247 10.4349C0.572075 10.8617 0.454829 11.2968 0.356567 11.7392H29.6431C29.545 11.2968 29.4278 10.8615 29.2916 10.4349Z" fill="#D80027"/>
<path d="M0.356689 18.2608C0.454834 18.7032 0.57208 19.1383 0.708252 19.5651L0.709658 19.5652L14.9999 20.2173L29.2915 19.5652C29.4277 19.1384 29.5449 18.7032 29.6431 18.2608H0.356689Z" fill="#D80027"/>
<path d="M15 30C21.6923 30 27.3601 25.617 29.2916 19.5652H0.708374C2.63992 25.6169 8.30781 30 15 30V30Z" fill="#6DA544"/>
<path d="M14.9999 6.10357e-05C8.30768 0.000119629 2.63991 4.38311 0.708252 10.4348L29.2915 10.4349C27.3601 4.38305 21.6923 2.44199e-06 14.9999 6.10357e-05V6.10357e-05Z" fill="#338AF3"/>
<path d="M6.8547 6.19577C6.8547 4.79087 7.84206 3.61724 9.1606 3.32931C8.95798 3.28501 8.74769 3.26105 8.53171 3.26105C6.91089 3.26105 5.59692 4.57495 5.59692 6.19583C5.59692 7.81671 6.91077 9.13062 8.53171 9.13062C8.74769 9.13062 8.95792 9.10659 9.1606 9.06236C7.84212 8.77431 6.8547 7.60068 6.8547 6.19577V6.19577Z" fill="#F0F0F0"/>
<path d="M10.8952 7.52972L11.0939 8.14115H11.7368L11.2167 8.51908L11.4153 9.13051L10.8952 8.75263L10.375 9.13051L10.5737 8.51908L10.0536 8.14115H10.6965L10.8952 7.52972Z" fill="#F0F0F0"/>
<path d="M12.9471 7.52972L13.1458 8.14115H13.7887L13.2686 8.51908L13.4673 9.13051L12.9471 8.75263L12.427 9.13051L12.6257 8.51908L12.1056 8.14115H12.7484L12.9471 7.52972Z" fill="#F0F0F0"/>
<path d="M14.9991 7.52972L15.1977 8.14115H15.8407L15.3206 8.51908L15.5192 9.13051L14.9991 8.75263L14.4789 9.13051L14.6777 8.51908L14.1575 8.14115H14.8004L14.9991 7.52972Z" fill="#F0F0F0"/>
<path d="M17.0512 7.52972L17.2499 8.14115H17.8928L17.3727 8.51908L17.5714 9.13051L17.0512 8.75263L16.531 9.13051L16.7298 8.51908L16.2096 8.14115H16.8525L17.0512 7.52972Z" fill="#F0F0F0"/>
<path d="M19.1031 7.52972L19.3018 8.14115H19.9447L19.4246 8.51908L19.6233 9.13051L19.1031 8.75263L18.583 9.13051L18.7817 8.51908L18.2616 8.14115H18.9044L19.1031 7.52972Z" fill="#F0F0F0"/>
<path d="M12.9471 5.39532L13.1458 6.00669H13.7887L13.2686 6.38468L13.4673 6.99605L12.9471 6.61818L12.427 6.99605L12.6257 6.38468L12.1056 6.00669H12.7484L12.9471 5.39532Z" fill="#F0F0F0"/>
<path d="M14.9991 5.39532L15.1977 6.00669H15.8407L15.3206 6.38468L15.5192 6.99605L14.9991 6.61818L14.4789 6.99605L14.6777 6.38468L14.1575 6.00669H14.8004L14.9991 5.39532Z" fill="#F0F0F0"/>
<path d="M17.0512 5.39532L17.2499 6.00669H17.8928L17.3727 6.38468L17.5714 6.99605L17.0512 6.61818L16.531 6.99605L16.7298 6.38468L16.2096 6.00669H16.8525L17.0512 5.39532Z" fill="#F0F0F0"/>
<path d="M19.1031 5.39532L19.3018 6.00669H19.9447L19.4246 6.38468L19.6233 6.99605L19.1031 6.61818L18.583 6.99605L18.7817 6.38468L18.2616 6.00669H18.9044L19.1031 5.39532Z" fill="#F0F0F0"/>
<path d="M14.9991 3.26086L15.1977 3.87235H15.8407L15.3206 4.25022L15.5192 4.8617L14.9991 4.48383L14.4789 4.8617L14.6777 4.25022L14.1575 3.87235H14.8004L14.9991 3.26086Z" fill="#F0F0F0"/>
<path d="M17.0512 3.26086L17.2499 3.87235H17.8928L17.3727 4.25022L17.5714 4.8617L17.0512 4.48383L16.531 4.8617L16.7298 4.25022L16.2096 3.87235H16.8525L17.0512 3.26086Z" fill="#F0F0F0"/>
<path d="M19.1031 3.26086L19.3018 3.87235H19.9447L19.4246 4.25022L19.6233 4.8617L19.1031 4.48383L18.583 4.8617L18.7817 4.25022L18.2616 3.87235H18.9044L19.1031 3.26086Z" fill="#F0F0F0"/>
</g>
<defs>
<clipPath id="clip0_3_42">
<rect width="30" height="30" fill="white"/>
</clipPath>
</defs>
</svg>
