<svg width="25" height="520" viewBox="0 0 25 520" fill="none" xmlns="http://www.w3.org/2000/svg">
<path fill-rule="evenodd" clip-rule="evenodd" d="M1.74594 504.738C2.36892 500.217 2.99189 495.697 2.99189 489.475V480.397C2.99189 477.54 4.71227 477.33 6.6643 477.09C7.62187 476.973 8.63517 476.849 9.52849 476.402C12.2755 475.029 15.4284 471.83 10.1822 470.664C8.52747 470.297 7.81818 469.11 7.09207 467.896C6.52113 466.94 5.93978 465.968 4.88024 465.363C-0.208848 462.454 2.982 454.858 5.66826 448.463C7.00742 445.274 8.22117 442.385 8.22117 440.523C8.22117 437.831 7.26137 435.833 6.29139 433.813C5.30061 431.751 4.29921 429.665 4.29921 426.797C4.29921 423.28 4.62403 419.883 4.94985 416.475C5.27768 413.047 5.60653 409.607 5.60653 406.025C5.60653 402.404 5.275 398.86 4.94585 395.342C4.62138 391.874 4.29921 388.431 4.29921 384.962V362.956C4.29921 361.053 5.03844 359.974 5.85235 358.786C6.48191 357.867 7.15614 356.883 7.56751 355.402C8.35276 352.575 8.29952 349.575 8.24716 346.624C8.23414 345.89 8.22117 345.16 8.22117 344.435C8.22117 340.823 7.22414 337.592 6.23549 334.389C5.2633 331.239 4.29921 328.116 4.29921 324.68C4.29921 322.68 4.24525 320.618 4.1905 318.525C4.00485 311.429 3.8101 303.986 5.67916 297.444C7.0985 292.477 12.2578 286.26 18.0261 286.26C29.3898 286.26 24.2418 283.264 18.5474 279.951C17.3032 279.227 16.0329 278.488 14.903 277.762C8.17456 273.437 5.60653 268.756 5.60653 260.912C5.60653 256.215 5.27823 251.591 4.95067 246.977C4.62457 242.385 4.29921 237.802 4.29921 233.168C4.29921 232.427 4.24003 231.588 4.17764 230.704C3.96644 227.712 3.71858 224.2 5.60653 222.201C8.17669 219.48 8.22117 217.981 8.22117 214.357C8.22117 213.278 8.26518 212.178 8.30941 211.072C8.50138 206.273 8.69744 201.372 5.31602 197.652C2.35903 194.4 5.44621 193.519 8.63056 192.61C11.0133 191.93 13.4505 191.234 13.4505 189.518C13.4505 183.44 9.6115 178.422 6.00177 173.704C4.94477 172.323 3.90744 170.967 2.99189 169.618C0.179833 165.474 2.62321 159.245 4.47834 154.517C4.78184 153.743 5.06959 153.01 5.31602 152.332C6.75071 148.387 6.20761 143.356 5.65565 138.243C4.87656 131.026 4.07982 123.645 8.8022 118.923C15.7563 111.969 13.0806 105.069 10.2239 97.7024C9.63306 96.1786 9.03443 94.635 8.51169 93.0668C7.56799 90.2357 7.47339 87.0865 7.37916 83.9493C7.24111 79.3536 7.10384 74.7839 4.29921 71.2781C-0.921238 64.7525 1.4458 54.5239 4.29921 48.5C5.08971 46.8312 3.75483 43.8296 2.45491 40.9067C1.46737 38.6862 0.5 36.511 0.5 35C0.79065 33.8374 1.16578 32.5844 1.55172 31.2952C2.49365 28.1489 3.5 24.7874 3.5 22C4.39471 15.1405 3.15473 11.2715 2.00831 7.69444C1.23274 5.27451 0.5 2.9882 0.5 0H0.474121V519.993C0.482769 519.996 0.491396 519.998 0.5 520C0.5 513.778 1.12297 509.258 1.74594 504.738Z" fill="white"/>
</svg>
