<svg width="21" height="1201" viewBox="0 0 21 1201" fill="none" xmlns="http://www.w3.org/2000/svg">
<path fill-rule="evenodd" clip-rule="evenodd" d="M1.4407 1194.62C2.02542 1193.51 2.67669 1192.26 3.09822 1189.12C3.2172 1188.23 3.63942 1186.7 4.08461 1185.08C4.65839 1182.99 5.27033 1180.76 5.32044 1179.61C5.40888 1177.57 5.24154 1171.6 5.10395 1166.69C5.02169 1163.75 4.95007 1161.2 4.95007 1160.09C4.95007 1154.1 5.74311 1151.45 6.53615 1148.81C7.32919 1146.17 8.12224 1143.53 8.12224 1137.54C8.12224 1125.97 6.98077 1114.95 5.82448 1103.79C5.44485 1100.13 5.06363 1096.45 4.72068 1092.73C4.2304 1087.41 5.04041 1083.29 5.88385 1078.99C6.25234 1077.12 6.6272 1075.21 6.90281 1073.15C7.38214 1069.58 7.23469 1065.44 7.09438 1061.5C7.02993 1059.69 6.96699 1057.92 6.96699 1056.27C6.96699 1053.41 6.97632 1050.51 6.98574 1047.58C7.05358 1026.49 7.12634 1003.86 3.75797 983.883C3.09142 979.93 3.24246 975.351 3.38576 971.007C3.44415 969.237 3.50124 967.507 3.50124 965.873C3.50124 962.371 4.0923 959.606 4.67652 956.874C5.24739 954.204 5.81174 951.565 5.81174 948.297L5.81173 898.616C5.81173 885.939 6.38095 872.733 6.95433 859.431C7.53614 845.934 8.12222 832.337 8.12222 819.092C8.12222 809.974 7.83302 800.895 7.54402 791.822C7.2554 782.761 6.96698 773.707 6.96698 764.626C6.96697 758.535 7.54303 752.604 8.11986 746.664C8.69827 740.709 9.27747 734.746 9.27747 728.605C9.27747 724.775 9.07985 721.112 8.88609 717.52C8.43229 709.108 7.99959 701.087 10.176 692.236C10.4334 691.189 11.0415 689.866 11.7045 688.424C13.4392 684.652 15.5503 680.061 12.7432 677.444C11.1901 675.997 10.2001 671.27 9.35403 667.232C8.92459 665.181 8.53225 663.308 8.12222 662.131C6.22605 656.688 6.12886 650.607 6.03198 644.545C5.9649 640.348 5.89797 636.161 5.2341 632.201C4.24233 626.285 3.70473 615.864 4.72066 609.666C4.76551 609.392 4.81023 609.118 4.85502 608.844C5.68162 603.776 6.52948 598.579 8.63566 594.092C10.0276 591.126 9.72135 586.088 9.46037 581.794C9.36595 580.241 9.27746 578.785 9.27746 577.56L9.27746 553.721C9.27746 551.808 9.41758 549.542 9.56627 547.137C9.91828 541.444 10.3183 534.974 9.02074 530.577C8.33861 528.265 7.26762 525.589 6.11367 522.706C2.64439 514.038 -1.57482 503.497 1.76836 495.339C2.40999 493.773 3.258 492.542 4.11853 491.292C5.04966 489.94 5.99543 488.566 6.71024 486.725C9.59096 479.305 10.4327 471.693 10.4327 463.233C10.4327 461.24 10.3923 459.224 10.3518 457.209C10.1893 449.113 10.0268 441.016 12.4865 434.347C13.0619 432.787 13.0022 430.578 12.945 428.467C12.909 427.136 12.874 425.843 12.9999 424.776C13.1904 423.162 13.5705 421.653 13.9491 420.149C14.423 418.267 14.8946 416.393 14.9895 414.335C15.2887 407.846 15.2079 401.265 15.1275 394.71C15.0905 391.7 15.0537 388.697 15.0537 385.71C15.0537 380.948 16.2894 375.917 17.5421 370.816C19.2756 363.757 21.0416 356.567 19.6105 349.776C18.8476 346.156 17.4611 342.34 16.0481 338.451C14.0586 332.976 12.0164 327.356 11.5879 321.934C10.9253 313.55 9.48686 307.344 7.4804 299.486C5.50186 291.737 5.62921 283.203 5.75266 274.931C5.7823 272.945 5.81171 270.975 5.81171 269.033C5.81171 262.774 6.10314 256.561 6.39326 250.377C6.68075 244.248 6.96695 238.147 6.96695 232.056C6.96695 229.754 6.94871 227.439 6.93042 225.117C6.81129 209.997 6.68982 194.579 11.5879 180.634C14.3423 172.793 14.1648 153.206 11.973 144.788C8.75818 132.439 8.96615 119.435 9.17453 106.405C9.22597 103.188 9.27744 99.9702 9.27744 96.7597C9.27744 94.3196 7.55353 89.3439 6.38932 87.45C5.01721 85.2178 5.36905 79.6566 5.63764 75.4113C5.72954 73.9587 5.8117 72.6601 5.8117 71.7017C5.8117 70.2631 5.771 68.7841 5.72994 67.2918C5.64026 64.0325 5.54884 60.7099 5.87588 57.6065C6.06659 55.7967 6.51724 54.1497 6.96524 52.5124C7.54593 50.3901 8.12219 48.284 8.12219 45.8607C8.12219 37.9288 6.41316 30.5317 4.69234 23.0834C4.28864 21.3361 3.88429 19.586 3.5012 17.8255C3.05004 15.7521 2.91467 13.9354 2.77935 12.1192C2.53298 8.81256 2.28676 5.50812 0.135201 0.661194L0.135254 1200.66L0.138199 1200.66C0.184428 1197.02 0.768597 1195.91 1.4407 1194.62Z" fill="white"/>
</svg>
