<svg width="1199" height="27" viewBox="0 0 1199 27" fill="none" xmlns="http://www.w3.org/2000/svg">
<path fill-rule="evenodd" clip-rule="evenodd" d="M6.5043 1.76236C7.61916 2.55173 8.86093 3.43095 12 4C12.8861 4.16063 14.4203 4.73062 16.038 5.33163C18.1229 6.10623 20.3465 6.93235 21.5 7C23.5357 7.11939 29.5009 6.89349 34.4059 6.70774C37.3382 6.59669 39.8916 6.5 41 6.5C46.9816 6.5 49.6208 7.57061 52.2601 8.64122C54.8993 9.71182 57.5385 10.7824 63.5201 10.7824C75.0749 10.7824 86.0782 9.24146 97.2245 7.68046C100.884 7.16797 104.559 6.65331 108.274 6.19033C113.584 5.52846 117.704 6.62197 121.993 7.76061C123.867 8.25807 125.774 8.76414 127.826 9.13621C131.396 9.78331 135.53 9.58425 139.464 9.39483C141.271 9.30782 143.036 9.22285 144.685 9.22285C147.541 9.22285 150.438 9.23544 153.365 9.24816C174.435 9.33975 197.032 9.43798 216.986 4.89068C220.934 3.99083 225.507 4.19474 229.846 4.3882C231.614 4.46702 233.342 4.5441 234.974 4.5441C238.472 4.5441 241.233 5.34202 243.962 6.13072C246.628 6.9014 249.264 7.66327 252.528 7.66327H302.148C314.81 7.66327 327.999 8.43171 341.285 9.20577C354.766 9.99121 368.346 10.7824 381.575 10.7824C390.681 10.7824 399.749 10.392 408.811 10.0019C417.861 9.61222 426.904 9.22285 435.974 9.22285C442.058 9.22285 447.981 10.0005 453.913 10.7792C459.861 11.5601 465.817 12.342 471.951 12.342C475.776 12.342 479.434 12.0752 483.022 11.8137C491.423 11.201 499.435 10.6169 508.275 13.555C509.321 13.9025 510.641 14.7234 512.082 15.6186C515.849 17.9604 520.435 20.8104 523.048 17.0208C524.494 14.9241 529.214 13.5875 533.248 12.4454C535.296 11.8656 537.167 11.336 538.342 10.7824C543.779 8.22261 549.853 8.0914 555.907 7.96062C560.099 7.87006 564.281 7.7797 568.236 6.88348C574.145 5.54458 584.553 4.81882 590.743 6.19033C591.017 6.25088 591.29 6.31125 591.565 6.37171C596.626 7.48762 601.817 8.63224 606.298 11.4756C609.26 13.3547 614.292 12.9413 618.581 12.5889C620.132 12.4615 621.586 12.342 622.809 12.342H646.62C648.53 12.342 650.794 12.5312 653.195 12.7319C658.881 13.2071 665.343 13.7472 669.735 11.9954C672.044 11.0746 674.717 9.62876 677.596 8.07093C686.253 3.38739 696.782 -2.30857 704.93 2.20473C706.494 3.07093 707.724 4.21574 708.972 5.37744C710.322 6.63447 711.694 7.91128 713.533 8.87628C720.944 12.7653 728.547 13.9016 736.996 13.9016C738.987 13.9016 741 13.847 743.013 13.7924C751.099 13.573 759.186 13.3536 765.847 16.6742C767.405 17.4511 769.611 17.3704 771.72 17.2932C773.049 17.2445 774.34 17.1973 775.406 17.3673C777.018 17.6245 778.526 18.1376 780.028 18.6487C781.908 19.2885 783.779 19.9252 785.834 20.0533C792.315 20.4572 798.889 20.3481 805.436 20.2395C808.441 20.1897 811.441 20.1399 814.424 20.1399C819.18 20.1399 824.205 21.8082 829.3 23.4993C836.35 25.8396 843.532 28.2237 850.314 26.2916C853.929 25.2618 857.74 23.39 861.625 21.4824C867.093 18.7966 872.707 16.0397 878.122 15.4612C886.496 14.5666 892.694 12.6247 900.542 9.916C908.281 7.24497 916.805 7.4169 925.067 7.58356C927.05 7.62356 929.019 7.66327 930.957 7.66327C937.209 7.66327 943.414 8.05671 949.591 8.44836C955.712 8.83648 961.806 9.22285 967.89 9.22285C970.188 9.22285 972.5 9.19823 974.819 9.17354C989.922 9.01271 1005.32 8.84873 1019.25 15.4612C1027.08 19.1796 1046.64 18.9399 1055.05 15.981C1067.38 11.641 1080.37 11.9218 1093.39 12.2031C1096.6 12.2725 1099.81 12.342 1103.02 12.342C1105.46 12.342 1110.43 10.0147 1112.32 8.44306C1114.55 6.59071 1120.1 7.06569 1124.34 7.42828C1125.79 7.55235 1127.09 7.66327 1128.05 7.66327C1129.48 7.66327 1130.96 7.60833 1132.45 7.5529C1135.71 7.43183 1139.03 7.30841 1142.12 7.74991C1143.93 8.00737 1145.58 8.61574 1147.21 9.22054C1149.33 10.0045 1151.44 10.7824 1153.86 10.7824C1161.78 10.7824 1169.17 8.47528 1176.6 6.15219C1178.35 5.60718 1180.1 5.06129 1181.86 4.5441C1183.93 3.93503 1185.74 3.75228 1187.56 3.5696C1190.86 3.237 1194.16 2.90461 1199 0H0.474121V0.00397568C4.109 0.0663861 5.22282 0.855015 6.5043 1.76236Z" fill="white"/>
</svg>
