<svg width="386" height="21" viewBox="0 0 386 21" fill="none" xmlns="http://www.w3.org/2000/svg">
<path fill-rule="evenodd" clip-rule="evenodd" d="M385.32 3.91255L385.32 0.661332L0.135253 0.661349L0.135253 2.98147C0.955145 2.97291 1.81752 2.94695 2.71653 2.91988C3.93745 2.88312 5.22594 2.84432 6.56733 2.84432C10.3625 2.84432 13.3911 3.9666 16.344 5.06084C19.153 6.10175 21.8936 7.11728 25.1603 7.11728C26.3052 7.11728 27.5457 7.17816 28.8228 7.24084C31.9292 7.3933 35.2523 7.5564 37.943 6.87989C39.435 6.50477 41.197 6.48719 42.9508 6.46969C45.0306 6.44894 47.0989 6.4283 48.6921 5.81165C54.716 3.48006 67.7319 -0.353181 74.2575 3.91256C77.7633 6.20428 82.333 6.31645 86.9287 6.42925C90.0658 6.50625 93.2151 6.58355 96.0461 7.35467C97.6144 7.78181 99.158 8.27096 100.682 8.75379C108.048 11.088 114.948 13.2744 121.902 7.59205C126.624 3.73329 134.005 4.38432 141.222 5.02093C146.335 5.47195 151.366 5.91573 155.311 4.74341C155.989 4.54205 156.722 4.30692 157.496 4.05893C162.225 2.54306 168.453 0.546525 172.597 2.84432C173.946 3.59243 175.302 4.44006 176.684 5.30376C181.401 8.25334 186.419 11.3902 192.497 11.3902C194.214 11.3902 194.909 9.39879 195.589 7.4518C196.498 4.84979 197.379 2.32719 200.632 4.74341C204.351 7.50644 209.253 7.34623 214.052 7.18937C215.157 7.15323 216.257 7.11727 217.336 7.11727C220.96 7.11727 222.459 7.08092 225.18 4.98079C227.179 3.4381 230.691 3.64064 233.684 3.81322C234.568 3.86419 235.406 3.91256 236.147 3.91256C240.781 3.91256 245.364 4.17841 249.957 4.44487C254.57 4.71253 259.194 4.98079 263.892 4.98079C271.736 4.98079 276.416 7.07919 280.741 12.5772C281.468 13.5004 282.207 14.5384 282.931 15.5551C286.244 20.2081 289.239 24.4146 289.239 15.1291C289.239 10.4157 295.456 6.19991 300.424 5.04014C306.966 3.51289 314.409 3.67202 321.504 3.82372C323.597 3.86846 325.66 3.91255 327.66 3.91255C331.095 3.91255 334.219 4.70033 337.368 5.49472C340.572 6.30257 343.802 7.11727 347.415 7.11727C348.139 7.11727 348.87 7.12786 349.603 7.1385C352.554 7.18128 355.555 7.22479 358.382 6.58315C359.863 6.24701 360.847 5.69608 361.766 5.18165C362.954 4.51659 364.032 3.91255 365.935 3.91255L385.32 3.91255Z" fill="white"/>
</svg>
