<svg width="1204" height="524" viewBox="0 0 1204 524" fill="none" xmlns="http://www.w3.org/2000/svg">
<path fill-rule="evenodd" clip-rule="evenodd" d="M15.28 8.52108C13.3156 8.16393 11.4896 7.76344 9.71208 7.37356C8.1284 7.02621 6.58314 6.68728 5.01267 6.39494C5.18924 9.81816 6.46164 12.6239 7.70449 15.3646C8.97835 18.1736 10.2212 20.9141 10.2212 24.1809C10.2212 25.3257 10.2957 26.5662 10.3724 27.8434C10.559 30.9498 10.7586 34.2728 9.93066 36.9636C9.47158 38.4556 9.45007 40.2175 9.42865 41.9713C9.40326 44.0511 9.378 46.1195 8.62334 47.7126C5.76992 53.7365 1.07876 66.7524 6.29921 73.278C9.10384 76.7838 9.24111 81.3535 9.37916 85.9492C9.4734 89.0864 9.56799 92.2356 10.5117 95.0667C11.0344 96.6349 11.6331 98.1786 12.2239 99.7023C15.0806 107.069 17.7563 113.968 10.8022 120.923C6.07982 125.645 6.87656 133.026 7.65565 140.242C8.20761 145.356 8.75071 150.386 7.31602 154.332C7.0696 155.01 6.78184 155.743 6.47834 156.517C4.62321 161.245 2.17983 167.473 4.99189 171.618C5.90744 172.967 6.94477 174.323 8.00177 175.704C11.6115 180.422 15.4505 185.439 15.4505 191.518C15.4505 193.234 13.0133 193.93 10.6306 194.61C7.44621 195.519 4.35902 196.4 7.31602 199.652C10.6974 203.372 10.5014 208.273 10.3094 213.072C10.2652 214.178 10.2212 215.278 10.2212 216.357C10.2212 219.981 10.1767 221.48 7.60653 224.201C5.71857 226.2 5.96644 229.712 6.17764 232.704C6.24003 233.588 6.29921 234.427 6.29921 235.168C6.29921 239.802 6.62457 244.384 6.95066 248.977L6.95067 248.977C7.27823 253.591 7.60653 258.215 7.60653 262.912C7.60653 270.756 10.1746 275.437 16.903 279.762C18.0327 280.488 19.3028 281.227 20.5469 281.951L20.5474 281.951C26.2418 285.264 31.3898 288.26 20.0261 288.26C14.2578 288.26 9.0985 294.477 7.67916 299.444C5.8101 305.986 6.00484 313.429 6.1905 320.525C6.24525 322.618 6.29921 324.68 6.29921 326.68C6.29921 330.115 7.2633 333.239 8.23549 336.389C9.22414 339.592 10.2212 342.823 10.2212 346.435C10.2212 347.159 10.2341 347.89 10.2472 348.623L10.2472 348.623V348.624V348.624C10.2995 351.575 10.3528 354.575 9.56751 357.402C9.15614 358.883 8.48191 359.867 7.85235 360.786C7.03844 361.974 6.29921 363.053 6.29921 364.956V386.962C6.29921 390.431 6.62138 393.874 6.94585 397.342C7.27501 400.86 7.60653 404.404 7.60653 408.025C7.60653 411.607 7.27768 415.047 6.94985 418.475C6.62403 421.883 6.29921 425.28 6.29921 428.797C6.29921 431.665 7.30061 433.75 8.29139 435.813C9.26138 437.833 10.2212 439.831 10.2212 442.523C10.2212 444.385 9.00742 447.274 7.66825 450.463C4.982 456.858 1.79115 464.454 6.88024 467.362C7.93977 467.968 8.52111 468.94 9.09206 469.896C9.81817 471.11 10.5275 472.297 12.1822 472.664C17.4284 473.83 14.2755 477.029 11.5285 478.402C10.6352 478.849 9.62186 478.973 8.66429 479.09C6.71226 479.33 4.99189 479.54 4.99189 482.397V491.475V518.609C6.56949 518.316 8.12138 517.975 9.71203 517.627H9.7122C11.4897 517.237 13.3157 516.836 15.28 516.479C16.4848 516.26 17.7435 516.314 18.9961 516.368H18.9966C19.8441 516.404 20.6888 516.441 21.5121 516.392C23.1302 516.297 24.3607 515.52 25.5548 514.765C26.7515 514.009 27.9117 513.276 29.3887 513.276H65.1367C76.6457 513.276 87.6055 514.816 98.7076 516.375L98.7084 516.375C102.353 516.887 106.014 517.401 109.714 517.864C115.003 518.525 119.106 517.433 123.379 516.295C125.246 515.798 127.145 515.293 129.189 514.921C132.744 514.274 136.862 514.473 140.781 514.663H140.782H140.783C142.583 514.749 144.34 514.834 145.981 514.834C148.823 514.834 151.706 514.822 154.618 514.809H154.623H154.627C175.613 514.718 198.122 514.619 217.996 519.162C221.929 520.061 226.484 519.857 230.806 519.664H230.807H230.809C232.569 519.585 234.289 519.508 235.914 519.508C239.398 519.508 242.148 518.711 244.866 517.923C247.522 517.153 250.147 516.392 253.398 516.392H302.822C315.433 516.392 328.569 515.625 341.801 514.852L341.804 514.851C355.232 514.067 368.759 513.276 381.935 513.276C391.006 513.276 400.038 513.666 409.064 514.056C418.078 514.445 427.085 514.834 436.12 514.834C442.179 514.834 448.079 514.057 453.987 513.28L453.988 513.279C459.912 512.499 465.845 511.718 471.954 511.718C475.763 511.718 479.406 511.985 482.979 512.246H482.979L482.981 512.246C491.35 512.858 499.329 513.442 508.135 510.506C509.176 510.159 510.492 509.339 511.927 508.445C515.68 506.106 520.247 503.258 522.85 507.044C524.29 509.139 528.992 510.474 533.01 511.615C535.049 512.194 536.913 512.723 538.084 513.276C543.499 515.834 549.549 515.965 555.578 516.095C559.754 516.186 563.92 516.276 567.859 517.171C573.744 518.509 584.112 519.234 590.277 517.864C590.55 517.803 590.822 517.743 591.095 517.683C596.137 516.568 601.307 515.424 605.771 512.584C608.721 510.707 613.734 511.12 618.005 511.472C619.55 511.599 620.998 511.718 622.217 511.718H645.934C647.836 511.718 650.091 511.529 652.483 511.329C658.146 510.854 664.583 510.315 668.958 512.065C671.321 513.01 673.803 514.388 676.369 515.812C683.808 519.943 691.959 524.467 700 520C701.643 519.087 703.946 518.339 706.276 517.581L706.277 517.581C708.547 516.843 710.843 516.096 712.582 515.181C719.964 511.295 727.537 510.16 735.953 510.16C737.936 510.16 739.941 510.215 741.946 510.269C750 510.489 758.055 510.708 764.69 507.39C766.242 506.614 768.439 506.695 770.539 506.772C771.863 506.821 773.149 506.868 774.211 506.698C775.816 506.441 777.318 505.929 778.814 505.418C780.687 504.779 782.55 504.143 784.598 504.015C791.053 503.611 797.601 503.72 804.122 503.829L804.127 503.829C807.119 503.879 810.106 503.928 813.075 503.928C817.812 503.928 822.818 502.262 827.892 500.572C834.914 498.234 842.067 495.853 848.823 497.783C852.424 498.811 856.22 500.681 860.089 502.587C865.536 505.27 871.127 508.024 876.521 508.602C884.862 509.496 891.035 511.436 898.853 514.142C906.561 516.81 915.051 516.638 923.28 516.472C925.256 516.432 927.216 516.392 929.148 516.392C935.374 516.392 941.554 515.999 947.705 515.608L947.708 515.608L947.71 515.608C953.806 515.22 959.875 514.834 965.934 514.834C968.221 514.834 970.521 514.859 972.829 514.884H972.833H972.836C987.879 515.044 1003.22 515.208 1017.09 508.602C1024.89 504.888 1044.38 505.127 1052.75 508.083C1065.04 512.419 1077.97 512.138 1090.93 511.857C1094.13 511.788 1097.34 511.718 1100.53 511.718C1102.96 511.718 1107.91 514.043 1109.79 515.613C1112.01 517.464 1117.54 516.989 1121.77 516.627C1123.21 516.503 1124.51 516.392 1125.46 516.392C1126.89 516.392 1128.36 516.447 1129.85 516.503C1133.09 516.624 1136.39 516.747 1139.48 516.306C1141.28 516.049 1142.92 515.441 1144.55 514.837C1146.66 514.053 1148.76 513.276 1151.17 513.276C1159.06 513.276 1166.42 515.581 1173.83 517.902L1173.83 517.904L1173.84 517.906C1175.57 518.449 1177.31 518.993 1179.06 519.508C1182.09 520.402 1185.15 521.21 1188.28 521.779V494.319V485.241C1188.28 482.384 1186.56 482.174 1184.61 481.934C1183.65 481.817 1182.64 481.693 1181.74 481.246C1178.99 479.872 1175.84 476.674 1181.09 475.508C1182.74 475.141 1183.45 473.954 1184.18 472.74C1184.75 471.784 1185.33 470.812 1186.39 470.206C1191.48 467.298 1188.29 459.702 1185.6 453.307C1184.26 450.118 1183.05 447.229 1183.05 445.367C1183.05 442.675 1184.01 440.677 1184.98 438.657C1185.97 436.594 1186.97 434.509 1186.97 431.641C1186.97 428.124 1186.65 424.727 1186.32 421.319C1185.99 417.891 1185.66 414.451 1185.66 410.869C1185.66 407.248 1186 403.704 1186.32 400.186C1186.65 396.718 1186.97 393.275 1186.97 389.806V367.8C1186.97 365.897 1186.23 364.818 1185.42 363.63C1184.79 362.711 1184.11 361.727 1183.7 360.246C1182.92 357.419 1182.97 354.419 1183.02 351.468C1183.04 350.734 1183.05 350.003 1183.05 349.279C1183.05 345.667 1184.05 342.436 1185.04 339.233C1186.01 336.083 1186.97 332.959 1186.97 329.524C1186.97 327.524 1187.03 325.462 1187.08 323.369C1187.27 316.273 1187.46 308.83 1185.59 302.288C1184.17 297.321 1179.01 291.104 1173.24 291.104C1161.88 291.104 1167.03 288.108 1172.72 284.795L1172.72 284.794C1173.97 284.071 1175.24 283.332 1176.37 282.606C1183.1 278.281 1185.66 273.6 1185.66 265.756C1185.66 261.059 1185.99 256.435 1186.32 251.821C1186.65 247.229 1186.97 242.646 1186.97 238.012C1186.97 237.271 1187.03 236.432 1187.09 235.548C1187.3 232.556 1187.55 229.044 1185.66 227.045C1183.09 224.324 1183.05 222.825 1183.05 219.201C1183.05 218.122 1183.01 217.022 1182.96 215.916C1182.77 211.117 1182.57 206.216 1185.95 202.496C1188.91 199.244 1185.82 198.363 1182.64 197.454C1180.26 196.774 1177.82 196.078 1177.82 194.362C1177.82 188.283 1181.66 183.266 1185.27 178.548C1186.33 177.167 1187.36 175.811 1188.28 174.462C1191.09 170.317 1188.65 164.089 1186.79 159.361C1186.49 158.587 1186.2 157.854 1185.95 157.176C1184.52 153.23 1185.06 148.2 1185.61 143.087C1186.39 135.87 1187.19 128.489 1182.47 123.767C1175.51 116.812 1178.19 109.913 1181.05 102.546C1181.64 101.023 1182.24 99.4789 1182.76 97.9107C1183.7 95.0796 1183.8 91.9303 1183.89 88.7932C1184.03 84.1975 1184.17 79.6278 1186.97 76.122C1192.19 69.5964 1187.5 56.5805 1184.65 50.5566C1183.89 48.9635 1183.87 46.8951 1183.84 44.8153C1183.82 43.0615 1183.8 41.2996 1183.34 39.8076C1182.51 37.1168 1182.71 33.7937 1182.9 30.6874C1182.97 29.4102 1183.05 28.1697 1183.05 27.0249C1183.05 23.7581 1184.29 21.0176 1185.57 18.2085C1186.91 15.2556 1188.28 12.227 1188.28 8.43187C1188.28 7.09262 1188.23 5.80611 1188.19 4.58691L1188.19 4.58117L1188.18 4.53188C1188.17 4.09428 1188.15 3.66541 1188.14 3.24596C1185.06 3.8136 1182.04 4.61094 1179.06 5.49159C1177.3 6.00824 1175.56 6.55357 1173.83 7.09802C1166.42 9.41881 1159.06 11.7237 1151.17 11.7237C1148.76 11.7237 1146.66 10.9465 1144.55 10.1634C1142.92 9.55916 1141.28 8.9514 1139.48 8.6942C1136.39 8.25314 1133.09 8.37644 1129.85 8.49738C1128.36 8.55276 1126.89 8.60764 1125.46 8.60764C1124.51 8.60764 1123.21 8.49684 1121.77 8.37289C1117.54 8.01066 1112.01 7.53615 1109.79 9.38665C1107.91 10.9568 1102.96 13.2817 1100.53 13.2817C1097.34 13.2817 1094.13 13.2123 1090.93 13.1429C1077.97 12.8619 1065.04 12.5814 1052.75 16.9171C1044.38 19.873 1024.89 20.1125 1017.09 16.3978C1003.22 9.79192 987.879 9.95574 972.837 10.1164L972.836 10.1164C970.526 10.1411 968.224 10.1657 965.934 10.1657C959.874 10.1657 953.805 9.77968 947.708 9.39195C941.555 9.00068 935.375 8.60764 929.148 8.60764C927.217 8.60764 925.256 8.56797 923.281 8.52801C915.051 8.36152 906.561 8.18976 898.853 10.8581C891.035 13.5641 884.862 15.5041 876.521 16.3978C871.127 16.9757 865.536 19.7298 860.089 22.4129C856.22 24.3186 852.424 26.1885 848.823 27.2174C842.067 29.1475 834.914 26.7658 827.892 24.4279C822.818 22.7384 817.812 21.0718 813.075 21.0718C810.104 21.0718 807.116 21.1215 804.123 21.1713L804.122 21.1713C797.601 21.2798 791.053 21.3887 784.598 20.9853C782.55 20.8573 780.687 20.2212 778.814 19.5821C777.318 19.0715 775.816 18.5589 774.211 18.302C773.149 18.1321 771.863 18.1793 770.539 18.2279C768.439 18.305 766.242 18.3857 764.69 17.6096C758.055 14.2923 750 14.5115 741.946 14.7306C739.941 14.7852 737.936 14.8397 735.953 14.8397C727.537 14.8397 719.964 13.7045 712.582 9.81944C710.703 8.83034 709.168 7.75372 707.652 6.69099C706.325 5.76067 705.014 4.84099 703.5 4C695.262 -0.576622 684.879 4.86451 676.326 9.34651L676.325 9.34692C673.65 10.749 671.153 12.0572 668.958 12.9355C664.583 14.6855 658.146 14.146 652.483 13.6712C650.091 13.4707 647.836 13.2817 645.934 13.2817H622.217C620.998 13.2817 619.55 13.4011 618.005 13.5284C613.734 13.8804 608.721 14.2934 605.771 12.4161C601.307 9.57566 596.137 8.43219 591.096 7.31739L591.087 7.31558C590.817 7.25579 590.547 7.19607 590.277 7.13617C584.112 5.76604 573.744 6.49107 567.859 7.82863C563.92 8.72396 559.754 8.81422 555.579 8.90469C549.549 9.03535 543.499 9.16642 538.084 11.7237C536.913 12.2767 535.049 12.8058 533.01 13.385C528.992 14.526 524.29 15.8612 522.85 17.9558C520.247 21.7416 515.68 18.8945 511.926 16.555L511.926 16.5548C510.492 15.6606 509.176 14.8406 508.135 14.4935C499.329 11.5583 491.35 12.1419 482.981 12.7539C479.408 13.0152 475.764 13.2817 471.954 13.2817C465.845 13.2817 459.912 12.5006 453.988 11.7205C448.079 10.9426 442.179 10.1657 436.12 10.1657C427.085 10.1657 418.078 10.5546 409.064 10.9439C400.038 11.3337 391.006 11.7237 381.935 11.7237C368.759 11.7237 355.232 10.9333 341.804 10.1486L341.804 10.1486C328.571 9.37531 315.434 8.60764 302.822 8.60764H253.398C250.147 8.60764 247.522 7.84653 244.866 7.07663C242.148 6.28872 239.398 5.49159 235.914 5.49159C234.288 5.49159 232.566 5.41459 230.806 5.33585C226.484 5.14258 221.929 4.93888 217.996 5.83782C198.122 10.3806 175.613 10.2824 154.626 10.191L154.625 10.1909C151.711 10.1782 148.825 10.1657 145.981 10.1657C144.339 10.1657 142.581 10.2506 140.781 10.3375C136.862 10.5267 132.744 10.7256 129.189 10.0791C127.145 9.70741 125.246 9.20185 123.379 8.70489L123.379 8.70487C119.106 7.56738 115.003 6.47497 109.714 7.13617C106.013 7.59869 102.353 8.11281 98.7083 8.62478L98.708 8.62482C87.6058 10.1842 76.6459 11.7237 65.1367 11.7237H29.3887C27.9117 11.7237 26.7515 10.9907 25.5548 10.2347C24.3607 9.48024 23.1302 8.70282 21.5121 8.60764C20.6888 8.55921 19.8442 8.59557 18.9967 8.63205C17.7439 8.68598 16.485 8.74017 15.28 8.52108ZM1202.47 2H2.474V522H1202.47V2Z" fill="white"/>
<path d="M9.71208 7.37356L10.0334 5.90839L10.0334 5.90839L9.71208 7.37356ZM15.28 8.52108L15.5483 7.04528L15.5483 7.04528L15.28 8.52108ZM5.01267 6.39494L5.28718 4.92027L3.41666 4.57207L3.51466 6.47221L5.01267 6.39494ZM7.70449 15.3646L9.07058 14.745L9.07058 14.745L7.70449 15.3646ZM10.3724 27.8434L11.8697 27.7534L11.8697 27.7534L10.3724 27.8434ZM9.93066 36.9636L11.3643 37.4047L11.3643 37.4047L9.93066 36.9636ZM9.42865 41.9713L7.92876 41.953L7.92876 41.953L9.42865 41.9713ZM8.62334 47.7126L9.97894 48.3548L9.97894 48.3548L8.62334 47.7126ZM6.29921 73.278L5.12791 74.2151L5.12791 74.2151L6.29921 73.278ZM9.37916 85.9492L10.8785 85.9042L10.8785 85.9042L9.37916 85.9492ZM10.5117 95.0667L9.08866 95.541L9.08866 95.541L10.5117 95.0667ZM12.2239 99.7023L10.8254 100.245L10.8254 100.245L12.2239 99.7023ZM10.8022 120.923L9.74154 119.862L9.74154 119.862L10.8022 120.923ZM7.65565 140.242L6.16432 140.403L6.16432 140.403L7.65565 140.242ZM7.31602 154.332L8.72571 154.844L8.72571 154.844L7.31602 154.332ZM6.47834 156.517L5.08195 155.969L5.08195 155.969L6.47834 156.517ZM4.99189 171.618L6.2331 170.775L6.2331 170.775L4.99189 171.618ZM8.00177 175.704L6.81046 176.616L6.81046 176.616L8.00177 175.704ZM10.6306 194.61L10.2189 193.167L10.2189 193.167L10.6306 194.61ZM7.31602 199.652L8.42593 198.643L8.42593 198.643L7.31602 199.652ZM10.3094 213.072L8.8106 213.012L8.8106 213.012L10.3094 213.072ZM7.60653 224.201L6.51602 223.171L6.51601 223.171L7.60653 224.201ZM6.17764 232.704L7.67392 232.599L7.67392 232.599L6.17764 232.704ZM6.95066 248.977L5.45442 249.084L5.45507 249.093L5.45584 249.102L6.95066 248.977ZM6.95067 248.977L8.4469 248.871L8.44625 248.862L8.44549 248.853L6.95067 248.977ZM16.903 279.762L17.7142 278.5L17.7142 278.5L16.903 279.762ZM20.5469 281.951L19.7926 283.248L19.8104 283.258L19.8286 283.268L20.5469 281.951ZM20.5474 281.951L21.3017 280.655L21.2838 280.644L21.2657 280.634L20.5474 281.951ZM7.67916 299.444L6.23688 299.032L6.23687 299.032L7.67916 299.444ZM6.1905 320.525L7.68999 320.486L7.68999 320.486L6.1905 320.525ZM8.23549 336.389L9.66877 335.947L9.66877 335.947L8.23549 336.389ZM10.2472 348.623L8.74738 348.65L8.74748 348.654L10.2472 348.623ZM10.2472 348.623H11.7472V348.608L11.7468 348.592L10.2472 348.623ZM10.2472 348.624H8.74716V348.637L8.74739 348.651L10.2472 348.624ZM9.56751 357.402L11.0128 357.804L11.0128 357.804L9.56751 357.402ZM7.85235 360.786L9.08977 361.634L9.08978 361.634L7.85235 360.786ZM6.94585 397.342L5.45237 397.482L5.45237 397.482L6.94585 397.342ZM6.94985 418.475L5.45666 418.332L5.45666 418.332L6.94985 418.475ZM8.29139 435.813L6.93926 436.463L6.93926 436.463L8.29139 435.813ZM7.66825 450.463L9.05121 451.043L9.05121 451.043L7.66825 450.463ZM6.88024 467.362L7.62447 466.06L7.62445 466.06L6.88024 467.362ZM9.09206 469.896L7.80455 470.665L7.80457 470.665L9.09206 469.896ZM12.1822 472.664L12.5075 471.2L12.5075 471.2L12.1822 472.664ZM11.5285 478.402L12.1993 479.744L12.1993 479.744L11.5285 478.402ZM8.66429 479.09L8.84678 480.579L8.84678 480.579L8.66429 479.09ZM4.99189 518.609H3.49189V520.413L5.26599 520.084L4.99189 518.609ZM9.71203 517.627V516.127H9.54947L9.39068 516.161L9.71203 517.627ZM9.7122 517.627V519.127H9.87477L10.0336 519.092L9.7122 517.627ZM15.28 516.479L15.0116 515.003L15.0116 515.003L15.28 516.479ZM18.9961 516.368L18.9316 517.867L18.9638 517.868H18.9961V516.368ZM18.9966 516.368L19.0612 514.869L19.0289 514.868H18.9966V516.368ZM21.5121 516.392L21.424 514.895L21.4239 514.895L21.5121 516.392ZM25.5548 514.765L26.356 516.033L26.356 516.033L25.5548 514.765ZM98.7076 516.375L99.033 514.911L98.975 514.898L98.9162 514.89L98.7076 516.375ZM98.7084 516.375L98.383 517.84L98.441 517.852L98.4997 517.861L98.7084 516.375ZM109.714 517.864L109.528 519.352L109.528 519.352L109.714 517.864ZM123.379 516.295L122.993 514.846L122.993 514.846L123.379 516.295ZM129.189 514.921L129.457 516.397L129.457 516.397L129.189 514.921ZM140.781 514.663L140.709 516.161L140.745 516.163H140.781V514.663ZM140.783 514.663L140.856 513.164L140.82 513.163H140.783V514.663ZM154.618 514.809L154.618 513.309L154.612 513.309L154.618 514.809ZM154.627 514.809V516.309L154.633 516.309L154.627 514.809ZM217.996 519.162L217.662 520.624L217.662 520.624L217.996 519.162ZM230.806 519.664V518.164H230.772L230.739 518.166L230.806 519.664ZM230.809 519.664V521.164H230.843L230.876 521.163L230.809 519.664ZM244.866 517.923L245.283 519.364L245.283 519.364L244.866 517.923ZM341.801 514.852L341.889 516.349L341.901 516.348L341.801 514.852ZM341.804 514.851L341.717 513.354L341.704 513.355L341.804 514.851ZM409.064 514.056L409.128 512.557L409.128 512.557L409.064 514.056ZM453.987 513.28L454.183 514.767L454.233 514.76L454.282 514.75L453.987 513.28ZM453.988 513.279L453.792 511.792L453.743 511.799L453.694 511.809L453.988 513.279ZM482.979 512.246L482.869 513.742L482.924 513.746H482.979V512.246ZM482.979 512.246L483.104 510.751L483.042 510.746H482.979V512.246ZM482.981 512.246L482.857 513.741L482.864 513.742L482.872 513.742L482.981 512.246ZM508.135 510.506L507.661 509.083L507.661 509.083L508.135 510.506ZM511.927 508.445L511.133 507.172L511.133 507.172L511.927 508.445ZM522.85 507.044L524.086 506.194L524.086 506.194L522.85 507.044ZM533.01 511.615L533.42 510.172L533.42 510.172L533.01 511.615ZM538.084 513.276L538.724 511.92L538.724 511.92L538.084 513.276ZM555.578 516.095L555.546 517.595L555.546 517.595L555.578 516.095ZM567.859 517.171L567.527 518.634L567.527 518.634L567.859 517.171ZM590.277 517.864L590.603 519.328L590.603 519.328L590.277 517.864ZM591.095 517.683L591.419 519.147L591.419 519.147L591.095 517.683ZM605.771 512.584L606.576 513.849L606.576 513.849L605.771 512.584ZM618.005 511.472L617.882 512.967L617.882 512.967L618.005 511.472ZM652.483 511.329L652.358 509.834L652.358 509.834L652.483 511.329ZM668.958 512.065L668.401 513.457L668.401 513.457L668.958 512.065ZM676.369 515.812L675.641 517.124L675.641 517.124L676.369 515.812ZM700 520L699.272 518.689L699.272 518.689L700 520ZM706.276 517.581L706.74 519.007L706.751 519.004L706.276 517.581ZM706.277 517.581L705.813 516.154L705.802 516.158L706.277 517.581ZM712.582 515.181L711.884 513.853L711.884 513.853L712.582 515.181ZM741.946 510.269L741.905 511.769L741.905 511.769L741.946 510.269ZM764.69 507.39L764.019 506.049L764.019 506.049L764.69 507.39ZM770.539 506.772L770.594 505.273L770.594 505.273L770.539 506.772ZM774.211 506.698L774.448 508.179L774.448 508.179L774.211 506.698ZM778.814 505.418L778.33 503.998L778.33 503.998L778.814 505.418ZM784.598 504.015L784.504 502.518L784.504 502.518L784.598 504.015ZM804.122 503.829L804.17 502.329L804.158 502.329L804.147 502.329L804.122 503.829ZM804.127 503.829L804.079 505.328L804.091 505.328L804.102 505.329L804.127 503.829ZM827.892 500.572L828.366 501.995L828.366 501.995L827.892 500.572ZM848.823 497.783L848.411 499.225L848.411 499.225L848.823 497.783ZM860.089 502.587L859.426 503.933L859.426 503.933L860.089 502.587ZM876.521 508.602L876.681 507.111L876.681 507.111L876.521 508.602ZM898.853 514.142L898.362 515.559L898.362 515.559L898.853 514.142ZM923.28 516.472L923.311 517.972L923.311 517.972L923.28 516.472ZM947.705 515.608L947.801 517.105L947.812 517.104L947.705 515.608ZM947.708 515.608L947.815 517.104L947.829 517.103L947.844 517.102L947.708 515.608ZM947.71 515.608L947.615 514.111L947.594 514.112L947.574 514.114L947.71 515.608ZM972.829 514.884L972.813 516.384L972.821 516.384H972.829V514.884ZM972.836 514.884L972.852 513.384L972.844 513.384H972.836V514.884ZM1017.09 508.602L1016.44 507.248L1016.44 507.248L1017.09 508.602ZM1052.75 508.083L1053.25 506.668L1053.25 506.668L1052.75 508.083ZM1090.93 511.857L1090.97 513.357L1090.97 513.357L1090.93 511.857ZM1109.79 515.613L1108.83 516.766L1108.83 516.766L1109.79 515.613ZM1121.77 516.627L1121.9 518.122L1121.9 518.122L1121.77 516.627ZM1129.85 516.503L1129.9 515.004L1129.9 515.004L1129.85 516.503ZM1139.48 516.306L1139.69 517.791L1139.69 517.791L1139.48 516.306ZM1144.55 514.837L1145.07 516.243L1145.07 516.243L1144.55 514.837ZM1173.83 517.902L1173.38 519.333L1173.38 519.334L1173.83 517.902ZM1173.84 517.906L1174.29 516.474L1174.28 516.474L1173.84 517.906ZM1179.06 519.508L1179.48 518.07L1179.48 518.07L1179.06 519.508ZM1188.28 521.779L1188.01 523.255L1189.78 523.577V521.779H1188.28ZM1184.61 481.934L1184.42 483.423L1184.42 483.423L1184.61 481.934ZM1181.09 475.508L1180.76 474.044L1180.76 474.044L1181.09 475.508ZM1184.18 472.74L1185.47 473.509L1185.47 473.509L1184.18 472.74ZM1186.39 470.206L1187.13 471.509L1187.13 471.509L1186.39 470.206ZM1185.6 453.307L1184.22 453.887L1184.22 453.887L1185.6 453.307ZM1184.98 438.657L1186.33 439.307L1186.33 439.307L1184.98 438.657ZM1186.32 421.319L1187.81 421.176L1187.81 421.176L1186.32 421.319ZM1186.32 400.186L1187.82 400.326L1187.82 400.326L1186.32 400.186ZM1185.42 363.63L1184.18 364.478L1184.18 364.478L1185.42 363.63ZM1183.7 360.246L1185.15 359.845L1185.15 359.845L1183.7 360.246ZM1183.02 351.468L1181.52 351.441L1181.52 351.441L1183.02 351.468ZM1185.04 339.233L1186.47 339.675L1186.47 339.675L1185.04 339.233ZM1187.08 323.369L1188.58 323.408L1188.58 323.408L1187.08 323.369ZM1185.59 302.288L1184.15 302.7L1184.15 302.701L1185.59 302.288ZM1172.72 284.795L1172 283.481L1171.98 283.49L1171.97 283.499L1172.72 284.795ZM1172.72 284.794L1173.45 286.109L1173.46 286.1L1173.48 286.091L1172.72 284.794ZM1176.37 282.606L1177.18 283.868L1177.18 283.868L1176.37 282.606ZM1186.32 251.821L1187.82 251.928L1187.82 251.928L1186.32 251.821ZM1187.09 235.548L1188.59 235.654L1188.59 235.654L1187.09 235.548ZM1185.66 227.045L1184.57 228.075L1184.57 228.075L1185.66 227.045ZM1182.96 215.916L1184.46 215.856L1184.46 215.856L1182.96 215.916ZM1185.95 202.496L1184.84 201.487L1184.84 201.487L1185.95 202.496ZM1182.64 197.454L1183.05 196.011L1183.05 196.011L1182.64 197.454ZM1185.27 178.548L1184.08 177.636L1184.08 177.637L1185.27 178.548ZM1188.28 174.462L1187.04 173.619L1187.04 173.619L1188.28 174.462ZM1186.79 159.361L1185.4 159.908L1185.4 159.909L1186.79 159.361ZM1185.95 157.176L1184.54 157.688L1184.54 157.689L1185.95 157.176ZM1185.61 143.087L1187.11 143.248L1187.11 143.248L1185.61 143.087ZM1182.47 123.767L1181.41 124.827L1181.41 124.827L1182.47 123.767ZM1181.05 102.546L1179.65 102.004L1179.65 102.004L1181.05 102.546ZM1182.76 97.9107L1181.34 97.4363L1181.34 97.4364L1182.76 97.9107ZM1183.89 88.7932L1182.39 88.7481L1182.39 88.7481L1183.89 88.7932ZM1186.97 76.122L1185.8 75.185L1185.8 75.185L1186.97 76.122ZM1184.65 50.5566L1186 49.9145L1186 49.9144L1184.65 50.5566ZM1183.84 44.8153L1182.34 44.8336L1182.34 44.8336L1183.84 44.8153ZM1183.34 39.8076L1184.77 39.3664L1184.77 39.3664L1183.34 39.8076ZM1182.9 30.6874L1184.4 30.7773L1184.4 30.7772L1182.9 30.6874ZM1185.57 18.2085L1186.93 18.8281L1186.93 18.8281L1185.57 18.2085ZM1188.19 4.58691L1189.69 4.53183L1189.68 4.51165L1189.68 4.49149L1188.19 4.58691ZM1188.19 4.58117L1186.69 4.63685L1186.69 4.65674L1186.69 4.67659L1188.19 4.58117ZM1188.18 4.53188L1186.69 4.58707L1186.69 4.58756L1188.18 4.53188ZM1188.14 3.24596L1189.64 3.19971L1189.58 1.45457L1187.87 1.77076L1188.14 3.24596ZM1179.06 5.49159L1178.63 4.05289L1178.63 4.05289L1179.06 5.49159ZM1173.83 7.09802L1173.38 5.66659L1173.38 5.66659L1173.83 7.09802ZM1144.55 10.1634L1145.07 8.75699L1145.07 8.75698L1144.55 10.1634ZM1139.48 8.6942L1139.69 7.20927L1139.69 7.20927L1139.48 8.6942ZM1129.85 8.49738L1129.79 6.99843L1129.79 6.99843L1129.85 8.49738ZM1121.77 8.37289L1121.64 9.8674L1121.64 9.8674L1121.77 8.37289ZM1109.79 9.38665L1110.75 10.539L1110.75 10.539L1109.79 9.38665ZM1090.93 13.1429L1090.97 11.6433L1090.97 11.6433L1090.93 13.1429ZM1052.75 16.9171L1052.25 15.5026L1052.25 15.5026L1052.75 16.9171ZM1017.09 16.3978L1017.73 15.0435L1017.73 15.0435L1017.09 16.3978ZM972.837 10.1164L972.852 11.6163L972.853 11.6163L972.837 10.1164ZM972.836 10.1164L972.82 8.61648L972.82 8.61649L972.836 10.1164ZM947.708 9.39195L947.613 10.8889L947.613 10.8889L947.708 9.39195ZM923.281 8.52801L923.311 7.02831L923.311 7.02831L923.281 8.52801ZM898.853 10.8581L898.362 9.44064L898.362 9.44064L898.853 10.8581ZM876.521 16.3978L876.361 14.9063L876.521 16.3978ZM860.089 22.4129L859.426 21.0673L859.426 21.0673L860.089 22.4129ZM848.823 27.2174L848.411 25.7751L848.411 25.7751L848.823 27.2174ZM827.892 24.4279L828.366 23.0047L828.366 23.0047L827.892 24.4279ZM804.123 21.1713L804.098 19.6715L804.096 19.6716L804.123 21.1713ZM804.122 21.1713L804.147 22.6711L804.148 22.6711L804.122 21.1713ZM784.598 20.9853L784.504 22.4824L784.504 22.4824L784.598 20.9853ZM778.814 19.5821L778.33 21.0017L778.33 21.0017L778.814 19.5821ZM774.211 18.302L774.448 16.8208L774.448 16.8208L774.211 18.302ZM770.539 18.2279L770.484 16.729L770.484 16.729L770.539 18.2279ZM764.69 17.6096L764.019 18.9512L764.019 18.9512L764.69 17.6096ZM741.946 14.7306L741.905 13.2312L741.905 13.2312L741.946 14.7306ZM712.582 9.81944L711.884 11.1468L711.884 11.1468L712.582 9.81944ZM707.652 6.69099L706.791 7.91913L706.791 7.91913L707.652 6.69099ZM703.5 4L702.772 5.31124L702.772 5.31124L703.5 4ZM676.326 9.34651L675.63 8.01789L675.612 8.02719L675.595 8.03697L676.326 9.34651ZM676.325 9.34692L677.022 10.6756L677.039 10.6662L677.057 10.6565L676.325 9.34692ZM668.958 12.9355L668.401 11.5428L668.401 11.5428L668.958 12.9355ZM652.483 13.6712L652.608 12.1765L652.608 12.1765L652.483 13.6712ZM618.005 13.5284L618.128 15.0233L618.128 15.0233L618.005 13.5284ZM605.771 12.4161L604.966 13.6816L604.966 13.6816L605.771 12.4161ZM591.096 7.31739L591.419 5.85278L591.418 5.85236L591.096 7.31739ZM591.087 7.31558L590.763 8.7802L590.765 8.78061L591.087 7.31558ZM590.277 7.13617L590.603 5.67189L590.603 5.67189L590.277 7.13617ZM567.859 7.82863L567.527 6.36593L567.527 6.36593L567.859 7.82863ZM555.579 8.90469L555.546 7.40504L555.546 7.40504L555.579 8.90469ZM538.084 11.7237L537.443 10.3673L537.443 10.3673L538.084 11.7237ZM533.01 13.385L532.6 11.942L532.6 11.942L533.01 13.385ZM522.85 17.9558L521.614 17.106L521.614 17.106L522.85 17.9558ZM511.926 16.555L511.068 17.785L511.1 17.8073L511.133 17.8279L511.926 16.555ZM511.926 16.5548L512.785 15.3247L512.753 15.3024L512.72 15.2818L511.926 16.5548ZM508.135 14.4935L508.609 13.0705L508.609 13.0705L508.135 14.4935ZM482.981 12.7539L482.872 11.2579L482.872 11.2579L482.981 12.7539ZM453.988 11.7205L453.792 13.2077L453.792 13.2077L453.988 11.7205ZM409.064 10.9439L409.128 12.4425L409.128 12.4425L409.064 10.9439ZM341.804 10.1486L341.892 8.65113L341.882 8.65063L341.804 10.1486ZM341.804 10.1486L341.716 11.6461L341.726 11.6466L341.804 10.1486ZM244.866 7.07663L245.283 5.63593L245.283 5.63593L244.866 7.07663ZM230.806 5.33585L230.739 6.83435L230.739 6.83435L230.806 5.33585ZM217.996 5.83782L217.662 4.37553L217.662 4.37553L217.996 5.83782ZM154.626 10.191L154.633 8.69097L154.632 8.69096L154.626 10.191ZM154.625 10.1909L154.618 11.6909L154.619 11.6909L154.625 10.1909ZM140.781 10.3375L140.853 11.8357L140.853 11.8357L140.781 10.3375ZM129.189 10.0791L128.921 11.5549L128.921 11.5549L129.189 10.0791ZM123.379 8.70489L123.765 7.25538L123.754 7.25244L123.743 7.24967L123.379 8.70489ZM123.379 8.70487L122.993 10.1544L123.004 10.1573L123.015 10.1601L123.379 8.70487ZM109.714 7.13617L109.528 5.64776L109.528 5.64776L109.714 7.13617ZM98.7083 8.62478L98.4996 7.13936L98.4973 7.13969L98.7083 8.62478ZM98.708 8.62482L98.9167 10.1102L98.919 10.1099L98.708 8.62482ZM25.5548 10.2347L24.7537 11.5028L24.7537 11.5028L25.5548 10.2347ZM21.5121 8.60764L21.424 10.1051L21.424 10.1051L21.5121 8.60764ZM18.9967 8.63205L18.9322 7.13344L18.9322 7.13344L18.9967 8.63205ZM2.474 2V0.5H0.973999V2H2.474ZM1202.47 2H1203.97V0.5H1202.47V2ZM2.474 522H0.973999V523.5H2.474V522ZM1202.47 522V523.5H1203.97V522H1202.47ZM9.39072 8.83873C11.1654 9.22797 13.0168 9.63418 15.0117 9.99689L15.5483 7.04528C13.6145 6.69367 11.8139 6.2989 10.0334 5.90839L9.39072 8.83873ZM4.73816 7.86961C6.28122 8.15685 7.80317 8.49053 9.39072 8.83873L10.0334 5.90839C8.45363 5.56188 6.88506 5.21772 5.28718 4.92027L4.73816 7.86961ZM9.07058 14.745C7.8165 11.9797 6.67062 9.41846 6.51068 6.31767L3.51466 6.47221C3.70786 10.2179 5.10678 13.2682 6.3384 15.9841L9.07058 14.745ZM11.7212 24.1809C11.7212 20.5417 10.3268 17.5151 9.07058 14.745L6.3384 15.9841C7.62992 18.832 8.72117 21.2866 8.72117 24.1809H11.7212ZM11.8697 27.7534C11.7923 26.4657 11.7212 25.2723 11.7212 24.1809H8.72117C8.72117 25.3792 8.79901 26.6667 8.87509 27.9333L11.8697 27.7534ZM11.3643 37.4047C12.2882 34.402 12.0516 30.7814 11.8697 27.7534L8.87509 27.9333C9.06638 31.1181 9.2289 34.1437 8.49699 36.5224L11.3643 37.4047ZM10.9285 41.9896C10.9507 40.1786 10.9812 38.6497 11.3643 37.4047L8.49699 36.5224C7.96193 38.2614 7.94948 40.2564 7.92876 41.953L10.9285 41.9896ZM9.97894 48.3548C10.9026 46.4048 10.9044 43.9686 10.9285 41.9896L7.92876 41.953C7.90214 44.1336 7.85338 45.8341 7.26773 47.0705L9.97894 48.3548ZM7.47052 72.341C5.28966 69.6149 5.04881 65.3083 5.90938 60.5755C6.75442 55.9282 8.5842 51.2992 9.97894 48.3548L7.26773 47.0705C5.80905 50.1499 3.86655 55.0409 2.95777 60.0388C2.06451 64.9514 2.08831 70.4156 5.12791 74.2151L7.47052 72.341ZM10.8785 85.9042C10.7439 81.4244 10.643 76.3065 7.47052 72.341L5.12791 74.2151C7.56473 77.2611 7.73831 81.2827 7.87984 85.9942L10.8785 85.9042ZM11.9347 94.5923C11.0733 92.008 10.9742 89.089 10.8785 85.9042L7.87984 85.9942C7.97264 89.0838 8.06273 92.4632 9.08866 95.541L11.9347 94.5923ZM13.6225 99.1599C13.0294 97.6307 12.4441 96.1206 11.9347 94.5923L9.08866 95.541C9.62474 97.1492 10.2367 98.7265 10.8254 100.245L13.6225 99.1599ZM11.8629 121.983C15.6324 118.214 16.8665 114.343 16.6906 110.4C16.5208 106.592 15.0286 102.786 13.6225 99.1599L10.8254 100.245C12.2759 103.985 13.5499 107.311 13.6936 110.534C13.8313 113.621 12.9261 116.677 9.74154 119.862L11.8629 121.983ZM9.14699 140.081C8.75372 136.439 8.38168 132.942 8.6601 129.779C8.93551 126.649 9.83631 124.01 11.8629 121.983L9.74154 119.862C7.04571 122.558 5.98369 125.97 5.67165 129.516C5.36262 133.027 5.7785 136.829 6.16432 140.403L9.14699 140.081ZM8.72571 154.844C9.53001 152.633 9.7571 150.186 9.73075 147.709C9.7044 145.233 9.42127 142.622 9.14699 140.081L6.16432 140.403C6.442 142.976 6.7064 145.437 6.73092 147.741C6.75542 150.044 6.53672 152.086 5.90633 153.819L8.72571 154.844ZM7.87473 157.064C8.17654 156.295 8.47162 155.543 8.72571 154.844L5.90633 153.819C5.66757 154.476 5.38714 155.191 5.08195 155.969L7.87473 157.064ZM6.2331 170.775C5.15177 169.182 4.99801 167.066 5.46009 164.558C5.9206 162.059 6.93677 159.455 7.87473 157.064L5.08195 155.969C4.16478 158.307 3.03169 161.182 2.50975 164.015C1.98937 166.839 2.01995 169.909 3.75068 172.46L6.2331 170.775ZM9.19307 174.793C8.13074 173.404 7.12038 172.083 6.2331 170.775L3.75068 172.46C4.69449 173.851 5.75881 175.241 6.81046 176.616L9.19307 174.793ZM16.9505 191.518C16.9505 184.843 12.7313 179.417 9.19307 174.793L6.81046 176.616C10.4917 181.427 13.9505 186.036 13.9505 191.518H16.9505ZM11.0422 196.052C12.1871 195.725 13.5569 195.341 14.6281 194.782C15.6761 194.235 16.9505 193.245 16.9505 191.518H13.9505C13.9505 191.554 13.95 191.586 13.8826 191.666C13.7911 191.775 13.6002 191.935 13.24 192.123C12.4969 192.51 11.4568 192.814 10.2189 193.167L11.0422 196.052ZM8.42593 198.643C7.76155 197.912 7.63957 197.523 7.62449 197.414C7.6206 197.386 7.62641 197.405 7.61431 197.434C7.60636 197.454 7.6117 197.425 7.68904 197.353C7.87148 197.184 8.24172 196.969 8.88385 196.727C9.50506 196.492 10.2312 196.284 11.0422 196.052L10.2189 193.167C9.43774 193.39 8.58386 193.633 7.82303 193.921C7.08311 194.2 6.26931 194.579 5.65154 195.151C4.96817 195.783 4.49583 196.691 4.65278 197.825C4.791 198.825 5.39199 199.766 6.20611 200.661L8.42593 198.643ZM11.8082 213.132C11.9949 208.465 12.2885 202.892 8.42593 198.643L6.20611 200.661C9.10634 203.852 9.00787 208.081 8.8106 213.012L11.8082 213.132ZM11.7212 216.357C11.7212 215.313 11.7638 214.243 11.8082 213.132L8.8106 213.012C8.7666 214.112 8.72117 215.243 8.72117 216.357H11.7212ZM8.69705 225.231C10.0773 223.769 10.8988 222.509 11.3204 221.028C11.721 219.62 11.7212 218.116 11.7212 216.357H8.72117C8.72117 218.221 8.69912 219.278 8.43495 220.207C8.19177 221.061 7.70594 221.911 6.51602 223.171L8.69705 225.231ZM7.67392 232.599C7.56647 231.076 7.46468 229.58 7.59771 228.227C7.73093 226.871 8.08221 225.882 8.69705 225.231L6.51601 223.171C5.24289 224.519 4.77413 226.285 4.6121 227.933C4.44986 229.584 4.57761 231.34 4.68136 232.81L7.67392 232.599ZM7.79921 235.168C7.79921 234.364 7.73529 233.468 7.67392 232.599L4.68136 232.81C4.74477 233.708 4.79921 234.49 4.79921 235.168H7.79921ZM8.44689 248.871C8.12019 244.27 7.79921 239.74 7.79921 235.168H4.79921C4.79921 239.864 5.12894 244.499 5.45442 249.084L8.44689 248.871ZM8.44549 248.853L8.44548 248.853L5.45584 249.102L5.45585 249.102L8.44549 248.853ZM9.10653 262.912C9.10653 258.153 8.77388 253.476 8.4469 248.871L5.45443 249.084C5.78259 253.706 6.10653 258.277 6.10653 262.912H9.10653ZM17.7142 278.5C14.4823 276.423 12.3705 274.337 11.0453 271.933C9.72134 269.53 9.10653 266.67 9.10653 262.912H6.10653C6.10653 266.998 6.77574 270.401 8.41787 273.38C10.0589 276.358 12.5953 278.776 16.0919 281.024L17.7142 278.5ZM21.3012 280.655C20.0506 279.927 18.8106 279.205 17.7142 278.5L16.0919 281.024C17.2548 281.771 18.5551 282.528 19.7926 283.248L21.3012 280.655ZM21.2657 280.634L21.2652 280.634L19.8286 283.268L19.8291 283.268L21.2657 280.634ZM20.0261 289.76C22.8725 289.76 24.8925 289.579 26.1647 289.167C26.7784 288.968 27.5026 288.628 27.941 287.959C28.472 287.149 28.3293 286.289 28.0266 285.68C27.7536 285.131 27.3049 284.661 26.877 284.281C26.4275 283.882 25.8853 283.483 25.3057 283.092C24.1495 282.311 22.7119 281.475 21.3017 280.655L19.7931 283.248C21.2301 284.084 22.5714 284.865 23.6269 285.578C24.1531 285.933 24.575 286.249 24.8854 286.525C25.0393 286.662 25.1521 286.776 25.2313 286.869C25.2703 286.914 25.2975 286.95 25.3159 286.977C25.3344 287.004 25.3408 287.017 25.3404 287.016C25.327 286.989 25.2069 286.658 25.4316 286.315C25.5638 286.113 25.6527 286.179 25.24 286.313C24.4594 286.566 22.8615 286.76 20.0261 286.76V289.76ZM9.12145 299.857C9.75527 297.638 11.2584 295.062 13.2793 293.053C15.3095 291.035 17.6832 289.76 20.0261 289.76V286.76C16.6007 286.76 13.5107 288.593 11.1643 290.925C8.8086 293.267 7.02239 296.283 6.23688 299.032L9.12145 299.857ZM7.68999 320.486C7.50293 313.336 7.32732 306.136 9.12145 299.857L6.23687 299.032C4.29289 305.836 4.50676 313.522 4.69101 320.564L7.68999 320.486ZM7.79921 326.68C7.79921 324.657 7.74464 322.575 7.68999 320.486L4.69101 320.564C4.74586 322.661 4.79921 324.703 4.79921 326.68H7.79921ZM9.66877 335.947C8.68713 332.766 7.79921 329.854 7.79921 326.68H4.79921C4.79921 330.377 5.83948 333.712 6.8022 336.831L9.66877 335.947ZM11.7212 346.435C11.7212 342.563 10.6491 339.123 9.66877 335.947L6.8022 336.831C7.79918 340.062 8.72117 343.083 8.72117 346.435H11.7212ZM11.7469 348.597C11.7339 347.861 11.7212 347.144 11.7212 346.435H8.72117C8.72117 347.175 8.73441 347.919 8.74739 348.65L11.7469 348.597ZM11.7468 348.592L11.7468 348.592L8.74748 348.654L8.74748 348.655L11.7468 348.592ZM11.7472 348.624V348.623H8.74716V348.624H11.7472ZM11.7472 348.624V348.624H8.74716V348.624H11.7472ZM11.0128 357.804C11.8664 354.731 11.7985 351.507 11.7469 348.597L8.74739 348.651C8.80048 351.642 8.83912 354.42 8.12224 357.001L11.0128 357.804ZM9.08978 361.634C9.72415 360.708 10.5289 359.546 11.0128 357.804L8.12224 357.001C7.78337 358.221 7.23966 359.027 6.61492 359.938L9.08978 361.634ZM7.79921 364.956C7.79921 363.547 8.29158 362.799 9.08977 361.634L6.61493 359.938C5.78531 361.149 4.79921 362.559 4.79921 364.956H7.79921ZM7.79921 386.962V364.956H4.79921V386.962H7.79921ZM8.43933 397.202C8.11377 393.723 7.79921 390.349 7.79921 386.962H4.79921C4.79921 390.512 5.12899 394.025 5.45237 397.482L8.43933 397.202ZM9.10653 408.025C9.10653 404.323 8.76749 400.71 8.43933 397.202L5.45237 397.482C5.78253 401.011 6.10653 404.485 6.10653 408.025H9.10653ZM8.44304 418.618C8.76992 415.199 9.10653 411.69 9.10653 408.025H6.10653C6.10653 411.525 5.78544 414.894 5.45666 418.332L8.44304 418.618ZM7.79921 428.797C7.79921 425.362 8.11623 422.036 8.44304 418.618L5.45666 418.332C5.13183 421.729 4.79921 425.197 4.79921 428.797H7.79921ZM9.64353 435.164C8.64966 433.095 7.79921 431.288 7.79921 428.797H4.79921C4.79921 432.043 5.95156 434.406 6.93926 436.463L9.64353 435.164ZM11.7212 442.523C11.7212 439.451 10.6071 437.17 9.64353 435.164L6.93926 436.463C7.91563 438.496 8.72117 440.212 8.72117 442.523H11.7212ZM9.05121 451.043C9.71564 449.462 10.3742 447.895 10.8636 446.488C11.3426 445.111 11.7212 443.722 11.7212 442.523H8.72117C8.72117 443.186 8.49285 444.172 8.03016 445.503C7.57796 446.803 6.96003 448.275 6.2853 449.882L9.05121 451.043ZM7.62445 466.06C6.69299 465.528 6.17862 464.821 5.91271 463.954C5.63157 463.038 5.60997 461.871 5.83909 460.461C6.30198 457.611 7.6874 454.29 9.05121 451.043L6.2853 449.882C4.96286 453.03 3.40973 456.705 2.8779 459.98C2.60966 461.631 2.57666 463.309 3.0446 464.834C3.52776 466.409 4.52295 467.743 6.13603 468.665L7.62445 466.06ZM10.3796 469.126C9.83617 468.217 9.07586 466.889 7.62447 466.06L6.13601 468.665C6.80369 469.046 7.20606 469.664 7.80455 470.665L10.3796 469.126ZM12.5075 471.2C11.5564 470.989 11.1363 470.392 10.3796 469.126L7.80457 470.665C8.50003 471.829 9.49848 473.605 11.8568 474.129L12.5075 471.2ZM12.1993 479.744C12.9826 479.352 13.7985 478.83 14.5002 478.232C15.1798 477.653 15.8645 476.908 16.2328 476.043C16.6354 475.098 16.6733 473.922 15.8379 472.907C15.1172 472.031 13.9263 471.515 12.5075 471.2L11.8568 474.129C13.0611 474.396 13.4435 474.718 13.5213 474.813C13.5374 474.832 13.5149 474.807 13.5107 474.759C13.5079 474.727 13.5201 474.756 13.4728 474.867C13.3653 475.12 13.0746 475.505 12.5544 475.948C12.0563 476.373 11.4479 476.765 10.8577 477.06L12.1993 479.744ZM8.84678 480.579C9.75735 480.468 11.0355 480.326 12.1993 479.744L10.8577 477.06C10.2348 477.372 9.48636 477.478 8.4818 477.601L8.84678 480.579ZM6.49189 482.397C6.49189 481.299 6.79505 481.097 6.9155 481.018C7.23843 480.808 7.76398 480.712 8.84678 480.579L8.4818 477.601C7.61257 477.708 6.30192 477.837 5.27666 478.506C4.04892 479.306 3.49189 480.638 3.49189 482.397H6.49189ZM6.49189 491.475V482.397H3.49189V491.475H6.49189ZM6.49189 518.609V491.475H3.49189V518.609H6.49189ZM9.39068 516.161C7.79617 516.511 6.26776 516.846 4.71779 517.134L5.26599 520.084C6.87122 519.785 8.4466 519.44 10.0334 519.092L9.39068 516.161ZM9.7122 516.127H9.71203V519.127H9.7122V516.127ZM15.0116 515.003C13.0168 515.366 11.1654 515.772 9.39082 516.161L10.0336 519.092C11.814 518.701 13.6145 518.306 15.5483 517.955L15.0116 515.003ZM19.0605 514.869C17.8402 514.817 16.4102 514.749 15.0116 515.003L15.5483 517.955C16.5593 517.771 17.6467 517.811 18.9316 517.867L19.0605 514.869ZM18.9966 514.868H18.9961V517.868H18.9966V514.868ZM21.4239 514.895C20.6902 514.938 19.923 514.906 19.0612 514.869L18.9321 517.867C19.7653 517.902 20.6874 517.943 21.6002 517.89L21.4239 514.895ZM24.7537 513.497C23.5246 514.274 22.6032 514.826 21.424 514.895L21.6001 517.89C23.6572 517.769 25.1968 516.766 26.356 516.033L24.7537 513.497ZM29.3887 511.776C27.4113 511.776 25.893 512.777 24.7537 513.497L26.356 516.033C27.6101 515.241 28.4121 514.776 29.3887 514.776V511.776ZM65.1367 511.776H29.3887V514.776H65.1367V511.776ZM98.9162 514.89C87.8289 513.332 76.7671 511.776 65.1367 511.776V514.776C76.5244 514.776 87.382 516.299 98.4989 517.86L98.9162 514.89ZM99.0338 514.911L99.033 514.911L98.3822 517.839L98.383 517.84L99.0338 514.911ZM109.9 516.375C106.213 515.915 102.564 515.402 98.917 514.89L98.4997 517.861C102.143 518.372 105.814 518.888 109.528 519.352L109.9 516.375ZM122.993 514.846C118.715 515.985 114.869 516.997 109.9 516.375L109.528 519.352C115.138 520.054 119.498 518.881 123.765 517.745L122.993 514.846ZM128.921 513.445C126.808 513.829 124.853 514.351 122.993 514.846L123.765 517.745C125.639 517.246 127.481 516.756 129.457 516.397L128.921 513.445ZM140.853 513.164C136.979 512.977 132.678 512.762 128.921 513.445L129.457 516.397C132.811 515.787 136.746 515.969 140.709 516.161L140.853 513.164ZM140.782 513.163H140.781V516.163H140.782V513.163ZM140.783 513.163H140.782V516.163H140.783V513.163ZM145.981 513.334C144.383 513.334 142.663 513.252 140.856 513.164L140.711 516.161C142.502 516.247 144.297 516.334 145.981 516.334V513.334ZM154.612 513.309C151.699 513.322 148.82 513.334 145.981 513.334V516.334C148.827 516.334 151.713 516.322 154.625 516.309L154.612 513.309ZM154.623 513.309H154.618V516.309H154.623V513.309ZM154.627 513.309H154.623V516.309H154.627V513.309ZM218.33 517.7C198.257 513.112 175.567 513.218 154.62 513.309L154.633 516.309C175.66 516.217 197.987 516.127 217.662 520.624L218.33 517.7ZM230.739 518.166C226.366 518.361 222.027 518.545 218.33 517.7L217.662 520.624C221.831 521.577 226.602 521.354 230.873 521.163L230.739 518.166ZM230.807 518.164H230.806V521.164H230.807V518.164ZM230.809 518.164H230.807V521.164H230.809V518.164ZM235.914 518.008C234.25 518.008 232.494 518.087 230.742 518.166L230.876 521.163C232.643 521.084 234.329 521.008 235.914 521.008V518.008ZM244.448 516.483C241.725 517.272 239.161 518.008 235.914 518.008V521.008C239.634 521.008 242.57 520.151 245.283 519.364L244.448 516.483ZM253.398 514.892C249.909 514.892 247.095 515.715 244.448 516.483L245.283 519.364C247.949 518.591 250.386 517.892 253.398 517.892V514.892ZM302.822 514.892H253.398V517.892H302.822V514.892ZM341.714 513.354C328.473 514.128 315.381 514.892 302.822 514.892V517.892C315.484 517.892 328.665 517.122 341.889 516.349L341.714 513.354ZM341.704 513.355L341.702 513.355L341.901 516.348L341.904 516.348L341.704 513.355ZM381.935 511.776C368.707 511.776 355.136 512.57 341.717 513.354L341.892 516.349C355.328 515.564 368.81 514.776 381.935 514.776V511.776ZM409.128 512.557C400.108 512.168 391.043 511.776 381.935 511.776V514.776C390.968 514.776 399.968 515.165 408.999 515.555L409.128 512.557ZM436.12 513.334C427.123 513.334 418.148 512.947 409.128 512.557L408.999 515.555C418.008 515.944 427.048 516.334 436.12 516.334V513.334ZM453.792 511.792C447.868 512.572 442.065 513.334 436.12 513.334V516.334C442.293 516.334 448.29 515.543 454.183 514.767L453.792 511.792ZM453.694 511.809L453.693 511.809L454.282 514.75L454.282 514.75L453.694 511.809ZM471.954 510.218C465.731 510.218 459.702 511.014 453.792 511.792L454.184 514.767C460.123 513.985 465.959 513.218 471.954 513.218V510.218ZM483.088 510.75C479.523 510.489 475.826 510.218 471.954 510.218V513.218C475.7 513.218 479.29 513.48 482.869 513.742L483.088 510.75ZM482.979 510.746H482.979V513.746H482.979V510.746ZM483.106 510.751L483.104 510.751L482.855 513.741L482.857 513.741L483.106 510.751ZM507.661 509.083C499.177 511.911 491.484 511.364 483.091 510.75L482.872 513.742C491.216 514.352 499.482 514.972 508.609 511.929L507.661 509.083ZM511.133 507.172C509.632 508.108 508.493 508.806 507.661 509.083L508.609 511.93C509.86 511.513 511.351 510.571 512.72 509.718L511.133 507.172ZM524.086 506.194C523.255 504.986 522.195 504.219 520.961 503.888C519.765 503.567 518.545 503.693 517.423 504.001C515.232 504.602 512.954 506.037 511.133 507.172L512.72 509.718C514.652 508.514 516.534 507.355 518.216 506.894C519.03 506.671 519.675 506.649 520.184 506.786C520.656 506.912 521.143 507.21 521.614 507.894L524.086 506.194ZM533.42 510.172C531.393 509.597 529.29 508.998 527.517 508.293C526.634 507.942 525.874 507.581 525.27 507.207C524.655 506.826 524.282 506.48 524.086 506.194L521.614 507.894C522.137 508.656 522.892 509.263 523.689 509.757C524.498 510.258 525.434 510.694 526.409 511.081C528.351 511.853 530.609 512.493 532.6 513.058L533.42 510.172ZM538.724 511.92C537.413 511.301 535.403 510.735 533.42 510.172L532.6 513.058C534.696 513.653 536.412 514.146 537.443 514.633L538.724 511.92ZM555.611 514.596C549.519 514.464 543.802 514.318 538.724 511.92L537.443 514.633C543.196 517.35 549.578 517.466 555.546 517.595L555.611 514.596ZM568.192 515.709C564.078 514.774 559.757 514.686 555.611 514.596L555.546 517.595C559.751 517.686 563.761 517.778 567.527 518.634L568.192 515.709ZM589.952 516.4C587.056 517.043 583.073 517.209 579.028 517.034C574.998 516.86 571.027 516.353 568.192 515.709L567.527 518.634C570.576 519.327 574.732 519.851 578.898 520.032C583.05 520.211 587.334 520.055 590.603 519.328L589.952 516.4ZM590.772 516.218C590.498 516.278 590.225 516.339 589.952 516.4L590.603 519.328C590.874 519.268 591.146 519.208 591.419 519.147L590.772 516.218ZM604.966 511.318C600.762 513.993 595.858 515.093 590.771 516.218L591.419 519.147C596.415 518.043 601.853 516.855 606.576 513.849L604.966 511.318ZM618.128 509.977C616.011 509.802 613.596 509.601 611.332 509.693C609.093 509.784 606.779 510.165 604.966 511.318L606.576 513.849C607.713 513.126 609.381 512.775 611.453 512.691C613.501 512.608 615.727 512.789 617.882 512.967L618.128 509.977ZM622.217 510.218C621.073 510.218 619.693 510.106 618.128 509.977L617.882 512.967C619.408 513.092 620.924 513.218 622.217 513.218V510.218ZM645.934 510.218H622.217V513.218H645.934V510.218ZM652.358 509.834C649.946 510.036 647.761 510.218 645.934 510.218V513.218C647.912 513.218 650.235 513.022 652.608 512.823L652.358 509.834ZM669.515 510.672C667.07 509.694 664.147 509.388 661.216 509.362C658.271 509.337 655.176 509.598 652.358 509.834L652.608 512.823C655.453 512.585 658.408 512.338 661.191 512.362C663.987 512.386 666.47 512.685 668.401 513.457L669.515 510.672ZM677.097 514.501C674.552 513.088 671.983 511.659 669.515 510.672L668.401 513.457C670.659 514.361 673.054 515.687 675.641 517.124L677.097 514.501ZM699.272 518.689C695.683 520.682 692.062 520.7 688.355 519.684C684.588 518.651 680.852 516.585 677.097 514.501L675.641 517.124C679.326 519.17 683.384 521.431 687.562 522.577C691.802 523.739 696.276 523.785 700.728 521.311L699.272 518.689ZM705.812 516.154C703.531 516.896 701.069 517.69 699.272 518.689L700.728 521.311C702.216 520.485 704.36 519.781 706.74 519.007L705.812 516.154ZM705.802 516.158L705.802 516.158L706.751 519.004L706.751 519.004L705.802 516.158ZM711.884 513.853C710.282 514.696 708.122 515.403 705.813 516.154L706.741 519.007C708.972 518.282 711.405 517.495 713.281 516.508L711.884 513.853ZM735.953 508.66C727.397 508.66 719.557 509.815 711.884 513.853L713.281 516.508C720.371 512.776 727.677 511.66 735.953 511.66V508.66ZM741.987 508.77C739.985 508.715 737.96 508.66 735.953 508.66V511.66C737.912 511.66 739.896 511.714 741.905 511.769L741.987 508.77ZM764.019 506.049C757.784 509.166 750.138 508.992 741.987 508.77L741.905 511.769C749.863 511.985 758.327 512.249 765.36 508.732L764.019 506.049ZM770.594 505.273C769.56 505.235 768.406 505.191 767.309 505.265C766.216 505.338 765.051 505.532 764.019 506.049L765.36 508.732C765.88 508.472 766.59 508.319 767.509 508.258C768.423 508.197 769.417 508.232 770.484 508.271L770.594 505.273ZM773.974 505.217C773.088 505.359 771.964 505.323 770.594 505.273L770.484 508.271C771.763 508.318 773.211 508.377 774.448 508.179L773.974 505.217ZM778.33 503.998C776.815 504.515 775.433 504.983 773.974 505.217L774.448 508.179C776.2 507.899 777.821 507.342 779.299 506.837L778.33 503.998ZM784.504 502.518C782.225 502.66 780.175 503.369 778.33 503.998L779.299 506.837C781.199 506.189 782.876 505.625 784.691 505.512L784.504 502.518ZM804.147 502.329C797.636 502.221 791.029 502.11 784.504 502.518L784.691 505.512C791.077 505.113 797.565 505.22 804.097 505.328L804.147 502.329ZM804.176 502.33L804.17 502.329L804.073 505.328L804.079 505.328L804.176 502.33ZM813.075 502.428C810.12 502.428 807.146 502.379 804.152 502.329L804.102 505.329C807.092 505.378 810.091 505.428 813.075 505.428V502.428ZM827.418 499.149C822.283 500.859 817.522 502.428 813.075 502.428V505.428C818.102 505.428 823.352 503.665 828.366 501.995L827.418 499.149ZM849.235 496.34C841.951 494.259 834.327 496.849 827.418 499.149L828.366 501.995C835.501 499.62 842.184 497.446 848.411 499.225L849.235 496.34ZM860.752 501.241C856.915 499.352 852.991 497.414 849.235 496.34L848.411 499.225C851.857 500.209 855.525 502.011 859.426 503.933L860.752 501.241ZM876.681 507.111C871.604 506.567 866.265 503.957 860.752 501.241L859.426 503.933C864.807 506.583 870.651 509.482 876.361 510.094L876.681 507.111ZM899.343 512.724C891.5 510.009 885.196 508.023 876.681 507.111L876.361 510.094C884.528 510.969 890.571 512.862 898.362 515.559L899.343 512.724ZM923.25 514.972C914.966 515.14 906.755 515.29 899.343 512.724L898.362 515.559C906.368 518.331 915.136 518.137 923.311 517.972L923.25 514.972ZM929.148 514.892C927.199 514.892 925.223 514.932 923.25 514.972L923.311 517.972C925.289 517.932 927.234 517.892 929.148 517.892V514.892ZM947.61 514.111C941.451 514.503 935.319 514.892 929.148 514.892V517.892C935.43 517.892 941.657 517.496 947.801 517.105L947.61 514.111ZM947.601 514.112L947.598 514.112L947.812 517.104L947.815 517.104L947.601 514.112ZM947.574 514.114L947.572 514.114L947.844 517.102L947.846 517.102L947.574 514.114ZM965.934 513.334C959.819 513.334 953.703 513.724 947.615 514.111L947.805 517.105C953.909 516.717 959.931 516.334 965.934 516.334V513.334ZM972.845 513.384C970.539 513.359 968.231 513.334 965.934 513.334V516.334C968.212 516.334 970.504 516.359 972.813 516.384L972.845 513.384ZM972.833 513.384H972.829V516.384H972.833V513.384ZM972.836 513.384H972.833V516.384H972.836V513.384ZM1016.44 507.248C1002.94 513.68 987.959 513.545 972.852 513.384L972.82 516.384C987.799 516.543 1003.5 516.737 1017.73 509.957L1016.44 507.248ZM1053.25 506.668C1048.82 505.106 1041.66 504.306 1034.7 504.341C1027.77 504.376 1020.66 505.24 1016.44 507.248L1017.73 509.957C1021.32 508.25 1027.85 507.376 1034.71 507.341C1041.54 507.306 1048.3 508.104 1052.25 509.497L1053.25 506.668ZM1090.9 510.357C1077.89 510.64 1065.23 510.898 1053.25 506.668L1052.25 509.497C1064.84 513.939 1078.05 513.637 1090.97 513.357L1090.9 510.357ZM1100.53 510.218C1097.32 510.218 1094.1 510.288 1090.9 510.357L1090.97 513.357C1094.17 513.287 1097.36 513.218 1100.53 513.218V510.218ZM1110.75 514.461C1109.66 513.547 1107.8 512.506 1105.97 511.703C1104.17 510.916 1102.08 510.218 1100.53 510.218V513.218C1101.41 513.218 1103.01 513.683 1104.76 514.451C1106.48 515.203 1108.04 516.11 1108.83 516.766L1110.75 514.461ZM1121.64 515.133C1119.51 515.315 1117.16 515.515 1115.08 515.451C1114.04 515.419 1113.11 515.322 1112.35 515.143C1111.57 514.961 1111.06 514.717 1110.75 514.461L1108.83 516.766C1109.63 517.435 1110.65 517.826 1111.66 518.064C1112.69 518.305 1113.83 518.414 1114.98 518.449C1117.27 518.52 1119.8 518.301 1121.9 518.122L1121.64 515.133ZM1125.46 514.892C1124.43 514.892 1123.06 515.011 1121.64 515.133L1121.9 518.122C1123.37 517.995 1124.58 517.892 1125.46 517.892V514.892ZM1129.9 515.004C1128.42 514.948 1126.92 514.892 1125.46 514.892V517.892C1126.86 517.892 1128.3 517.946 1129.79 518.002L1129.9 515.004ZM1139.27 514.821C1136.34 515.239 1133.17 515.126 1129.9 515.004L1129.79 518.002C1133 518.121 1136.45 518.254 1139.69 517.791L1139.27 514.821ZM1144.03 513.43C1142.38 514.042 1140.89 514.59 1139.27 514.821L1139.69 517.791C1141.68 517.507 1143.46 516.839 1145.07 516.243L1144.03 513.43ZM1151.17 511.776C1148.45 511.776 1146.11 512.659 1144.03 513.43L1145.07 516.243C1147.21 515.448 1149.06 514.776 1151.17 514.776V511.776ZM1174.27 516.471C1166.9 514.161 1159.32 511.776 1151.17 511.776V514.776C1158.79 514.776 1165.93 517.002 1173.38 519.333L1174.27 516.471ZM1174.28 516.472L1174.27 516.47L1173.38 519.334L1173.38 519.336L1174.28 516.472ZM1174.28 516.474L1174.28 516.472L1173.38 519.336L1173.39 519.337L1174.28 516.474ZM1179.48 518.07C1177.75 517.558 1176.02 517.018 1174.29 516.474L1173.39 519.337C1175.12 519.88 1176.87 520.428 1178.63 520.947L1179.48 518.07ZM1188.55 520.304C1185.49 519.748 1182.49 518.956 1179.48 518.07L1178.63 520.947C1181.69 521.848 1184.81 522.673 1188.01 523.255L1188.55 520.304ZM1186.78 494.319V521.779H1189.78V494.319H1186.78ZM1186.78 485.241V494.319H1189.78V485.241H1186.78ZM1184.42 483.423C1185.51 483.556 1186.03 483.652 1186.35 483.862C1186.48 483.941 1186.78 484.143 1186.78 485.241H1189.78C1189.78 483.482 1189.22 482.15 1187.99 481.35C1186.97 480.681 1185.66 480.552 1184.79 480.445L1184.42 483.423ZM1181.07 482.588C1182.24 483.17 1183.51 483.312 1184.42 483.423L1184.79 480.445C1183.78 480.322 1183.04 480.216 1182.41 479.904L1181.07 482.588ZM1180.76 474.044C1179.34 474.359 1178.15 474.875 1177.43 475.751C1176.6 476.766 1176.64 477.942 1177.04 478.887C1177.41 479.752 1178.09 480.497 1178.77 481.076C1179.47 481.674 1180.29 482.196 1181.07 482.588L1182.41 479.904C1181.82 479.609 1181.21 479.217 1180.72 478.792C1180.2 478.349 1179.91 477.964 1179.8 477.711C1179.75 477.6 1179.76 477.571 1179.76 477.603C1179.76 477.651 1179.73 477.676 1179.75 477.657C1179.83 477.562 1180.21 477.24 1181.41 476.973L1180.76 474.044ZM1182.89 471.97C1182.13 473.236 1181.71 473.833 1180.76 474.044L1181.41 476.973C1183.77 476.449 1184.77 474.673 1185.47 473.509L1182.89 471.97ZM1185.65 468.904C1184.19 469.733 1183.43 471.061 1182.89 471.97L1185.47 473.509C1186.06 472.508 1186.47 471.89 1187.13 471.509L1185.65 468.904ZM1184.22 453.887C1185.58 457.134 1186.97 460.455 1187.43 463.305C1187.66 464.715 1187.64 465.882 1187.36 466.798C1187.09 467.665 1186.58 468.372 1185.65 468.904L1187.13 471.509C1188.75 470.587 1189.74 469.253 1190.23 467.678C1190.69 466.153 1190.66 464.475 1190.39 462.824C1189.86 459.549 1188.31 455.874 1186.99 452.726L1184.22 453.887ZM1181.55 445.367C1181.55 446.566 1181.93 447.955 1182.41 449.332C1182.9 450.739 1183.55 452.306 1184.22 453.887L1186.99 452.726C1186.31 451.119 1185.69 449.647 1185.24 448.347C1184.78 447.016 1184.55 446.03 1184.55 445.367H1181.55ZM1183.63 438.008C1182.66 440.014 1181.55 442.295 1181.55 445.367H1184.55C1184.55 443.056 1185.35 441.34 1186.33 439.307L1183.63 438.008ZM1185.47 431.641C1185.47 434.132 1184.62 435.939 1183.63 438.008L1186.33 439.307C1187.32 437.25 1188.47 434.887 1188.47 431.641H1185.47ZM1184.83 421.462C1185.15 424.88 1185.47 428.206 1185.47 431.641H1188.47C1188.47 428.041 1188.14 424.573 1187.81 421.176L1184.83 421.462ZM1184.16 410.869C1184.16 414.534 1184.5 418.043 1184.83 421.462L1187.81 421.176C1187.49 417.738 1187.16 414.369 1187.16 410.869H1184.16ZM1184.83 400.046C1184.5 403.554 1184.16 407.167 1184.16 410.869H1187.16C1187.16 407.329 1187.49 403.855 1187.82 400.326L1184.83 400.046ZM1185.47 389.806C1185.47 393.193 1185.16 396.567 1184.83 400.046L1187.82 400.326C1188.14 396.869 1188.47 393.356 1188.47 389.806H1185.47ZM1185.47 367.8V389.806H1188.47V367.8H1185.47ZM1184.18 364.478C1184.98 365.643 1185.47 366.391 1185.47 367.8H1188.47C1188.47 365.403 1187.49 363.993 1186.66 362.782L1184.18 364.478ZM1182.26 360.648C1182.74 362.39 1183.55 363.552 1184.18 364.478L1186.66 362.782C1186.03 361.871 1185.49 361.065 1185.15 359.845L1182.26 360.648ZM1181.52 351.441C1181.47 354.351 1181.4 357.575 1182.26 360.648L1185.15 359.845C1184.43 357.264 1184.47 354.486 1184.52 351.495L1181.52 351.441ZM1181.55 349.279C1181.55 349.988 1181.54 350.705 1181.52 351.441L1184.52 351.495C1184.54 350.763 1184.55 350.019 1184.55 349.279H1181.55ZM1183.6 338.791C1182.62 341.967 1181.55 345.407 1181.55 349.279H1184.55C1184.55 345.927 1185.47 342.906 1186.47 339.675L1183.6 338.791ZM1185.47 329.524C1185.47 332.698 1184.58 335.61 1183.6 338.791L1186.47 339.675C1187.43 336.556 1188.47 333.221 1188.47 329.524H1185.47ZM1185.58 323.33C1185.53 325.419 1185.47 327.501 1185.47 329.524H1188.47C1188.47 327.547 1188.52 325.505 1188.58 323.408L1185.58 323.33ZM1184.15 302.701C1185.94 308.98 1185.77 316.181 1185.58 323.33L1188.58 323.408C1188.76 316.366 1188.98 308.68 1187.03 301.876L1184.15 302.701ZM1173.24 292.604C1175.59 292.604 1177.96 293.879 1179.99 295.897C1182.01 297.906 1183.52 300.482 1184.15 302.7L1187.03 301.876C1186.25 299.127 1184.46 296.111 1182.11 293.769C1179.76 291.437 1176.67 289.604 1173.24 289.604V292.604ZM1171.97 283.499C1170.56 284.319 1169.12 285.155 1167.96 285.936C1167.39 286.327 1166.84 286.727 1166.39 287.126C1165.97 287.505 1165.52 287.975 1165.24 288.524C1164.94 289.133 1164.8 289.993 1165.33 290.803C1165.77 291.472 1166.49 291.812 1167.11 292.011C1168.38 292.423 1170.4 292.604 1173.24 292.604V289.604C1170.41 289.604 1168.81 289.41 1168.03 289.157C1167.62 289.023 1167.71 288.957 1167.84 289.159C1168.06 289.502 1167.94 289.833 1167.93 289.86C1167.93 289.861 1167.94 289.848 1167.95 289.821C1167.97 289.794 1168 289.758 1168.04 289.713C1168.12 289.62 1168.23 289.506 1168.39 289.369C1168.7 289.093 1169.12 288.777 1169.64 288.422C1170.7 287.709 1172.04 286.928 1173.48 286.092L1171.97 283.499ZM1172 283.48L1172 283.481L1173.45 286.11L1173.45 286.109L1172 283.48ZM1175.56 281.344C1174.46 282.049 1173.22 282.77 1171.97 283.498L1173.48 286.091C1174.72 285.371 1176.02 284.615 1177.18 283.868L1175.56 281.344ZM1184.16 265.756C1184.16 269.514 1183.55 272.374 1182.23 274.777C1180.9 277.181 1178.79 279.267 1175.56 281.344L1177.18 283.868C1180.68 281.62 1183.21 279.202 1184.85 276.224C1186.49 273.245 1187.16 269.842 1187.16 265.756H1184.16ZM1184.82 251.715C1184.5 256.32 1184.16 260.997 1184.16 265.756H1187.16C1187.16 261.121 1187.49 256.55 1187.82 251.928L1184.82 251.715ZM1185.47 238.012C1185.47 242.584 1185.15 247.114 1184.82 251.715L1187.82 251.928C1188.14 247.343 1188.47 242.708 1188.47 238.012H1185.47ZM1185.6 235.443C1185.54 236.312 1185.47 237.208 1185.47 238.012H1188.47C1188.47 237.334 1188.53 236.552 1188.59 235.654L1185.6 235.443ZM1184.57 228.075C1185.19 228.726 1185.54 229.715 1185.67 231.071C1185.81 232.424 1185.7 233.92 1185.6 235.443L1188.59 235.654C1188.69 234.184 1188.82 232.428 1188.66 230.777C1188.5 229.129 1188.03 227.363 1186.75 226.015L1184.57 228.075ZM1181.55 219.201C1181.55 220.96 1181.55 222.464 1181.95 223.872C1182.37 225.353 1183.19 226.613 1184.57 228.075L1186.75 226.015C1185.56 224.755 1185.08 223.905 1184.84 223.051C1184.57 222.122 1184.55 221.065 1184.55 219.201H1181.55ZM1181.46 215.976C1181.51 217.087 1181.55 218.157 1181.55 219.201H1184.55C1184.55 218.087 1184.5 216.956 1184.46 215.856L1181.46 215.976ZM1184.84 201.487C1180.98 205.736 1181.28 211.31 1181.46 215.976L1184.46 215.856C1184.26 210.925 1184.16 206.696 1187.06 203.505L1184.84 201.487ZM1182.23 198.896C1183.04 199.128 1183.77 199.336 1184.39 199.571C1185.03 199.813 1185.4 200.028 1185.58 200.197C1185.66 200.269 1185.66 200.298 1185.66 200.278C1185.64 200.249 1185.65 200.23 1185.65 200.258C1185.63 200.367 1185.51 200.756 1184.84 201.487L1187.06 203.505C1187.88 202.61 1188.48 201.669 1188.62 200.669C1188.77 199.535 1188.3 198.627 1187.62 197.995C1187 197.423 1186.19 197.044 1185.45 196.765C1184.69 196.477 1183.83 196.234 1183.05 196.011L1182.23 198.896ZM1176.32 194.362C1176.32 196.089 1177.59 197.079 1178.64 197.626C1179.71 198.185 1181.08 198.569 1182.23 198.896L1183.05 196.011C1181.81 195.658 1180.77 195.354 1180.03 194.967C1179.67 194.779 1179.48 194.619 1179.39 194.51C1179.32 194.43 1179.32 194.398 1179.32 194.362H1176.32ZM1184.08 177.637C1180.54 182.261 1176.32 187.687 1176.32 194.362H1179.32C1179.32 188.88 1182.78 184.271 1186.46 179.459L1184.08 177.637ZM1187.04 173.619C1186.15 174.927 1185.14 176.248 1184.08 177.636L1186.46 179.459C1187.51 178.085 1188.58 176.695 1189.52 175.304L1187.04 173.619ZM1185.4 159.909C1186.33 162.299 1187.35 164.903 1187.81 167.402C1188.27 169.91 1188.12 172.026 1187.04 173.619L1189.52 175.304C1191.25 172.753 1191.28 169.683 1190.76 166.859C1190.24 164.026 1189.11 161.151 1188.19 158.813L1185.4 159.909ZM1184.54 157.689C1184.8 158.387 1185.09 159.139 1185.4 159.908L1188.19 158.813C1187.88 158.035 1187.6 157.32 1187.36 156.663L1184.54 157.689ZM1184.12 142.926C1183.85 145.466 1183.57 148.077 1183.54 150.553C1183.51 153.03 1183.74 155.477 1184.54 157.688L1187.36 156.663C1186.73 154.93 1186.52 152.888 1186.54 150.585C1186.56 148.281 1186.83 145.82 1187.11 143.248L1184.12 142.926ZM1181.41 124.827C1183.43 126.854 1184.33 129.493 1184.61 132.623C1184.89 135.786 1184.52 139.283 1184.12 142.926L1187.11 143.248C1187.49 139.674 1187.91 135.871 1187.6 132.36C1187.29 128.814 1186.22 125.402 1183.53 122.706L1181.41 124.827ZM1179.65 102.004C1178.24 105.63 1176.75 109.436 1176.58 113.244C1176.4 117.187 1177.64 121.058 1181.41 124.827L1183.53 122.706C1180.34 119.521 1179.44 116.465 1179.58 113.378C1179.72 110.155 1180.99 106.829 1182.45 103.089L1179.65 102.004ZM1181.34 97.4364C1180.83 98.9646 1180.24 100.475 1179.65 102.004L1182.45 103.089C1183.03 101.57 1183.65 99.9932 1184.18 98.385L1181.34 97.4364ZM1182.39 88.7481C1182.3 91.9329 1182.2 94.8519 1181.34 97.4363L1184.18 98.385C1185.21 95.3072 1185.3 91.9277 1185.39 88.8382L1182.39 88.7481ZM1185.8 75.185C1182.63 79.1505 1182.53 84.2684 1182.39 88.7481L1185.39 88.8382C1185.53 84.1266 1185.71 80.1051 1188.14 77.059L1185.8 75.185ZM1183.29 51.1988C1184.69 54.1432 1186.52 58.7722 1187.36 63.4195C1188.22 68.1523 1187.98 72.4589 1185.8 75.185L1188.14 77.0591C1191.18 73.2596 1191.21 67.7954 1190.31 62.8828C1189.4 57.8849 1187.46 52.9939 1186 49.9145L1183.29 51.1988ZM1182.34 44.8336C1182.37 46.8127 1182.37 49.2488 1183.29 51.1988L1186 49.9144C1185.42 48.6781 1185.37 46.9776 1185.34 44.797L1182.34 44.8336ZM1181.91 40.2487C1182.29 41.4937 1182.32 43.0226 1182.34 44.8336L1185.34 44.7971C1185.32 43.1005 1185.31 41.1054 1184.77 39.3664L1181.91 40.2487ZM1181.4 30.5974C1181.22 33.6253 1180.98 37.246 1181.91 40.2487L1184.77 39.3664C1184.04 36.9877 1184.2 33.9622 1184.4 30.7773L1181.4 30.5974ZM1181.55 27.0249C1181.55 28.1163 1181.48 29.3098 1181.4 30.5975L1184.4 30.7772C1184.47 29.5107 1184.55 28.2232 1184.55 27.0249H1181.55ZM1184.2 17.589C1182.94 20.3591 1181.55 23.3857 1181.55 27.0249H1184.55C1184.55 24.1306 1185.64 21.676 1186.93 18.8281L1184.2 17.589ZM1186.78 8.43187C1186.78 11.8608 1185.55 14.6124 1184.2 17.589L1186.93 18.8281C1188.26 15.8988 1189.78 12.5932 1189.78 8.43187H1186.78ZM1186.69 4.642C1186.73 5.86456 1186.78 7.12434 1186.78 8.43187H1189.78C1189.78 7.0609 1189.73 5.74766 1189.69 4.53183L1186.69 4.642ZM1186.69 4.67659L1186.69 4.68234L1189.68 4.49149L1189.68 4.48575L1186.69 4.67659ZM1186.69 4.58756L1186.69 4.63685L1189.69 4.52549L1189.68 4.47619L1186.69 4.58756ZM1186.64 3.29221C1186.65 3.71686 1186.67 4.15016 1186.69 4.58707L1189.68 4.47668C1189.67 4.0384 1189.65 3.61397 1189.64 3.19971L1186.64 3.29221ZM1179.48 6.9303C1182.44 6.05694 1185.4 5.27548 1188.41 4.72115L1187.87 1.77076C1184.71 2.35172 1181.64 3.16493 1178.63 4.05289L1179.48 6.9303ZM1174.27 8.52945C1176.01 7.98438 1177.74 7.44282 1179.48 6.9303L1178.63 4.05289C1176.87 4.57367 1175.11 5.12276 1173.38 5.66659L1174.27 8.52945ZM1151.17 13.2237C1159.32 13.2237 1166.9 10.8391 1174.27 8.52945L1173.38 5.66659C1165.93 7.99848 1158.79 10.2237 1151.17 10.2237V13.2237ZM1144.03 11.5697C1146.11 12.3411 1148.45 13.2237 1151.17 13.2237V10.2237C1149.06 10.2237 1147.21 9.55192 1145.07 8.75699L1144.03 11.5697ZM1139.27 10.1791C1140.89 10.4101 1142.38 10.9577 1144.03 11.5697L1145.07 8.75698C1143.46 8.16064 1141.68 7.49274 1139.69 7.20927L1139.27 10.1791ZM1129.9 9.99634C1133.17 9.87434 1136.34 9.76055 1139.27 10.1791L1139.69 7.20927C1136.45 6.74574 1133 6.87853 1129.79 6.99843L1129.9 9.99634ZM1125.46 10.1076C1126.92 10.1076 1128.42 10.0515 1129.9 9.99634L1129.79 6.99843C1128.3 7.054 1126.86 7.10764 1125.46 7.10764V10.1076ZM1121.64 9.8674C1123.06 9.98908 1124.43 10.1076 1125.46 10.1076V7.10764C1124.58 7.10764 1123.37 7.00459 1121.9 6.87838L1121.64 9.8674ZM1110.75 10.539C1111.06 10.2831 1111.57 10.039 1112.35 9.85711C1113.11 9.67803 1114.04 9.58128 1115.08 9.54929C1117.16 9.48506 1119.51 9.68467 1121.64 9.8674L1121.9 6.87838C1119.8 6.69888 1117.27 6.48012 1114.98 6.55071C1113.83 6.58612 1112.69 6.69508 1111.66 6.93616C1110.65 7.17439 1109.63 7.565 1108.83 8.23432L1110.75 10.539ZM1100.53 14.7817C1102.08 14.7817 1104.17 14.0837 1105.97 13.2971C1107.8 12.4938 1109.66 11.4532 1110.75 10.539L1108.83 8.23431C1108.04 8.89019 1106.48 9.79715 1104.76 10.5488C1103.01 11.3173 1101.41 11.7817 1100.53 11.7817V14.7817ZM1090.9 14.6426C1094.1 14.7119 1097.32 14.7817 1100.53 14.7817V11.7817C1097.36 11.7817 1094.17 11.7127 1090.97 11.6433L1090.9 14.6426ZM1053.25 18.3316C1065.23 14.1021 1077.89 14.3605 1090.9 14.6426L1090.97 11.6433C1078.05 11.3633 1064.84 11.0607 1052.25 15.5026L1053.25 18.3316ZM1016.44 17.752C1020.66 19.7605 1027.77 20.6237 1034.7 20.6589C1041.66 20.6942 1048.82 19.894 1053.25 18.3316L1052.25 15.5026C1048.3 16.8961 1041.54 17.6936 1034.71 17.6589C1027.85 17.6241 1021.32 16.7498 1017.73 15.0435L1016.44 17.752ZM972.853 11.6163C987.959 11.455 1002.94 11.3204 1016.44 17.752L1017.73 15.0435C1003.5 8.26346 987.799 8.45651 972.821 8.61648L972.853 11.6163ZM972.852 11.6163L972.852 11.6163L972.821 8.61648L972.82 8.61648L972.852 11.6163ZM965.934 11.6657C968.233 11.6657 970.544 11.641 972.852 11.6163L972.82 8.61649C970.509 8.64117 968.214 8.66566 965.934 8.66566V11.6657ZM947.613 10.8889C953.701 11.2761 959.819 11.6657 965.934 11.6657V8.66566C959.93 8.66566 953.908 8.28322 947.803 7.89497L947.613 10.8889ZM929.148 10.1076C935.319 10.1076 941.453 10.4972 947.613 10.8889L947.803 7.89497C941.658 7.5042 935.431 7.10764 929.148 7.10764V10.1076ZM923.25 10.0277C925.223 10.0676 927.199 10.1076 929.148 10.1076V7.10764C927.234 7.10764 925.289 7.06834 923.311 7.02831L923.25 10.0277ZM899.343 12.2756C906.755 9.71021 914.966 9.86011 923.25 10.0277L923.311 7.02831C915.136 6.86293 906.368 6.66931 898.362 9.44064L899.343 12.2756ZM876.681 17.8892C885.196 16.9769 891.5 14.9907 899.343 12.2756L898.362 9.44064C890.571 12.1376 884.528 14.0313 876.361 14.9063L876.681 17.8892ZM860.752 23.7585C866.265 21.0428 871.604 18.4332 876.681 17.8892L876.361 14.9063C870.651 15.5181 864.807 18.4168 859.426 21.0673L860.752 23.7585ZM849.235 28.6597C852.991 27.5865 856.915 25.6484 860.752 23.7585L859.426 21.0673C855.525 22.9888 851.857 24.7906 848.411 25.7751L849.235 28.6597ZM827.418 25.8511C834.327 28.1512 841.951 30.7408 849.235 28.6597L848.411 25.7751C842.184 27.5542 835.501 25.3803 828.366 23.0047L827.418 25.8511ZM813.075 22.5718C817.522 22.5718 822.283 24.1415 827.418 25.8511L828.366 23.0047C823.352 21.3353 818.102 19.5718 813.075 19.5718V22.5718ZM804.148 22.6711C807.143 22.6213 810.119 22.5718 813.075 22.5718V19.5718C810.089 19.5718 807.089 19.6218 804.098 19.6715L804.148 22.6711ZM804.148 22.6711L804.15 22.6711L804.096 19.6716L804.095 19.6716L804.148 22.6711ZM784.504 22.4824C791.029 22.8901 797.636 22.7794 804.147 22.6711L804.097 19.6715C797.565 19.7802 791.077 19.8873 784.691 19.4882L784.504 22.4824ZM778.33 21.0017C780.175 21.6314 782.225 22.3399 784.504 22.4824L784.691 19.4882C782.876 19.3747 781.199 18.8111 779.299 18.1625L778.33 21.0017ZM773.974 19.7832C775.433 20.0166 776.815 20.4848 778.33 21.0017L779.299 18.1625C777.821 17.6581 776.2 17.1012 774.448 16.8208L773.974 19.7832ZM770.594 19.7269C771.964 19.6767 773.088 19.6414 773.974 19.7832L774.448 16.8208C773.211 16.6229 771.763 16.682 770.484 16.729L770.594 19.7269ZM764.019 18.9512C765.051 19.4675 766.216 19.6623 767.309 19.7354C768.406 19.8087 769.56 19.7649 770.594 19.7269L770.484 16.729C769.417 16.7681 768.423 16.8032 767.509 16.742C766.59 16.6806 765.88 16.5277 765.36 16.2679L764.019 18.9512ZM741.987 16.2301C750.138 16.0083 757.784 15.8337 764.019 18.9512L765.36 16.2679C758.327 12.751 749.863 13.0147 741.905 13.2312L741.987 16.2301ZM735.953 16.3397C737.96 16.3397 739.985 16.2845 741.987 16.2301L741.905 13.2312C739.896 13.2858 737.912 13.3397 735.953 13.3397V16.3397ZM711.884 11.1468C719.557 15.1852 727.397 16.3397 735.953 16.3397V13.3397C727.677 13.3397 720.371 12.2239 713.281 8.49206L711.884 11.1468ZM706.791 7.91913C708.301 8.97801 709.909 10.1074 711.884 11.1468L713.281 8.49206C711.497 7.55327 710.034 6.52943 708.513 5.46284L706.791 7.91913ZM702.772 5.31124C704.207 6.10855 705.457 6.98379 706.791 7.91913L708.513 5.46284C707.194 4.53754 705.821 3.57344 704.228 2.68876L702.772 5.31124ZM677.022 10.6751C681.328 8.41895 685.924 6.01663 690.445 4.71798C694.953 3.4231 699.146 3.29719 702.772 5.31124L704.228 2.68876C699.616 0.126185 694.498 0.432535 689.617 1.83457C684.749 3.23282 679.877 5.79208 675.63 8.01789L677.022 10.6751ZM677.057 10.6565L677.058 10.6561L675.595 8.03697L675.594 8.03738L677.057 10.6565ZM669.515 14.3282C671.797 13.4155 674.367 12.0665 677.022 10.6756L675.629 8.01829C672.932 9.43155 670.51 10.699 668.401 11.5428L669.515 14.3282ZM652.358 15.166C655.176 15.4022 658.271 15.6628 661.216 15.6376C664.147 15.6125 667.07 15.3061 669.515 14.3282L668.401 11.5428C666.47 12.3149 663.987 12.6137 661.191 12.6377C658.408 12.6615 655.454 12.415 652.608 12.1765L652.358 15.166ZM645.934 14.7817C647.761 14.7817 649.946 14.9638 652.358 15.166L652.608 12.1765C650.235 11.9775 647.912 11.7817 645.934 11.7817V14.7817ZM622.217 14.7817H645.934V11.7817H622.217V14.7817ZM618.128 15.0233C619.693 14.8944 621.073 14.7817 622.217 14.7817V11.7817C620.924 11.7817 619.408 11.9077 617.882 12.0335L618.128 15.0233ZM604.966 13.6816C606.779 14.8354 609.093 15.2162 611.332 15.307C613.596 15.3988 616.011 15.1978 618.128 15.0233L617.882 12.0335C615.727 12.211 613.501 12.3925 611.453 12.3095C609.381 12.2255 607.713 11.8742 606.576 11.1507L604.966 13.6816ZM590.772 8.78201C595.858 9.90682 600.762 11.0067 604.966 13.6816L606.576 11.1507C601.853 8.14462 596.415 6.95756 591.419 5.85278L590.772 8.78201ZM590.765 8.78061L590.774 8.78242L591.418 5.85236L591.409 5.85055L590.765 8.78061ZM589.952 8.60045C590.222 8.66054 590.493 8.72042 590.763 8.7802L591.411 5.85097C591.141 5.79115 590.871 5.7316 590.603 5.67189L589.952 8.60045ZM568.192 9.29133C571.027 8.64682 574.998 8.13984 579.028 7.96562C583.073 7.79075 587.056 7.95679 589.952 8.60045L590.603 5.67189C587.334 4.94542 583.05 4.78891 578.898 4.96842C574.732 5.14856 570.576 5.67288 567.527 6.36593L568.192 9.29133ZM555.611 10.4043C559.757 10.3145 564.078 10.2262 568.192 9.29133L567.527 6.36593C563.761 7.22172 559.751 7.31393 555.546 7.40504L555.611 10.4043ZM538.724 13.0801C543.802 10.6824 549.519 10.5363 555.611 10.4043L555.546 7.40504C549.578 7.53435 543.196 7.65046 537.443 10.3673L538.724 13.0801ZM533.419 14.8279C535.403 14.2647 537.413 13.699 538.724 13.0801L537.443 10.3673C536.412 10.8543 534.696 11.3469 532.6 11.942L533.419 14.8279ZM524.086 18.8056C524.282 18.5198 524.655 18.1744 525.27 17.7934C525.874 17.4192 526.634 17.0577 527.517 16.7068C529.29 16.002 531.393 15.4034 533.419 14.8279L532.6 11.942C530.609 12.5075 528.351 13.1471 526.409 13.9188C525.434 14.3061 524.498 14.7425 523.689 15.2434C522.892 15.7375 522.137 16.3445 521.614 17.106L524.086 18.8056ZM511.133 17.8279C512.954 18.9631 515.232 20.3982 517.423 20.999C518.545 21.3067 519.765 21.433 520.961 21.1118C522.195 20.7807 523.255 20.014 524.086 18.8056L521.614 17.106C521.143 17.7905 520.656 18.0875 520.184 18.2143C519.675 18.3509 519.03 18.329 518.216 18.1058C516.534 17.6445 514.652 16.4864 512.72 15.282L511.133 17.8279ZM511.068 17.7848L511.068 17.785L512.785 15.3249L512.785 15.3247L511.068 17.7848ZM507.661 15.9165C508.493 16.1939 509.632 16.8924 511.133 17.8277L512.72 15.2818C511.351 14.4288 509.86 13.4873 508.609 13.0705L507.661 15.9165ZM483.091 14.2499C491.484 13.636 499.177 13.0887 507.661 15.9165L508.609 13.0705C499.482 10.0279 491.216 10.6477 482.872 11.2579L483.091 14.2499ZM471.954 14.7817C475.827 14.7817 479.525 14.5107 483.091 14.2499L482.872 11.2579C479.292 11.5197 475.701 11.7817 471.954 11.7817V14.7817ZM453.792 13.2077C459.702 13.9858 465.731 14.7817 471.954 14.7817V11.7817C465.959 11.7817 460.123 11.0154 454.184 10.2333L453.792 13.2077ZM436.12 11.6657C442.065 11.6657 447.868 12.4277 453.792 13.2077L454.184 10.2333C448.29 9.45739 442.293 8.66566 436.12 8.66566V11.6657ZM409.128 12.4425C418.148 12.053 427.123 11.6657 436.12 11.6657V8.66566C427.048 8.66566 418.008 9.05627 408.999 9.44529L409.128 12.4425ZM381.935 13.2237C391.043 13.2237 400.108 12.832 409.128 12.4425L408.999 9.44529C399.968 9.83528 390.968 10.2237 381.935 10.2237V13.2237ZM341.717 11.646C355.136 12.4302 368.707 13.2237 381.935 13.2237V10.2237C368.81 10.2237 355.328 9.43629 341.892 8.65116L341.717 11.646ZM341.726 11.6466L341.726 11.6466L341.882 8.65063L341.882 8.65062L341.726 11.6466ZM302.822 10.1076C315.382 10.1076 328.475 10.8722 341.716 11.646L341.891 8.65114C328.667 7.87838 315.485 7.10764 302.822 7.10764V10.1076ZM253.398 10.1076H302.822V7.10764H253.398V10.1076ZM244.448 8.51732C247.095 9.28448 249.909 10.1076 253.398 10.1076V7.10764C250.386 7.10764 247.949 6.40858 245.283 5.63593L244.448 8.51732ZM235.914 6.99159C239.161 6.99159 241.725 7.7281 244.448 8.51732L245.283 5.63593C242.57 4.84934 239.634 3.99159 235.914 3.99159V6.99159ZM230.739 6.83435C232.492 6.91276 234.249 6.99159 235.914 6.99159V3.99159C234.328 3.99159 232.641 3.91641 230.873 3.83734L230.739 6.83435ZM218.33 7.30011C222.027 6.45515 226.366 6.63878 230.739 6.83435L230.873 3.83734C226.602 3.64637 221.831 3.4226 217.662 4.37553L218.33 7.30011ZM154.62 11.6909C175.567 11.7823 198.257 11.8884 218.33 7.30011L217.662 4.37553C197.987 8.87272 175.659 8.78263 154.633 8.69097L154.62 11.6909ZM154.619 11.6909L154.62 11.6909L154.632 8.69096L154.631 8.69096L154.619 11.6909ZM145.981 11.6657C148.822 11.6657 151.703 11.6782 154.618 11.6909L154.631 8.69096C151.718 8.67826 148.829 8.66566 145.981 8.66566V11.6657ZM140.853 11.8357C142.661 11.7484 144.382 11.6657 145.981 11.6657V8.66566C144.296 8.66566 142.501 8.75269 140.709 8.83922L140.853 11.8357ZM128.921 11.5549C132.678 12.2381 136.979 12.0228 140.853 11.8357L140.709 8.83922C136.746 9.03059 132.811 9.21306 129.457 8.6033L128.921 11.5549ZM122.993 10.1544C124.853 10.6495 126.808 11.1708 128.921 11.5549L129.457 8.6033C127.481 8.24402 125.639 7.75422 123.765 7.25538L122.993 10.1544ZM123.015 10.1601L123.015 10.1601L123.743 7.24967L123.743 7.24966L123.015 10.1601ZM109.9 8.62459C114.869 8.00346 118.715 9.01546 122.993 10.1544L123.765 7.25536C119.498 6.1193 115.138 4.94647 109.528 5.64776L109.9 8.62459ZM98.9169 10.1102C102.564 9.59798 106.213 9.08546 109.9 8.62459L109.528 5.64776C105.814 6.11192 102.143 6.62764 98.4996 7.13936L98.9169 10.1102ZM98.919 10.1099L98.9192 10.1099L98.4973 7.13969L98.4971 7.13972L98.919 10.1099ZM65.1367 13.2237C76.7673 13.2237 87.8292 11.6676 98.9167 10.1102L98.4994 7.1394C87.3823 8.70091 76.5245 10.2237 65.1367 10.2237V13.2237ZM29.3887 13.2237H65.1367V10.2237H29.3887V13.2237ZM24.7537 11.5028C25.893 12.2226 27.4112 13.2237 29.3887 13.2237V10.2237C28.4121 10.2237 27.6101 9.75884 26.356 8.96655L24.7537 11.5028ZM21.424 10.1051C22.6032 10.1744 23.5247 10.7263 24.7537 11.5028L26.356 8.96655C25.1968 8.23417 23.6572 7.23123 21.6002 7.11023L21.424 10.1051ZM19.0612 10.1307C19.923 10.0936 20.6902 10.0619 21.424 10.1051L21.6002 7.11023C20.6874 7.05654 19.7654 7.09757 18.9322 7.13344L19.0612 10.1307ZM15.0117 9.99689C16.4105 10.2512 17.8407 10.1832 19.0612 10.1307L18.9322 7.13344C17.6471 7.18876 16.5595 7.22913 15.5483 7.04528L15.0117 9.99689ZM2.474 3.5H1202.47V0.5H2.474V3.5ZM3.974 522V2H0.973999V522H3.974ZM1202.47 520.5H2.474V523.5H1202.47V520.5ZM1200.97 2V522H1203.97V2H1200.97Z" fill="white"/>
</svg>
