<svg width="1201" height="520" viewBox="0 0 1201 520" fill="none" xmlns="http://www.w3.org/2000/svg">
<path fill-rule="evenodd" clip-rule="evenodd" d="M6.50443 1.76236C7.6193 2.55173 8.86106 3.43095 12.0001 4C12.8862 4.16063 14.4204 4.73062 16.0381 5.33163C18.1231 6.10623 20.3467 6.93235 21.5001 7C23.5358 7.11939 29.501 6.89349 34.4061 6.70774C37.3383 6.59669 39.8917 6.5 41.0001 6.5C46.9818 6.5 49.621 7.57061 52.2602 8.64122C54.8994 9.71182 57.5386 10.7824 63.5202 10.7824C75.075 10.7824 86.0783 9.24146 97.2246 7.68046C100.884 7.16797 104.559 6.65331 108.274 6.19033C113.584 5.52846 117.704 6.62197 121.993 7.76061C123.867 8.25807 125.774 8.76414 127.826 9.13621C131.396 9.78331 135.53 9.58425 139.465 9.39483C141.272 9.30782 143.036 9.22285 144.685 9.22285C147.541 9.22285 150.438 9.23544 153.365 9.24816C174.435 9.33975 197.033 9.43798 216.986 4.89068C220.934 3.99083 225.507 4.19474 229.846 4.3882C231.614 4.46702 233.342 4.5441 234.974 4.5441C238.472 4.5441 241.233 5.34202 243.962 6.13072C246.628 6.9014 249.265 7.66327 252.528 7.66327H302.148C314.81 7.66327 327.999 8.43171 341.285 9.20577C354.766 9.99121 368.346 10.7824 381.575 10.7824C390.681 10.7824 399.749 10.392 408.811 10.0019C417.861 9.61222 426.904 9.22285 435.974 9.22285C442.058 9.22285 447.981 10.0005 453.913 10.7792C459.861 11.5601 465.817 12.342 471.951 12.342C475.776 12.342 479.434 12.0752 483.022 11.8137C491.424 11.201 499.435 10.6169 508.275 13.555C509.321 13.9025 510.641 14.7234 512.082 15.6186C515.85 17.9604 520.435 20.8104 523.048 17.0208C524.494 14.9241 529.215 13.5875 533.249 12.4454C535.296 11.8656 537.167 11.336 538.343 10.7824C543.779 8.22261 549.853 8.0914 555.907 7.96062C560.099 7.87006 564.281 7.7797 568.236 6.88348C574.145 5.54458 584.553 4.81882 590.743 6.19033C591.017 6.25088 591.29 6.31125 591.565 6.37171C596.626 7.48762 601.817 8.63224 606.298 11.4756C609.26 13.3547 614.293 12.9413 618.581 12.5889C620.132 12.4615 621.586 12.342 622.81 12.342H646.62C648.531 12.342 650.794 12.5312 653.195 12.7319C658.881 13.2071 665.343 13.7472 669.736 11.9954C672.044 11.0746 674.717 9.62876 677.596 8.07093C686.254 3.38739 696.782 -2.30857 704.93 2.20473C706.494 3.07093 707.724 4.21574 708.972 5.37744C710.323 6.63447 711.694 7.91128 713.533 8.87628C720.944 12.7653 728.547 13.9016 736.996 13.9016C738.987 13.9016 741 13.847 743.013 13.7924C751.1 13.573 759.186 13.3536 765.847 16.6742C767.406 17.4511 769.611 17.3704 771.72 17.2932C773.049 17.2445 774.34 17.1973 775.406 17.3673C777.018 17.6245 778.526 18.1376 780.028 18.6487C781.908 19.2885 783.779 19.9252 785.834 20.0533C792.315 20.4572 798.889 20.3481 805.436 20.2395C808.441 20.1897 811.441 20.1399 814.424 20.1399C819.18 20.1399 824.206 21.8082 829.3 23.4993C836.35 25.8396 843.532 28.2237 850.314 26.2916C853.929 25.2618 857.74 23.39 861.625 21.4824C867.094 18.7966 872.707 16.0397 878.122 15.4612C886.496 14.5666 892.694 12.6247 900.542 9.916C908.282 7.24497 916.805 7.4169 925.067 7.58356C927.05 7.62356 929.019 7.66327 930.957 7.66327C937.209 7.66327 943.414 8.05671 949.591 8.44836C955.712 8.83648 961.806 9.22285 967.89 9.22285C970.189 9.22285 972.5 9.19823 974.819 9.17354C989.922 9.01271 1005.32 8.84873 1019.25 15.4612C1027.08 19.1796 1046.64 18.9399 1055.05 15.981C1067.38 11.641 1080.37 11.9218 1093.39 12.2031C1096.6 12.2725 1099.81 12.342 1103.02 12.342C1105.46 12.342 1110.43 10.0147 1112.32 8.44306C1114.55 6.59071 1120.1 7.06569 1124.34 7.42828C1125.79 7.55235 1127.09 7.66327 1128.05 7.66327C1129.48 7.66327 1130.96 7.60833 1132.45 7.5529C1135.71 7.43183 1139.03 7.30841 1142.12 7.74991C1143.93 8.00737 1145.58 8.61574 1147.21 9.22054C1149.33 10.0045 1151.44 10.7824 1153.86 10.7824C1161.78 10.7824 1169.17 8.47528 1176.61 6.15219C1178.35 5.60718 1180.1 5.06129 1181.86 4.5441C1183.93 3.93503 1185.74 3.75228 1187.56 3.5696C1190.86 3.237 1194.16 2.90461 1199 0H1199.11C1199.12 0.819447 1199.15 1.68133 1199.19 2.57981V2.58047V2.58117L1199.19 2.58692C1199.23 3.80611 1199.28 5.09262 1199.28 6.43187C1199.28 10.227 1197.91 13.2556 1196.57 16.2086C1195.29 19.0176 1194.05 21.7581 1194.05 25.0249C1194.05 26.1697 1193.97 27.4102 1193.9 28.6874C1193.71 31.7937 1193.51 35.1168 1194.34 37.8076C1194.8 39.2996 1194.82 41.0615 1194.84 42.8153C1194.87 44.8951 1194.89 46.9635 1195.65 48.5566C1198.5 54.5805 1203.19 67.5964 1197.97 74.122C1195.17 77.6278 1195.03 82.1975 1194.89 86.7932C1194.8 89.9304 1194.7 93.0796 1193.76 95.9107C1193.24 97.4789 1192.64 99.0226 1192.05 100.546C1189.19 107.913 1186.51 114.812 1193.47 121.767C1198.19 126.489 1197.39 133.87 1196.61 141.087C1196.06 146.2 1195.52 151.23 1196.95 155.176C1197.2 155.854 1197.49 156.587 1197.79 157.361C1198.87 160.104 1200.14 163.353 1200.47 166.406V169.182C1200.32 170.362 1199.95 171.471 1199.28 172.462C1198.36 173.811 1197.33 175.167 1196.27 176.548C1192.66 181.266 1188.82 186.284 1188.82 192.362C1188.82 194.078 1191.26 194.774 1193.64 195.454C1196.82 196.363 1199.91 197.244 1196.95 200.496C1193.57 204.216 1193.77 209.117 1193.96 213.916C1194.01 215.022 1194.05 216.122 1194.05 217.201C1194.05 220.825 1194.09 222.324 1196.66 225.045C1198.55 227.044 1198.3 230.556 1198.09 233.548V233.55V233.551C1198.03 234.434 1197.97 235.272 1197.97 236.012C1197.97 240.646 1197.65 245.229 1197.32 249.821C1196.99 254.435 1196.66 259.059 1196.66 263.756C1196.66 271.6 1194.1 276.281 1187.37 280.606C1186.24 281.332 1184.97 282.071 1183.73 282.794L1183.72 282.795C1178.03 286.108 1172.88 289.104 1184.24 289.104C1190.01 289.104 1195.17 295.321 1196.59 300.288C1198.46 306.83 1198.27 314.273 1198.08 321.369C1198.03 323.462 1197.97 325.524 1197.97 327.524C1197.97 330.959 1197.01 334.083 1196.04 337.233C1195.05 340.436 1194.05 343.667 1194.05 347.279C1194.05 348.003 1194.04 348.734 1194.02 349.468C1193.97 352.419 1193.92 355.419 1194.7 358.246C1195.11 359.727 1195.79 360.711 1196.42 361.63C1197.23 362.818 1197.97 363.897 1197.97 365.8V387.806C1197.97 391.275 1197.65 394.718 1197.32 398.186C1197 401.704 1196.66 405.248 1196.66 408.869C1196.66 412.451 1196.99 415.891 1197.32 419.319C1197.65 422.727 1197.97 426.124 1197.97 429.641C1197.97 432.509 1196.97 434.594 1195.98 436.657C1195.01 438.677 1194.05 440.675 1194.05 443.367C1194.05 445.229 1195.26 448.118 1196.6 451.307C1199.29 457.702 1202.48 465.298 1197.39 468.206C1196.33 468.812 1195.75 469.784 1195.18 470.739C1194.45 471.954 1193.74 473.141 1192.09 473.508C1186.84 474.674 1190 477.872 1192.74 479.246C1193.64 479.693 1194.65 479.817 1195.61 479.934C1197.56 480.173 1199.28 480.384 1199.28 483.241C1199.28 484.753 1198.71 488.432 1198.14 492.112L1198.14 492.115L1198.14 492.12L1198.14 492.126L1198.14 492.129C1197.57 495.809 1197 499.488 1197 501C1197 507.222 1197.88 508.861 1198.75 510.5C1199.54 511.973 1200.32 513.446 1200.47 518.246V520H1199.5C1193.18 520 1182.87 518.225 1177.06 516.508C1175.3 515.992 1173.56 515.446 1171.83 514.902C1164.42 512.581 1157.06 510.276 1149.17 510.276C1146.76 510.276 1144.66 511.053 1142.55 511.837C1140.92 512.441 1139.28 513.049 1137.48 513.306C1134.39 513.747 1131.09 513.624 1127.85 513.503C1126.36 513.447 1124.89 513.392 1123.46 513.392C1122.51 513.392 1121.21 513.503 1119.77 513.627C1115.54 513.989 1110.01 514.464 1107.79 512.613C1105.91 511.043 1100.96 508.718 1098.53 508.718C1095.34 508.718 1092.14 508.788 1088.94 508.857L1088.93 508.857C1075.97 509.138 1063.04 509.419 1050.75 505.083C1042.38 502.127 1022.89 501.887 1015.09 505.602C1001.22 512.208 985.88 512.044 970.837 511.884H970.837H970.833C968.524 511.859 966.223 511.834 963.934 511.834C957.874 511.834 951.805 512.22 945.708 512.608L945.705 512.608C939.554 512.999 933.374 513.392 927.148 513.392C925.217 513.392 923.256 513.432 921.281 513.472C913.051 513.638 904.561 513.81 896.853 511.142C889.035 508.436 882.862 506.496 874.521 505.602C869.127 505.024 863.536 502.27 858.089 499.587C854.22 497.681 850.424 495.811 846.823 494.783C840.067 492.852 832.914 495.234 825.892 497.572C820.818 499.262 815.812 500.928 811.075 500.928C808.104 500.928 805.115 500.878 802.122 500.829C795.601 500.72 789.053 500.611 782.598 501.015C780.55 501.143 778.687 501.779 776.814 502.418C775.318 502.928 773.816 503.441 772.211 503.698C771.149 503.868 769.863 503.821 768.539 503.772C766.439 503.695 764.242 503.614 762.69 504.39C756.055 507.708 748 507.488 739.946 507.269C737.941 507.215 735.936 507.16 733.953 507.16C725.537 507.16 717.964 508.295 710.582 512.181C709.375 512.816 708.074 513.488 706.756 514.169L706.751 514.172C704.223 515.477 701.63 516.816 699.5 518C691.493 522.448 682.555 517.432 674.715 513.032C671.965 511.489 669.35 510.021 666.958 509.064C662.583 507.314 656.146 507.854 650.483 508.329C648.091 508.529 645.836 508.718 643.934 508.718H620.217C618.998 508.718 617.55 508.599 616.005 508.472C611.734 508.12 606.721 507.707 603.771 509.584C599.308 512.424 594.137 513.568 589.096 514.682L589.096 514.683L588.998 514.704C588.758 514.757 588.517 514.81 588.277 514.864C582.112 516.234 571.744 515.509 565.859 514.171C561.92 513.276 557.754 513.186 553.579 513.095C547.549 512.965 541.499 512.834 536.084 510.276C534.913 509.723 533.049 509.194 531.01 508.615C526.992 507.474 522.29 506.139 520.85 504.044C518.247 500.258 513.68 503.105 509.926 505.445C508.492 506.339 507.176 507.159 506.135 507.506C497.329 510.442 489.35 509.858 480.981 509.246C477.408 508.985 473.764 508.718 469.954 508.718C463.845 508.718 457.912 509.499 451.988 510.279C446.079 511.057 440.179 511.834 434.12 511.834C425.086 511.834 416.078 511.445 407.065 511.056L407.064 511.056H407.063C398.037 510.666 389.005 510.276 379.935 510.276C366.759 510.276 353.233 511.067 339.806 511.851L339.804 511.851L339.803 511.851C326.57 512.625 313.433 513.392 300.822 513.392H251.398C248.147 513.392 245.522 514.153 242.866 514.923C240.148 515.711 237.398 516.508 233.913 516.508C232.289 516.508 230.567 516.585 228.807 516.664H228.805C224.484 516.857 219.929 517.061 215.996 516.162C196.122 511.619 173.613 511.717 152.626 511.809H152.622C149.709 511.822 146.825 511.834 143.981 511.834C142.339 511.834 140.581 511.749 138.781 511.663C134.862 511.473 130.744 511.274 127.189 511.921C125.145 512.293 123.246 512.798 121.379 513.295C117.106 514.433 113.003 515.525 107.714 514.864C104.013 514.401 100.353 513.887 96.7077 513.375C85.6055 511.816 74.6458 510.276 63.1367 510.276C57.1787 510.276 54.9986 510.707 52.8184 511.138C50.6383 511.569 48.4581 512 42.5001 512C41.01 512 38.4083 513.226 35.7806 514.465C33.2048 515.68 30.6038 516.906 29.0001 517C28.2165 517.046 25.8251 517.003 23.0621 516.952C18.6311 516.872 13.2444 516.774 12.0001 517C8.9557 517.554 7.79179 518.205 6.80183 518.76C5.55707 519.457 4.58732 520 0.500175 520C0.500175 513.778 1.12315 509.258 1.74612 504.738C2.36909 500.217 2.99207 495.697 2.99207 489.475V480.397C2.99207 477.54 4.71244 477.329 6.66448 477.09H6.66471C7.6222 476.973 8.63542 476.849 9.52867 476.402C12.2757 475.029 15.4286 471.83 10.1823 470.664C8.52764 470.297 7.81835 469.11 7.09225 467.896C6.5213 466.94 5.93996 465.968 4.88042 465.362C-0.208672 462.454 2.98217 454.858 5.66843 448.463C7.00759 445.274 8.22135 442.385 8.22135 440.523C8.22135 437.831 7.26155 435.833 6.29157 433.813C5.30079 431.75 4.29939 429.665 4.29939 426.797C4.29939 423.28 4.62421 419.883 4.95003 416.475C5.27786 413.047 5.60671 409.607 5.60671 406.025C5.60671 402.404 5.27518 398.86 4.94603 395.342C4.62155 391.874 4.29939 388.431 4.29939 384.962V362.956C4.29939 361.053 5.03862 359.974 5.85253 358.786C6.48208 357.867 7.15632 356.883 7.56769 355.402C8.35294 352.575 8.29969 349.575 8.24733 346.624C8.23431 345.89 8.22135 345.16 8.22135 344.435C8.22135 340.823 7.22432 337.592 6.23566 334.389C5.26348 331.239 4.29939 328.115 4.29939 324.68C4.29939 322.68 4.24543 320.618 4.19067 318.525C4.00502 311.429 3.81028 303.986 5.67934 297.444C7.09867 292.477 12.258 286.26 18.0263 286.26C29.39 286.26 24.242 283.264 18.5476 279.951L18.5469 279.951C17.3029 279.227 16.0329 278.488 14.9032 277.762C8.17474 273.437 5.60671 268.756 5.60671 260.912C5.60671 256.215 5.27841 251.591 4.95084 246.977C4.62475 242.385 4.29939 237.802 4.29939 233.168C4.29939 232.427 4.2402 231.588 4.17782 230.704C3.96661 227.712 3.71875 224.2 5.60671 222.201C8.17686 219.48 8.22135 217.981 8.22135 214.357C8.22135 213.278 8.26536 212.178 8.30958 211.072C8.50155 206.273 8.69761 201.372 5.31619 197.652C2.3592 194.4 5.44638 193.519 8.63073 192.61C11.0135 191.93 13.4506 191.234 13.4506 189.518C13.4506 183.44 9.61167 178.422 6.00193 173.704L6.00176 173.704L6.00169 173.704C4.94479 172.322 3.90754 170.967 2.99207 169.618C0.18001 165.474 2.62338 159.245 4.47851 154.517C4.78201 153.743 5.06977 153.01 5.31619 152.332C6.75089 148.387 6.20779 143.356 5.65582 138.243C4.87674 131.026 4.07999 123.645 8.80238 118.923C15.7565 111.969 13.0808 105.069 10.2241 97.7023C9.63323 96.1786 9.03461 94.635 8.51186 93.0667C7.56817 90.2357 7.47357 87.0864 7.37933 83.9493C7.24128 79.3536 7.10401 74.7839 4.29939 71.2781C-0.921062 64.7525 1.44597 54.5239 4.29939 48.5C5.01076 46.9982 3.7385 44.2239 2.45963 41.4353C1.60205 39.5653 0.741499 37.6888 0.474121 36.1852V34.5918C0.482196 34.5608 0.490877 34.5302 0.500175 34.5C0.712834 33.8088 0.947474 33.0853 1.18905 32.3405C2.27461 28.9932 3.50018 25.2142 3.50018 22C4.39489 15.1405 3.1549 11.2715 2.00848 7.69442C1.2333 5.27569 0.500904 2.99045 0.500176 0.00443388C4.11443 0.0701427 5.226 0.857175 6.50443 1.76236ZM0.500175 520L0.474121 519.993V520H0.500175Z" fill="#E8CB87"/>
</svg>
