<?xml version="1.0" standalone="no"?>
<!DOCTYPE svg PUBLIC "-//W3C//DTD SVG 20010904//EN"
 "http://www.w3.org/TR/2001/REC-SVG-20010904/DTD/svg10.dtd">
<svg version="1.0" xmlns="http://www.w3.org/2000/svg"
 width="744.000000pt" height="890.000000pt" viewBox="0 0 744.000000 890.000000"
 preserveAspectRatio="xMidYMid meet">

<g transform="translate(0.000000,890.000000) scale(0.100000,-0.100000)"
fill="#E46D07" stroke="none">
<path d="M2520 8883 c-759 -26 -1139 -33 -1774 -33 l-739 0 6 -127 c53 -1039
77 -2316 77 -4103 0 -1808 -23 -3110 -76 -4401 l-7 -155 284 -12 c156 -7 457
-20 669 -29 297 -13 612 -17 1385 -18 993 0 1001 0 1170 23 927 127 1648 435
2259 963 131 112 368 355 480 491 507 614 841 1268 1021 2002 185 753 201
1573 45 2282 -150 680 -459 1292 -923 1829 -533 618 -1254 998 -2237 1179
-486 89 -1075 128 -1640 109z m420 -1354 c810 -70 1450 -360 1871 -845 528
-609 792 -1370 777 -2247 l-3 -189 -116 139 c-680 809 -1288 1203 -1860 1204
-277 0 -523 -88 -772 -275 -80 -60 -203 -178 -387 -372 -119 -124 -245 -215
-400 -288 -73 -34 -237 -96 -255 -96 -1 0 -5 260 -9 578 -10 852 -29 1579 -57
2130 -6 118 -9 215 -7 217 5 5 425 45 568 55 152 10 476 4 650 -11z m291
-2460 c-70 -134 -93 -269 -67 -399 28 -138 76 -224 186 -336 83 -84 161 -133
322 -203 277 -121 434 -244 510 -399 33 -66 33 -69 32 -202 0 -120 -3 -144
-28 -220 -84 -253 -255 -483 -534 -716 -374 -312 -954 -623 -1611 -864 l-186
-68 -6 31 c-13 62 -45 1219 -55 1978 l-7 506 54 13 c103 25 285 92 394 146
217 108 377 234 568 445 104 114 229 226 317 286 51 34 142 84 147 80 1 -2
-15 -37 -36 -78z m823 30 c185 -36 573 -332 904 -689 152 -163 348 -397 480
-573 l89 -118 -13 -67 c-115 -591 -402 -1169 -774 -1555 -181 -188 -348 -314
-570 -427 -279 -142 -569 -227 -940 -277 -214 -28 -1000 -23 -1000 7 0 4 28
18 63 30 243 88 738 321 985 464 784 453 1216 948 1302 1489 47 301 -36 544
-265 772 -106 106 -218 184 -370 255 -263 125 -295 141 -337 182 -87 85 -107
191 -56 300 80 171 274 251 502 207z"/>
</g>
</svg>
