<svg xmlns="http://www.w3.org/2000/svg" xmlns:xlink="http://www.w3.org/1999/xlink" id="Layer_1" x="0px" y="0px" viewBox="0 0 1123.8 449.6" style="enable-background:new 0 0 1123.8 449.6;" xml:space="preserve"><style type="text/css">	.st0{fill-rule:evenodd;clip-rule:evenodd;fill:url(#SVGID_1_);}	.st1{fill-rule:evenodd;clip-rule:evenodd;fill:#0087C1;}	.st2{fill-rule:evenodd;clip-rule:evenodd;fill:#6FAA27;}	.st3{fill-rule:evenodd;clip-rule:evenodd;fill:#ECECEC;}	.st4{fill-rule:evenodd;clip-rule:evenodd;fill:#5D8F21;}	.st5{fill-rule:evenodd;clip-rule:evenodd;fill:#009EE2;}	.st6{fill-rule:evenodd;clip-rule:evenodd;fill:#76B72A;}	.st7{fill-rule:evenodd;clip-rule:evenodd;fill:#FFFFFF;}	.st8{fill-rule:evenodd;clip-rule:evenodd;}</style><linearGradient id="SVGID_1_" gradientUnits="userSpaceOnUse" x1="189.5476" y1="151.1409" x2="189.5476" y2="310.6522" gradientTransform="matrix(1 0 0 -1 0 495.0588)">	<stop offset="0" style="stop-color:#F49F57"></stop>	<stop offset="1" style="stop-color:#E74E0F"></stop></linearGradient><path class="st0" d="M218.6,177.4c38.2,9.3,69.3,36.7,83.9,72.5c-2.3,0.6-5.1,1.8-6.6,4c-2.7,4.2-2.5,8.5-5.1,9.2s-3.4-1.4-6.5,0.5 c-3.2,1.9-5.8,7.6-8.4,6.8c-2.5-0.8-4.7-4.5-9.2-3.2s-9.5,7.5-14.5,6.8c-5-0.6-4.2-4.4-16.5-2.5c-0.8,0.1-1.5,0.2-2.1,0.4 c0-0.1-0.1-0.2-0.1-0.3c-2.9-6.2-9.4-24.8-13-35.1c-3.6-10.3-4.1-12.7-5.2-16.5c-1.1-3.8,3.3-14.3,3.5-25.3 C218.7,185.7,218.6,179.5,218.6,177.4L218.6,177.4z M213.4,276.1c-4.4-7.1-15-21.4-15-21.4s-4.6,19.2-4.6,26.6 c0.1,7.4-4.6,12.9-7.1,19.5c-0.5,1.3-1.2,3.5-2.1,6.1c3.4,1.3,4.4,3.1,8.8,3c7.1-0.3,10.4-2,15.2,1.8c0.3,0.3,0.6,0.5,0.9,0.9 c0.6-7.7,1.2-14.3,1.5-16.4c0.8-6,5.9-12.5,4-17c-0.2-0.5-0.6-1.2-1-2l-17.7-0.2c0,0,7.3,0,16.6-0.7L213.4,276.1L213.4,276.1z  M234.4,277.4l75.7,1c0.8,5.7,1.2,11.4,1.2,17.3c0,24.9-7.5,48.1-20.4,67.4c-4.3-5.3-8.2-9.9-8.2-9.9s-2,2-3.7,3.2s-9.1,3.8-9.1,3.8 S243,342.4,233,337l-0.2-0.1l-0.1-0.1l-0.1,0l-0.2-0.1l-0.2-0.1l0,0l45.4,0c0,0-1.8-0.1-5.8-0.8s-4.7-2.5-10.3-4.1 c-5.7-1.6-5.6,0.7-11.7,2s-10-4.9-17-7.7c-5.8-2.3-6.7,0.8-10.2,1.1c0.3-1.6,3.5-18.2,6.9-27.8C232.1,291.9,234.5,283.7,234.4,277.4 L234.4,277.4z M167.5,307.2c-8.3,3.4-10.9,11.8-16,14.9c-6.4,3.9-7.2-5.2-25.2,8.3c-3.9,2.9-11.6-1.9-19.9-2.3 c-8.4-0.4-7.5,5.1-11,6.5c-3.5,1.4-9.2,2-9.2,2l74.5-0.1h0l-0.2,0.2l-0.1,0.1l0,0l-0.2,0.2l-0.1,0.1l-0.1,0.1l-0.2,0.2l-0.1,0.1 l-0.1,0.1l-0.2,0.2l0,0l-0.1,0.1l-0.2,0.1l0,0l-0.2,0.1l-0.1,0.1l0,0l-0.2,0.1l-0.1,0.1l-0.1,0.1l-0.2,0.1l-0.1,0.1l-0.1,0.1 l-0.2,0.1l0,0l-0.1,0.1l-0.2,0.1l0,0l-0.2,0.1l-0.1,0.1l0,0l-0.2,0.1l-0.1,0.1l-0.1,0l-0.2,0.1l-0.1,0.1l-0.1,0.1l-0.2,0.1l-0.1,0 l-0.1,0.1l-0.3,0.3l-0.1,0.1l0,0l-0.2,0.1l-0.1,0.1l0,0l-0.2,0.1l-0.1,0.1l-0.1,0.1l-0.2,0.1l-0.1,0l-0.1,0.1l-0.2,0.1l0,0l-0.1,0.1 l-0.1,0.1l0,0l-0.3,0.2l0,0l-0.1,0.1l-0.1,0.1l-0.1,0.1c-3.8,3.3-6.8,5.9-8.1,6.9c-5.3,3.9-28.7,32.1-28.7,32.1s-10.6-9.6-12.6-8.2 c-0.6,0.4-2.6,1.7-5.2,3.3c-19.3-21.5-31.1-50-31.1-81.3c0-24.7,7.4-47.7,20-66.9h60.1c-1.3,4.4,0,7.4-0.2,9.4 c-0.2,2-3.4,10.6-2.7,14.6c0.7,4,6.1,9.4,8.4,9.4c2.4,0,1.8-5.2,1.8-6.6c0-1.3,0.7-2.1,1.7-3.2c1-1.1,1.9-6,1.6-8 c-0.3-2-2.1-4.4-2.1-4.4s2-3,3.3-5.9c0.3-0.7,0.9-2,1.6-3.6c1.4,1.5,3,2.5,4.7,2.9c1.4,0.3,3.2,0.1,5.1-0.4c0,3.2,0,6.1,0,8.5 c-0.1,11,4.4,34,1.6,42.6C171.2,289.6,169.1,298.3,167.5,307.2L167.5,307.2z M148.7,226.5c-1.4-0.3-2.1-2.1-4.6-3.3 c-3.4-1.5-4.8,0.5-6.4,1c-1.6,0.4-2.5-2.9-5.1-4.6c-2.6-1.7-7.1-0.7-9.4,0.2s-4.8,0-5.8-2.5c-0.8-2-3.5-8.6-8.4-12.9 c10.6-9.4,22.8-16.9,36.2-22.1c0.6,6.6,1.9,13.1,3.1,18.3c1,4.3,3,9.8,4.9,14.7C151.4,219.7,149.7,223.9,148.7,226.5z"></path><path class="st1" d="M112.6,83.2c-0.8,25.3-16.7,42.3-36.2,53.9c0,0,25-5.3,38-23.7c7.9-11.2,9.8-20.1,10.1-25.4L117,84L112.6,83.2z "></path><path class="st2" d="M141.1,97.4c-3.1,6.4-7.9,14.7-14.3,20.3c-15.3,13.3-31.3,17.3-50.4,19.4c0,0,31.5,5,53.2-9.6 c21.7-14.7,27.8-29.2,26-32.5c-1.8-3.3-4.5-2.8-8.4-0.3S142,97.6,141.1,97.4L141.1,97.4z"></path><path class="st3" d="M76.4,137.2c0,0,25-5.3,38-23.7s9.8-30.5,9.8-30.5c11.2,2.8,12.1,6.1,18.9,10.1c-2.7,6.4-8.2,17.7-16.3,24.7 C111.4,131.1,95.5,135,76.4,137.2z"></path><path class="st4" d="M140.2,97.8c1.3,0,3.3-0.7,5.1-1.9c1.9-1.2,4.6-2.8,5.9-3.1c-4.4,0.1-7.7-1.6-10.2-3.4s-4.4,2.2-4.4,2.2 l0.7,3.2L140.2,97.8z"></path><path class="st5" d="M154.6,36.7c-3.8-3.5-7.6-6.8-11.1-9.6c0,0-19.2,9.2-28.7,22.3c-9.6,13.1-13.5,29-10.1,31.1 c1.6,1,5.4,3.1,10,5.6l0,0c-0.4-23.4,19.9-41.5,37.2-48.4L154.6,36.7z"></path><path class="st6" d="M126.9,92.5c4.4-22.7,18-35.2,39.7-42.7c3.4,1.8,5.6,3.9,15.2,10.5c0,0-19.9,9.2-25.4,13.9 c-5.5,4.8-11.7,13-14.4,18c-2.7,5-1.9,5.6-1.9,5.6C138.3,97.8,133,95.5,126.9,92.5z"></path><path class="st7" d="M151.8,37.7c-17.3,6.8-37.6,25-37.2,48.4c3.8,2.1,8.2,4.3,12.2,6.3c4.4-22.7,18-35.2,39.7-42.7L151.8,37.7z"></path><path class="st8" d="M10.4,436.9c0,0,26.5-26.7,35.8-29.6S75,386.1,75,386.1l9.3,0c0,0,17.9-11.1,19.8-12.4c2-1.4,12.6,8.2,12.6,8.2 s23.4-28.2,28.7-32.1c2.5-1.9,10.9-9.3,19.1-16.6c0.3-3.2,0.6-6.6,0.9-10.1c1-13,4.8-30.1,7.5-38.7c2.8-8.6-1.7-31.6-1.6-42.6 c0-2.4,0-5.3,0-8.5c-1.9,0.5-3.6,0.7-5.1,0.4c-1.7-0.4-3.3-1.4-4.7-2.9c-0.7,1.5-1.3,2.8-1.6,3.6c-1.3,2.9-3.3,5.9-3.3,5.9 s1.8,2.4,2.1,4.4s-0.6,6.9-1.6,8c-1,1.1-1.7,1.9-1.7,3.2c0,1.3,0.6,6.6-1.8,6.6c-2.4,0-7.7-5.4-8.4-9.4c-0.7-4,2.5-12.6,2.7-14.6 c0.2-2-1.1-5.1,0.2-9.6c0.6-2,2.8-7.4,5.2-13.3c-1.9-4.9-3.9-10.4-4.9-14.7c-3.3-13.6-7.2-35.9,4.3-45.9c9.6-8.3,20.5-6.8,24.5-2.7 c2.3-0.3,4.4-0.4,4.4-0.4s-0.8-4.4-0.8-9.6l0,0c-1.8-3.1-2.6-8.6-1.7-11.9c1.5-5.1,7.8-7.7,12-8.3c4.1-0.7,8.6,0,11.1,3.1 c2.4,3,3,6.1,3,6.1c4-0.3,17.8-1,8.2,3.6c-2.8,1.4-6,2.6-7.8,3.2c0.2,1.2,0.2,2.4,0.2,3.6c-0.3,6.6-1.1,9.6-3.9,11s-1.1,6.4-1.1,6.4 s7.9,0.1,10.7-0.4c2.8-0.5,19.4,0.3,22.7,0s5.9-2.9,9.3-7.1c3.4-4.1,8.8-17,8.8-17l2.2-0.1c0,0-0.4-4-0.4-7L137.1,26.8 c-0.3,0-0.6,0.1-1,0.1c-3.7,0-6.8-3-6.8-6.8s3-6.8,6.8-6.8s6.8,3,6.8,6.8c0,0.1,0,0.3,0,0.4l114.1,100.4c0.4-0.2,0.9-0.3,1.5-0.4 c2.2-0.1,3.6,1.1,5,2.2s4,2.3,4.3,5c0.1,1,0.1,1.8,0,2.5l49.6,43.7c2.1,1.8,13.5,12.8,18.2,20c-8.3-4.3-21-14.9-21.9-15.6 l-49.5-42.6c-0.3,0.4-0.5,0.7-0.5,0.7s1.2,4.5-0.3,8.4c-1.5,4-8.8,19.2-10,21.1c-1.2,2-2.2,4.6-4.6,4.7s-4.5,1.4-12.2,3 c-7.6,1.5-17.7,3-17.7,3s0.2,6.9,0,17.9s-4.6,21.5-3.5,25.3c1.1,3.8,1.6,6.2,5.2,16.5c3.6,10.3,10.1,28.9,13,35.1 c2.9,6.2-0.2,17.8-3.8,27.8s-6.9,27.9-6.9,27.9s1.7,1.9,3.6,3.1c1.8,1.1,2.5,2.8,3.1,5c0.2,0.1,0.4,0.1,0.5,0.1 c4.7,1.1,40.3,24.8,40.3,24.8s7.4-2.6,9.1-3.8s3.7-3.2,3.7-3.2s16.1,19.5,19.6,23.9c3.5,4.4,9.4,12.3,9.4,12.3l24.7,11.4l10.8,10.5 c0,0,4.4,16.4,7.7,20.1c3.3,3.7,13.7,8.1,13.7,8.1s-21.1-1.8-26.1-5.7c-5.1-3.9-11.9-14.2-11.9-14.2l-9.6,5.2c0,0-8.3-8.9-10.6-11.7 c-2.3-2.8-14.1-3.9-14.1-3.9l-0.4-8l-13-25.5l-15.7-2.4l2.9,27.7c0,0-5.6,6.4-10.3,4.4c-4.7-1.9-21.5-16.9-23.2-17.5 c-1.8-0.6-5.8,3.2-5.8,3.2l-4.4-5c0,0-39.5,18.9-40.1,19.9c-0.6,1-8.5,17.4-11.2,19.9c-2.7,2.5-13.4,8.9-16.7,12.2 s8.4-24.4,10.5-28.7c2.2-4.3,4.8-12.3,4.8-12.3s23.4-11.5,25.6-14.5c2.3-2.9,5.7-8.4,5.7-8.4s-7.7-17.3-11.4-23.1 c-3.7-5.8-12.6-15-12.6-15s-24.6,19-28.3,24.8c-3.7,5.7-3.6,16.8-6.1,18.3s-17.3,12.3-17.3,12.3s6.7,16.9,4.3,20.6 c-2.4,3.7-24.2,25.8-24.2,25.8s3.3-17.8,3.8-22.6s2.7-14.7,2.7-14.7s-3.2-7.4-6.5-10.1s-6.2-5.7-6.2-5.7s-11.7,17-14.5,20.6 c-2.8,3.5-13.8,7-13.8,7s-13.3,1.8-18.9,2.9c-5.6,1.1-26.3,11.5-26.3,11.5L10.4,436.9L10.4,436.9z M181.2,318L181.2,318l1.5-1.3 c0,0,13.2,5.5,25.7,10.6c1-12.5,2.2-27.7,2.6-31.1c0.8-6,5.9-12.5,4-17c-1.9-4.5-16.6-24.4-16.6-24.4s-4.6,19.2-4.6,26.6 c0.1,7.4-4.6,12.9-7.1,19.5C185.5,303.6,183.3,310.8,181.2,318z"></path><path class="st8" d="M426.5,155.9H482c0-13.1,0-22.1,0-34.9c-31.2,0-64,0-95.2,0v152.9c13.3,0,26.6,0,39.7,0L426.5,155.9 L426.5,155.9z M655.1,197.7L655.1,197.7c0-105.7-156.8-105.7-156.8,0C498.3,303.6,655.1,303.6,655.1,197.7L655.1,197.7z  M538.5,197.7L538.5,197.7c0-55,76.7-55,76.7,0C615.2,253.1,538.5,253.1,538.5,197.7L538.5,197.7z M722.1,273.9L722.1,273.9v-39.1 h28.2c73.2,0,73.2-113.6,0-113.8c-22.5,0-45.2,0-67.3,0c0,51.1,0,102,0,152.9C695.9,273.9,709,273.9,722.1,273.9L722.1,273.9z  M750,199.6L750,199.6h-28c0-12.5,0-31.2,0-43.7c9,0,18.8-0.2,28,0C772.7,156.2,771.4,199.6,750,199.6L750,199.6z M928.4,121 L928.4,121c-35.8,0-60.1,0-95.4,0c0,50.7,0,101.8,0,152.9c35.4,0,61.6,0,97.4,0c0-11.6,0-23.4,0-34.7c-22.9,0-36,0-58.5,0 c0-9.2,0-17.9,0-26.9h52c0-11.6,0-23.1,0-34.7h-52v-21.6c22.5,0,33.9,0,56.6,0C928.4,144.1,928.4,132.3,928.4,121L928.4,121z  M962.4,273.9L962.4,273.9H1070v60.8h32.1V240h-15.5V121h-40v116.9h-44.3V121h-40L962.4,273.9L962.4,273.9z M732,318.1 c-3.7,0-6.2-2.6-6.2-6.2c0-3.5,2.5-6,6.2-6h8.2v12.2H732L732,318.1z M719,333.4L719,333.4v0.8h5.9l7.9-11.6h7.3v11.6h5.5V301h-13.7 c-7.2,0-11.5,5-11.5,11c0.1,4.6,2.7,8.3,6.9,9.8L719,333.4L719,333.4z M715.9,301L715.9,301h-20.2v33.2h20.5v-5h-14.9v-9.7h13.8 v-4.9h-13.8v-8.8h14.6V301L715.9,301z M692.1,305.9L692.1,305.9c0-1.8,0-3.1,0-4.9c-6.5,0-13.3,0-19.8,0c0,11,0,22.1,0,33.2 c1.8,0,3.7,0,5.5,0c0-9.5,0-18.9,0-28.3L692.1,305.9L692.1,305.9z M648.2,319.4L648.2,319.4v-13.6h8.3c3.8,0,6.4,2.9,6.4,6.8 c0,3.8-2.7,6.8-6.4,6.8H648.2L648.2,319.4z M648.3,334.2L648.3,334.2v-9.9h8.2c7.3,0,11.7-5.3,11.7-11.5c0-6.3-4.3-11.7-11.7-11.7 h-13.7v33.2H648.3L648.3,334.2z M636.8,301L636.8,301h-20.2v33.2h20.5v-5h-14.9v-9.7H636v-4.9h-13.8v-8.8h14.6L636.8,301L636.8,301z  M579.9,317.6L579.9,317.6c0,10.7,7.8,16.9,16.8,16.9c6.7,0,13.5-3.5,15.2-11.6h-5.4c-1.5,4.4-5.3,6.6-9.9,6.6 c-6.8,0-11.3-5.3-11.3-11.9c0-7.1,4.5-12,11.3-12c4.4,0.1,8.1,1.9,9.7,6.1h5.3c-1.8-7.5-8.5-11.1-15-11.1 C587.8,300.6,579.9,306.9,579.9,317.6L579.9,317.6z M1023.1,317.6c0-7.7,5.1-12,11.4-12c6.2,0,11.3,4.4,11.3,12 c0,7.7-5.2,11.9-11.4,11.9C1028.1,329.5,1023.1,325.3,1023.1,317.6L1023.1,317.6z M1051.3,317.6L1051.3,317.6 c0-10.8-7.8-17.2-16.9-17.2c-9,0-16.9,6.3-16.9,17.2c0,10.8,7.7,17.2,16.8,17.2C1044.3,334.7,1051.3,327.7,1051.3,317.6 L1051.3,317.6z M995.2,301L995.2,301h-5.5v33.2h5.5v-14c1.6,0,4.8,0,6.2-0.5l9.5,14.5h6.3v-0.8l-10.9-15.9c2.2-2,3.3-5.3,4.3-8.9 c1-3.4,2.2-4,5.5-3.8v-3.8c-6.8-1.3-9.4,1.7-10.6,6c-0.9,3.5-1.8,6.8-3.8,7.9c-1.5,0.7-4,0.8-6.5,0.8L995.2,301L995.2,301z  M982.6,334.2L982.6,334.2V301h-5.5v13.3H962V301h-5.5v33.2h5.5v-14.8h15.2v14.8H982.6L982.6,334.2z M950.5,301L950.5,301h-20.2 v33.2h20.5v-5h-14.9v-9.7h13.8v-4.9h-13.8v-8.8h14.6V301L950.5,301z M893.7,317.6L893.7,317.6c0,10.7,7.8,16.9,16.8,16.9 c6.7,0,13.5-3.5,15.2-11.6h-5.4c-1.5,4.4-5.3,6.6-9.9,6.6c-6.8,0-11.3-5.3-11.3-11.9c0-7.1,4.5-12,11.3-12c4.4,0.1,8.1,1.9,9.7,6.1 h5.3c-1.8-7.5-8.5-11.1-15-11.1C901.5,300.6,893.7,306.9,893.7,317.6L893.7,317.6L893.7,317.6z M883.6,311.6L883.6,311.6l-0.4,10.5 v12h5.4v-33.2h-2l-20.1,22.3l0.4-10.1V301h-5.5v33.2h1.9L883.6,311.6L883.6,311.6z M854.4,334.2L854.4,334.2V301h-5.5v13.3h-15.2 V301h-5.5v33.2h5.5v-14.8h15.2v14.8H854.4L854.4,334.2z M822.3,301L822.3,301h-20.2v33.2h20.5v-5h-14.9v-9.7h13.8v-4.9h-13.8v-8.8 h14.6V301L822.3,301z M765.3,329.4L765.3,329.4v9.7h5.2v-4.9c7.8,0,14.1,0,21.8,0v4.9h5.1v-9.7h-3.5V301c-6.4,0-14.2,0-20.6,0 l-2.7,23.4c-0.4,3.3-1,5-4.1,5H765.3L765.3,329.4z M778.1,305.8L778.1,305.8h10.4v23.8H774c1.4-1,1.8-3.3,2-4.9L778.1,305.8z  M550.1,305.9v28.3h5.4v-28.3h9.6V301h-24.6v4.9H550.1L550.1,305.9z M518.1,301L518.1,301h-5.5v33.2h5.5v-14c1.6,0,4.8,0,6.2-0.5 l9.5,14.5h6.3v-0.8l-10.9-15.9c2.2-2,3.3-5.3,4.3-8.9c1-3.4,2.2-4,5.5-3.8v-3.8c-6.8-1.3-9.4,1.7-10.6,6c-0.9,3.5-1.8,6.8-3.8,7.9 c-1.5,0.7-4,0.8-6.5,0.8L518.1,301L518.1,301z M506.6,301L506.6,301h-20.2v33.2h20.5v-5H492v-9.7h13.8v-4.9H492v-8.8h14.6V301 L506.6,301z M453.2,317.6L453.2,317.6c0-7.7,5.1-12,11.4-12c6.2,0,11.3,4.4,11.3,12c0,7.7-5.2,11.9-11.4,11.9 C458.3,329.5,453.2,325.3,453.2,317.6L453.2,317.6z M481.4,317.6L481.4,317.6c0-10.8-7.8-17.2-16.9-17.2c-9,0-16.9,6.3-16.9,17.2 c0,10.8,7.7,17.2,16.8,17.2C474.4,334.7,481.4,327.7,481.4,317.6L481.4,317.6z M425.4,319.4L425.4,319.4v-13.6h8.3 c3.8,0,6.4,2.9,6.4,6.8c0,3.8-2.7,6.8-6.4,6.8H425.4L425.4,319.4z M425.5,334.2L425.5,334.2v-9.9h8.2c7.3,0,11.7-5.3,11.7-11.5 c0-6.3-4.3-11.7-11.7-11.7h-13.7v33.2H425.5L425.5,334.2z M386.8,301L386.8,301v33.2c1.8,0,3.7,0,5.5,0V306h15.1v28.1 c1.8,0,3.7,0,5.5,0V301H386.8z"></path></svg>