<svg width="99" height="30" viewBox="0 0 99 30" fill="none" xmlns="http://www.w3.org/2000/svg">
<path d="M4.87842 14.8198C5.44155 14.7072 6.90578 14.4819 7.91947 13.4683C9.44932 11.9384 10.2847 11.4409 11.2984 11.4409C12.9879 11.4409 15.0152 12.7925 19.07 16.8472" stroke="#E46D07" stroke-width="2"/>
<path d="M13.6993 13.0591C14.0331 13.226 14.439 13.0906 14.6059 12.7568C14.7728 12.423 14.6375 12.0171 14.3037 11.8501L13.6993 13.0591ZM14.3037 11.8501C12.8301 11.1134 11.6989 11.1449 10.9116 11.6942C10.1882 12.1989 9.94676 13.0195 9.94676 13.4682H11.2983C11.2983 13.4682 11.2983 13.4676 11.2984 13.4661C11.2985 13.4648 11.2985 13.4628 11.2987 13.4601C11.2991 13.4548 11.2998 13.4476 11.301 13.4385C11.3033 13.4201 11.3075 13.3963 11.3142 13.3682C11.3277 13.3114 11.35 13.244 11.3828 13.1735C11.4492 13.0311 11.5486 12.8977 11.685 12.8026C11.9115 12.6447 12.4697 12.4442 13.6993 13.0591L14.3037 11.8501ZM9.94676 13.4682C9.94676 14.2245 10.3311 14.8173 10.8071 15.2404C11.2772 15.6583 11.8749 15.9497 12.4362 16.1367L12.8636 14.8546C12.4112 14.7037 11.9952 14.4882 11.7051 14.2303C11.4209 13.9777 11.2983 13.7257 11.2983 13.4682H9.94676ZM12.4362 16.1367C12.9108 16.2949 13.3397 16.4955 13.6348 16.8792C13.9171 17.2462 14.1609 17.8948 14.0067 19.1286L15.3479 19.2963C15.5315 17.827 15.2685 16.7862 14.7061 16.055C14.1564 15.3405 13.4027 15.0342 12.8636 14.8546L12.4362 16.1367ZM14.0067 19.1286C13.869 20.2302 13.0934 21.4282 11.638 22.4116C10.1909 23.3894 8.11544 24.1194 5.51196 24.2821L5.5963 25.6311C8.39913 25.4559 10.7163 24.6655 12.3947 23.5315C14.0648 22.403 15.1476 20.8979 15.3479 19.2963L14.0067 19.1286Z" fill="#E46D07"/>
<path d="M24.6821 13.7322C24.6821 17.9806 23.3209 21.6904 20.5983 24.8616C17.8759 28.0329 14.0613 29.6185 9.15481 29.6185C6.94092 29.6185 3.88933 29.5288 0 29.3493C0.194465 24.8317 0.291697 19.7382 0.291697 14.0688C0.291697 8.6238 0.194465 3.97904 0 0.13463H3.9267C4.56992 0.13463 5.52731 0.112194 6.7988 0.0673152C8.0703 0.0224428 8.90051 0 9.28942 0C14.6896 0 18.6013 1.3463 21.0247 4.03891C23.463 6.73145 24.6821 9.9626 24.6821 13.7322ZM18.5564 14.6971C18.5564 11.825 17.7188 9.40913 16.0434 7.44955C14.368 5.47496 11.81 4.48763 8.36947 4.48763C7.72626 4.48763 6.84368 4.55494 5.72173 4.68963C5.87135 7.68134 5.94616 10.8078 5.94616 14.0688C5.94616 17.644 6.02097 21.1892 6.17052 24.7046C7.14285 24.899 8.11517 24.9963 9.0875 24.9963C12.3036 24.9963 14.6821 24.0015 16.2229 22.012C17.7786 20.0075 18.5564 17.5692 18.5564 14.6971ZM48.9828 29.3268L43.7322 29.5063C43.4929 28.6986 43.3732 28.0554 43.3732 27.5767H43.0142C41.0546 29.1922 38.7659 30 36.1481 30C33.6798 30 31.8175 29.3568 30.5609 28.0703C29.3194 26.7689 28.6985 24.181 28.6985 20.3066C28.6985 19.8429 28.706 19.1922 28.721 18.3545C28.7509 17.5168 28.7659 16.7838 28.7659 16.1556C28.7659 14.4951 28.6238 11.8474 28.3396 8.21244L34.5999 7.98802C34.3605 10.8601 34.2408 13.5827 34.2408 16.1556C34.2408 19.8205 34.5101 22.2887 35.0486 23.5602C35.6021 24.8317 36.6791 25.4675 38.2797 25.4675C40.0299 25.4675 41.5407 25.0486 42.8122 24.2109C42.8122 16.3426 42.7225 11.0022 42.543 8.19001L48.6013 7.98802C48.4518 10.8152 48.377 14.4802 48.377 18.9828C48.377 22.3186 48.5789 25.7667 48.9828 29.3268ZM74.069 29.3493H68.1004C68.4295 25.5647 68.5937 21.7352 68.5937 17.8609C68.5937 15.5123 68.2423 13.9192 67.5395 13.0815C66.8509 12.2439 65.7966 11.825 64.3754 11.825C62.6702 11.825 61.0546 12.4083 59.5288 13.5752C59.6036 19.4091 59.641 24.6672 59.641 29.3493H53.6051C53.8744 24.6672 54.009 20.9873 54.009 18.3097C54.009 14.7345 53.6425 11.3613 52.9095 8.19001L58.6537 7.56173L59.0352 9.94017H59.3941C61.4435 8.17501 63.7995 7.29243 66.4623 7.29243C68.766 7.29243 70.6055 7.83846 71.9821 8.93047C73.3729 10.0075 74.069 12.0045 74.069 14.9215C74.069 15.3553 74.0467 15.9387 74.0014 16.6716C73.9716 17.3897 73.9568 18.1301 73.9568 18.893C73.9568 20.9125 73.9939 24.3979 74.069 29.3493ZM98.5487 16.4024C98.5487 17.1653 98.5041 18.1601 98.4142 19.3867L83.9638 19.6335C84.1733 21.3238 84.8991 22.73 86.1406 23.8519C87.382 24.9738 89.0127 25.5348 91.0319 25.5348C93.2762 25.5348 95.6617 25.1982 98.1899 24.525L97.7411 28.8781C95.6766 29.626 93.1188 30 90.0676 30C86.2081 30 83.2462 28.9155 81.1816 26.7464C79.1326 24.5774 78.1075 21.9671 78.1075 18.9154C78.1075 15.7292 79.0799 12.9693 81.0248 10.6358C82.984 8.28719 85.6993 7.11294 89.1694 7.11294C92.3409 7.11294 94.6974 7.97308 96.2375 9.69337C97.7783 11.4136 98.5487 13.65 98.5487 16.4024ZM93.2985 16.2005C93.2985 12.7599 91.8327 11.0396 88.9005 11.0396C86.1034 11.0396 84.443 12.8198 83.9192 16.38L93.2985 16.2005Z" fill="#E46D07"/>
</svg>
