<svg width="153" height="68" viewBox="0 0 153 68" fill="none" xmlns="http://www.w3.org/2000/svg">
<path d="M12 27.5C12.8333 27.3333 15 27 16.5 25.5C18.7638 23.2362 20 22.5 21.5 22.5C24 22.5 27 24.5 33 30.5" stroke="#E46D07" stroke-width="2"/>
<path d="M25.0528 24.8945C25.5468 25.1415 26.1474 24.9412 26.3944 24.4472C26.6414 23.9533 26.4412 23.3526 25.9472 23.1056L25.0528 24.8945ZM25.9472 23.1056C23.7667 22.0154 22.0927 22.062 20.9278 22.8748C19.8573 23.6217 19.5 24.8359 19.5 25.5H21.5C21.5 25.5 21.5 25.499 21.5001 25.4969C21.5002 25.4949 21.5003 25.4919 21.5006 25.488C21.5011 25.4801 21.5021 25.4694 21.5039 25.456C21.5074 25.4287 21.5136 25.3936 21.5235 25.3519C21.5435 25.2679 21.5764 25.1681 21.625 25.0638C21.7233 24.8532 21.8704 24.6558 22.0722 24.515C22.4073 24.2813 23.2333 23.9847 25.0528 24.8945L25.9472 23.1056ZM19.5 25.5C19.5 26.6191 20.0687 27.4963 20.7731 28.1224C21.4688 28.7408 22.3532 29.1719 23.1838 29.4487L23.8162 27.5514C23.1468 27.3282 22.5312 27.0093 22.1019 26.6276C21.6813 26.2538 21.5 25.8809 21.5 25.5H19.5ZM23.1838 29.4487C23.886 29.6828 24.5207 29.9796 24.9574 30.5473C25.3752 31.0904 25.7359 32.0502 25.5077 33.876L27.4923 34.1241C27.7641 31.9499 27.3748 30.4097 26.5426 29.3278C25.7293 28.2705 24.614 27.8173 23.8162 27.5514L23.1838 29.4487ZM25.5077 33.876C25.304 35.506 24.1563 37.2787 22.0026 38.7339C19.8613 40.1808 16.7901 41.2611 12.9376 41.5019L13.0624 43.498C17.2099 43.2388 20.6387 42.0692 23.1224 40.3911C25.5937 38.7213 27.196 36.4941 27.4923 34.1241L25.5077 33.876Z" fill="#E46D07"/>
<path d="M10.534 58.377V59.84H8.235V66H6.519V59.84H4.22V58.377H10.534ZM14.3978 66.099C13.9798 66.099 13.5618 66.0843 13.1438 66.055C12.7332 66.033 12.3042 65.9743 11.8568 65.879V58.487C12.2088 58.421 12.5938 58.3733 13.0118 58.344C13.4298 58.3073 13.8185 58.289 14.1778 58.289C14.6618 58.289 15.1055 58.3257 15.5088 58.399C15.9195 58.465 16.2715 58.5823 16.5648 58.751C16.8582 58.9197 17.0855 59.1433 17.2468 59.422C17.4155 59.6933 17.4998 60.0307 17.4998 60.434C17.4998 61.0427 17.2065 61.523 16.6198 61.875C17.1038 62.0583 17.4338 62.3077 17.6098 62.623C17.7858 62.9383 17.8738 63.294 17.8738 63.69C17.8738 64.4893 17.5805 65.0907 16.9938 65.494C16.4145 65.8973 15.5492 66.099 14.3978 66.099ZM13.5288 62.678V64.647C13.6535 64.6617 13.7892 64.6727 13.9358 64.68C14.0825 64.6873 14.2438 64.691 14.4198 64.691C14.9332 64.691 15.3475 64.6177 15.6628 64.471C15.9782 64.3243 16.1358 64.053 16.1358 63.657C16.1358 63.305 16.0038 63.0557 15.7398 62.909C15.4758 62.755 15.0982 62.678 14.6068 62.678H13.5288ZM13.5288 61.369H14.3648C14.8928 61.369 15.2705 61.303 15.4978 61.171C15.7252 61.0317 15.8388 60.8117 15.8388 60.511C15.8388 60.203 15.7215 59.9867 15.4868 59.862C15.2522 59.7373 14.9075 59.675 14.4528 59.675C14.3062 59.675 14.1485 59.6787 13.9798 59.686C13.8112 59.686 13.6608 59.6933 13.5288 59.708V61.369ZM20.9085 62.183C20.9085 62.557 20.9525 62.8943 21.0405 63.195C21.1358 63.4957 21.2678 63.756 21.4365 63.976C21.6125 64.1887 21.8251 64.3537 22.0745 64.471C22.3238 64.5883 22.6098 64.647 22.9325 64.647C23.2478 64.647 23.5301 64.5883 23.7795 64.471C24.0361 64.3537 24.2488 64.1887 24.4175 63.976C24.5935 63.756 24.7255 63.4957 24.8135 63.195C24.9088 62.8943 24.9565 62.557 24.9565 62.183C24.9565 61.809 24.9088 61.4717 24.8135 61.171C24.7255 60.863 24.5935 60.6027 24.4175 60.39C24.2488 60.17 24.0361 60.0013 23.7795 59.884C23.5301 59.7667 23.2478 59.708 22.9325 59.708C22.6098 59.708 22.3238 59.7703 22.0745 59.895C21.8251 60.0123 21.6125 60.181 21.4365 60.401C21.2678 60.6137 21.1358 60.874 21.0405 61.182C20.9525 61.4827 20.9085 61.8163 20.9085 62.183ZM26.7275 62.183C26.7275 62.8357 26.6285 63.4113 26.4305 63.91C26.2398 64.4013 25.9758 64.8157 25.6385 65.153C25.3011 65.483 24.8978 65.7323 24.4285 65.901C23.9665 66.0697 23.4678 66.154 22.9325 66.154C22.4118 66.154 21.9205 66.0697 21.4585 65.901C20.9965 65.7323 20.5931 65.483 20.2485 65.153C19.9038 64.8157 19.6325 64.4013 19.4345 63.91C19.2365 63.4113 19.1375 62.8357 19.1375 62.183C19.1375 61.5303 19.2401 60.9583 19.4455 60.467C19.6508 59.9683 19.9258 59.5503 20.2705 59.213C20.6225 58.8757 21.0258 58.6227 21.4805 58.454C21.9425 58.2853 22.4265 58.201 22.9325 58.201C23.4531 58.201 23.9445 58.2853 24.4065 58.454C24.8685 58.6227 25.2718 58.8757 25.6165 59.213C25.9611 59.5503 26.2325 59.9683 26.4305 60.467C26.6285 60.9583 26.7275 61.5303 26.7275 62.183ZM30.6659 58.289C31.8026 58.289 32.6752 58.4907 33.2839 58.894C33.8926 59.29 34.1969 59.9427 34.1969 60.852C34.1969 61.7687 33.8889 62.4323 33.2729 62.843C32.6569 63.2463 31.7769 63.448 30.6329 63.448H30.0939V66H28.3779V58.487C28.7519 58.4137 29.1479 58.3623 29.5659 58.333C29.9839 58.3037 30.3506 58.289 30.6659 58.289ZM30.7759 59.752C30.6512 59.752 30.5266 59.7557 30.4019 59.763C30.2846 59.7703 30.1819 59.7777 30.0939 59.785V61.985H30.6329C31.2269 61.985 31.6742 61.9043 31.9749 61.743C32.2756 61.5817 32.4259 61.281 32.4259 60.841C32.4259 60.6283 32.3856 60.4523 32.3049 60.313C32.2316 60.1737 32.1216 60.0637 31.9749 59.983C31.8356 59.895 31.6632 59.8363 31.4579 59.807C31.2526 59.7703 31.0252 59.752 30.7759 59.752ZM35.677 66V58.377H37.382V62.876C37.646 62.48 37.9283 62.0693 38.229 61.644C38.5297 61.2113 38.8303 60.797 39.131 60.401C39.439 59.9977 39.7397 59.62 40.033 59.268C40.3263 58.916 40.594 58.619 40.836 58.377H42.233V66H40.539V61.006C39.8937 61.7613 39.285 62.5643 38.713 63.415C38.141 64.2657 37.6093 65.1273 37.118 66H35.677ZM49.615 66.099C49.197 66.099 48.779 66.0843 48.361 66.055C47.9504 66.033 47.5214 65.9743 47.074 65.879V58.487C47.426 58.421 47.811 58.3733 48.229 58.344C48.647 58.3073 49.0357 58.289 49.395 58.289C49.879 58.289 50.3227 58.3257 50.726 58.399C51.1367 58.465 51.4887 58.5823 51.782 58.751C52.0754 58.9197 52.3027 59.1433 52.464 59.422C52.6327 59.6933 52.717 60.0307 52.717 60.434C52.717 61.0427 52.4237 61.523 51.837 61.875C52.321 62.0583 52.651 62.3077 52.827 62.623C53.003 62.9383 53.091 63.294 53.091 63.69C53.091 64.4893 52.7977 65.0907 52.211 65.494C51.6317 65.8973 50.7664 66.099 49.615 66.099ZM48.746 62.678V64.647C48.8707 64.6617 49.0064 64.6727 49.153 64.68C49.2997 64.6873 49.461 64.691 49.637 64.691C50.1504 64.691 50.5647 64.6177 50.88 64.471C51.1954 64.3243 51.353 64.053 51.353 63.657C51.353 63.305 51.221 63.0557 50.957 62.909C50.693 62.755 50.3154 62.678 49.824 62.678H48.746ZM48.746 61.369H49.582C50.11 61.369 50.4877 61.303 50.715 61.171C50.9424 61.0317 51.056 60.8117 51.056 60.511C51.056 60.203 50.9387 59.9867 50.704 59.862C50.4694 59.7373 50.1247 59.675 49.67 59.675C49.5234 59.675 49.3657 59.6787 49.197 59.686C49.0284 59.686 48.878 59.6933 48.746 59.708V61.369ZM56.1256 62.183C56.1256 62.557 56.1696 62.8943 56.2576 63.195C56.353 63.4957 56.485 63.756 56.6536 63.976C56.8296 64.1887 57.0423 64.3537 57.2916 64.471C57.541 64.5883 57.827 64.647 58.1496 64.647C58.465 64.647 58.7473 64.5883 58.9966 64.471C59.2533 64.3537 59.466 64.1887 59.6346 63.976C59.8106 63.756 59.9426 63.4957 60.0306 63.195C60.126 62.8943 60.1736 62.557 60.1736 62.183C60.1736 61.809 60.126 61.4717 60.0306 61.171C59.9426 60.863 59.8106 60.6027 59.6346 60.39C59.466 60.17 59.2533 60.0013 58.9966 59.884C58.7473 59.7667 58.465 59.708 58.1496 59.708C57.827 59.708 57.541 59.7703 57.2916 59.895C57.0423 60.0123 56.8296 60.181 56.6536 60.401C56.485 60.6137 56.353 60.874 56.2576 61.182C56.1696 61.4827 56.1256 61.8163 56.1256 62.183ZM61.9446 62.183C61.9446 62.8357 61.8456 63.4113 61.6477 63.91C61.457 64.4013 61.193 64.8157 60.8556 65.153C60.5183 65.483 60.115 65.7323 59.6456 65.901C59.1836 66.0697 58.685 66.154 58.1496 66.154C57.629 66.154 57.1376 66.0697 56.6756 65.901C56.2136 65.7323 55.8103 65.483 55.4656 65.153C55.121 64.8157 54.8496 64.4013 54.6516 63.91C54.4536 63.4113 54.3546 62.8357 54.3546 62.183C54.3546 61.5303 54.4573 60.9583 54.6626 60.467C54.868 59.9683 55.143 59.5503 55.4876 59.213C55.8396 58.8757 56.243 58.6227 56.6976 58.454C57.1596 58.2853 57.6436 58.201 58.1496 58.201C58.6703 58.201 59.1616 58.2853 59.6236 58.454C60.0856 58.6227 60.489 58.8757 60.8336 59.213C61.1783 59.5503 61.4496 59.9683 61.6477 60.467C61.8456 60.9583 61.9446 61.5303 61.9446 62.183ZM67.0711 66.154C65.8317 66.154 64.8857 65.8093 64.2331 65.12C63.5877 64.4307 63.2651 63.4517 63.2651 62.183C63.2651 61.5523 63.3641 60.9913 63.5621 60.5C63.7601 60.0013 64.0314 59.5833 64.3761 59.246C64.7207 58.9013 65.1314 58.641 65.6081 58.465C66.0847 58.289 66.6017 58.201 67.1591 58.201C67.4817 58.201 67.7751 58.2267 68.0391 58.278C68.3031 58.322 68.5341 58.377 68.7321 58.443C68.9301 58.5017 69.0951 58.564 69.2271 58.63C69.3591 58.696 69.4544 58.7473 69.5131 58.784L69.0181 60.17C68.7834 60.0453 68.5084 59.939 68.1931 59.851C67.8851 59.763 67.5331 59.719 67.1371 59.719C66.8731 59.719 66.6127 59.763 66.3561 59.851C66.1067 59.939 65.8831 60.082 65.6851 60.28C65.4944 60.4707 65.3404 60.72 65.2231 61.028C65.1057 61.336 65.0471 61.71 65.0471 62.15C65.0471 62.502 65.0837 62.832 65.1571 63.14C65.2377 63.4407 65.3624 63.701 65.5311 63.921C65.7071 64.141 65.9344 64.317 66.2131 64.449C66.4917 64.5737 66.8291 64.636 67.2251 64.636C67.4744 64.636 67.6981 64.6213 67.8961 64.592C68.0941 64.5627 68.2701 64.5297 68.4241 64.493C68.5781 64.449 68.7137 64.4013 68.8311 64.35C68.9484 64.2987 69.0547 64.251 69.1501 64.207L69.6231 65.582C69.3811 65.7287 69.0401 65.8607 68.6001 65.978C68.1601 66.0953 67.6504 66.154 67.0711 66.154ZM77.2179 58.377V66H75.5019V59.829H72.6639V66H70.9479V58.377H77.2179ZM80.644 62.183C80.644 62.557 80.688 62.8943 80.776 63.195C80.8714 63.4957 81.0034 63.756 81.172 63.976C81.348 64.1887 81.5607 64.3537 81.81 64.471C82.0594 64.5883 82.3454 64.647 82.668 64.647C82.9834 64.647 83.2657 64.5883 83.515 64.471C83.7717 64.3537 83.9844 64.1887 84.153 63.976C84.329 63.756 84.461 63.4957 84.549 63.195C84.6444 62.8943 84.692 62.557 84.692 62.183C84.692 61.809 84.6444 61.4717 84.549 61.171C84.461 60.863 84.329 60.6027 84.153 60.39C83.9844 60.17 83.7717 60.0013 83.515 59.884C83.2657 59.7667 82.9834 59.708 82.668 59.708C82.3454 59.708 82.0594 59.7703 81.81 59.895C81.5607 60.0123 81.348 60.181 81.172 60.401C81.0034 60.6137 80.8714 60.874 80.776 61.182C80.688 61.4827 80.644 61.8163 80.644 62.183ZM86.463 62.183C86.463 62.8357 86.364 63.4113 86.166 63.91C85.9754 64.4013 85.7114 64.8157 85.374 65.153C85.0367 65.483 84.6334 65.7323 84.164 65.901C83.702 66.0697 83.2034 66.154 82.668 66.154C82.1474 66.154 81.656 66.0697 81.194 65.901C80.732 65.7323 80.3287 65.483 79.984 65.153C79.6394 64.8157 79.368 64.4013 79.17 63.91C78.972 63.4113 78.873 62.8357 78.873 62.183C78.873 61.5303 78.9757 60.9583 79.181 60.467C79.3864 59.9683 79.6614 59.5503 80.006 59.213C80.358 58.8757 80.7614 58.6227 81.216 58.454C81.678 58.2853 82.162 58.201 82.668 58.201C83.1887 58.201 83.68 58.2853 84.142 58.454C84.604 58.6227 85.0074 58.8757 85.352 59.213C85.6967 59.5503 85.968 59.9683 86.166 60.467C86.364 60.9583 86.463 61.5303 86.463 62.183ZM90.1375 58.377C90.2695 58.619 90.4198 58.9197 90.5885 59.279C90.7645 59.631 90.9441 60.016 91.1275 60.434C91.3181 60.8447 91.5051 61.2663 91.6885 61.699C91.8718 62.1317 92.0441 62.5387 92.2055 62.92C92.3668 62.5387 92.5391 62.1317 92.7225 61.699C92.9058 61.2663 93.0891 60.8447 93.2725 60.434C93.4631 60.016 93.6428 59.631 93.8115 59.279C93.9875 58.9197 94.1415 58.619 94.2735 58.377H95.8355C95.9088 58.883 95.9748 59.4513 96.0335 60.082C96.0995 60.7053 96.1545 61.358 96.1985 62.04C96.2498 62.7147 96.2938 63.393 96.3305 64.075C96.3745 64.757 96.4111 65.3987 96.4405 66H94.7685C94.7465 65.2593 94.7171 64.4527 94.6805 63.58C94.6438 62.7073 94.5888 61.8273 94.5155 60.94C94.3835 61.248 94.2368 61.589 94.0755 61.963C93.9141 62.337 93.7528 62.711 93.5915 63.085C93.4375 63.459 93.2871 63.8183 93.1405 64.163C92.9938 64.5003 92.8691 64.79 92.7665 65.032H91.5675C91.4648 64.79 91.3401 64.5003 91.1935 64.163C91.0468 63.8183 90.8928 63.459 90.7315 63.085C90.5775 62.711 90.4198 62.337 90.2585 61.963C90.0971 61.589 89.9505 61.248 89.8185 60.94C89.7451 61.8273 89.6901 62.7073 89.6535 63.58C89.6168 64.4527 89.5875 65.2593 89.5655 66H87.8935C87.9228 65.3987 87.9558 64.757 87.9925 64.075C88.0365 63.393 88.0805 62.7147 88.1245 62.04C88.1758 61.358 88.2308 60.7053 88.2895 60.082C88.3555 59.4513 88.4251 58.883 88.4985 58.377H90.1375ZM98.2055 66V58.377H99.9105V62.876C100.175 62.48 100.457 62.0693 100.758 61.644C101.058 61.2113 101.359 60.797 101.66 60.401C101.968 59.9977 102.268 59.62 102.562 59.268C102.855 58.916 103.123 58.619 103.365 58.377H104.762V66H103.068V61.006C102.422 61.7613 101.814 62.5643 101.242 63.415C100.67 64.2657 100.138 65.1273 99.6465 66H98.2055ZM111.338 58.377H113.054V66H111.338V62.766H108.456V66H106.74V58.377H108.456V61.292H111.338V58.377ZM120.142 66C120.061 65.736 119.97 65.4647 119.867 65.186C119.772 64.9073 119.676 64.6287 119.581 64.35H116.611C116.516 64.6287 116.417 64.9073 116.314 65.186C116.219 65.4647 116.131 65.736 116.05 66H114.268C114.554 65.1787 114.825 64.4197 115.082 63.723C115.339 63.0263 115.588 62.37 115.83 61.754C116.079 61.138 116.321 60.555 116.556 60.005C116.798 59.4477 117.047 58.905 117.304 58.377H118.943C119.192 58.905 119.438 59.4477 119.68 60.005C119.922 60.555 120.164 61.138 120.406 61.754C120.655 62.37 120.908 63.0263 121.165 63.723C121.422 64.4197 121.693 65.1787 121.979 66H120.142ZM118.085 60.104C118.048 60.214 117.993 60.3643 117.92 60.555C117.847 60.7457 117.762 60.9657 117.667 61.215C117.572 61.4643 117.465 61.7393 117.348 62.04C117.238 62.3407 117.124 62.656 117.007 62.986H119.174C119.057 62.656 118.943 62.3407 118.833 62.04C118.723 61.7393 118.617 61.4643 118.514 61.215C118.419 60.9657 118.334 60.7457 118.261 60.555C118.188 60.3643 118.129 60.214 118.085 60.104ZM127.784 58.377H129.5V66H127.784V62.766H124.902V66H123.186V58.377H124.902V61.292H127.784V58.377ZM131.484 66V58.377H133.189V62.876C133.453 62.48 133.735 62.0693 134.036 61.644C134.337 61.2113 134.637 60.797 134.938 60.401C135.246 59.9977 135.547 59.62 135.84 59.268C136.133 58.916 136.401 58.619 136.643 58.377H138.04V66H136.346V61.006C135.701 61.7613 135.092 62.5643 134.52 63.415C133.948 64.2657 133.416 65.1273 132.925 66H131.484ZM143.45 59.774C143.23 59.774 143.018 59.7923 142.812 59.829C142.614 59.8583 142.438 59.9133 142.284 59.994C142.13 60.0673 142.006 60.1737 141.91 60.313C141.815 60.445 141.767 60.6137 141.767 60.819C141.767 61.2077 141.903 61.4753 142.174 61.622C142.453 61.7687 142.864 61.842 143.406 61.842H144.121V59.785C144.033 59.7777 143.938 59.774 143.835 59.774C143.733 59.774 143.604 59.774 143.45 59.774ZM143.527 58.3C143.835 58.3 144.195 58.3183 144.605 58.355C145.023 58.3917 145.434 58.454 145.837 58.542V66H144.121V63.261H143.593C143.498 63.261 143.406 63.261 143.318 63.261C143.23 63.261 143.124 63.2537 142.999 63.239C142.757 63.569 142.49 63.9833 142.196 64.482C141.91 64.9733 141.643 65.4793 141.393 66H139.578C139.71 65.6993 139.85 65.4023 139.996 65.109C140.15 64.8157 140.304 64.537 140.458 64.273C140.612 64.009 140.763 63.767 140.909 63.547C141.056 63.3197 141.192 63.1217 141.316 62.953C141.155 62.8797 140.994 62.7843 140.832 62.667C140.678 62.5423 140.539 62.3957 140.414 62.227C140.29 62.0583 140.187 61.8603 140.106 61.633C140.033 61.3983 139.996 61.1307 139.996 60.83C139.996 60.412 140.077 60.0453 140.238 59.73C140.407 59.4147 140.642 59.1507 140.942 58.938C141.25 58.7253 141.621 58.5677 142.053 58.465C142.493 58.355 142.985 58.3 143.527 58.3ZM149.395 60.346C149.395 60.94 149.373 61.4937 149.329 62.007C149.285 62.5203 149.227 63.041 149.153 63.569H147.899C147.826 63.041 147.764 62.5203 147.712 62.007C147.668 61.4937 147.646 60.94 147.646 60.346V58.377H149.395V60.346ZM149.538 65.131C149.538 65.4537 149.432 65.703 149.219 65.879C149.014 66.055 148.779 66.143 148.515 66.143C148.251 66.143 148.013 66.055 147.8 65.879C147.595 65.703 147.492 65.4537 147.492 65.131C147.492 64.8083 147.595 64.559 147.8 64.383C148.013 64.207 148.251 64.119 148.515 64.119C148.779 64.119 149.014 64.207 149.219 64.383C149.432 64.559 149.538 64.8083 149.538 65.131Z" fill="#E46D07"/>
<path d="M41.3047 25.8906C41.3047 32.1771 39.2904 37.6667 35.2617 42.3594C31.2331 47.0521 25.5885 49.3984 18.3281 49.3984C15.0521 49.3984 10.5365 49.2656 4.78125 49C5.06901 42.3151 5.21289 34.778 5.21289 26.3887C5.21289 18.3314 5.06901 11.4583 4.78125 5.76953H10.5918C11.5436 5.76953 12.9603 5.73633 14.8418 5.66992C16.7233 5.60352 17.9518 5.57031 18.5273 5.57031C26.5182 5.57031 32.3066 7.5625 35.8926 11.5469C39.5007 15.5312 41.3047 20.3125 41.3047 25.8906ZM32.2402 27.3184C32.2402 23.0684 31.0007 19.4935 28.5215 16.5938C26.0423 13.6719 22.2572 12.2109 17.166 12.2109C16.2142 12.2109 14.9082 12.3105 13.248 12.5098C13.4694 16.9368 13.5801 21.5632 13.5801 26.3887C13.5801 31.679 13.6908 36.9251 13.9121 42.127C15.3509 42.4147 16.7897 42.5586 18.2285 42.5586C22.9876 42.5586 26.5072 41.0866 28.7871 38.1426C31.0892 35.1764 32.2402 31.5684 32.2402 27.3184ZM77.2637 48.9668L69.4941 49.2324C69.14 48.0371 68.9629 47.0853 68.9629 46.377H68.4316C65.5319 48.7676 62.1452 49.9629 58.2715 49.9629C54.6191 49.9629 51.8633 49.0111 50.0039 47.1074C48.1667 45.1816 47.248 41.3522 47.248 35.6191C47.248 34.9329 47.2591 33.9701 47.2812 32.7305C47.3255 31.4909 47.3477 30.4062 47.3477 29.4766C47.3477 27.0195 47.1374 23.1016 46.7168 17.7227L55.9805 17.3906C55.6263 21.6406 55.4492 25.6693 55.4492 29.4766C55.4492 34.8997 55.8477 38.5521 56.6445 40.4336C57.4635 42.3151 59.0573 43.2559 61.4258 43.2559C64.0156 43.2559 66.2513 42.6361 68.1328 41.3965C68.1328 29.7533 68 21.8509 67.7344 17.6895L76.6992 17.3906C76.4779 21.5742 76.3672 26.9974 76.3672 33.6602C76.3672 38.5964 76.666 43.6986 77.2637 48.9668ZM114.385 49H105.553C106.04 43.3997 106.283 37.7331 106.283 32C106.283 28.5247 105.763 26.1673 104.723 24.9277C103.704 23.6882 102.144 23.0684 100.041 23.0684C97.5176 23.0684 95.127 23.9316 92.8691 25.6582C92.9798 34.291 93.0352 42.0716 93.0352 49H84.1035C84.502 42.0716 84.7012 36.6263 84.7012 32.6641C84.7012 27.3737 84.1589 22.3822 83.0742 17.6895L91.5742 16.7598L92.1387 20.2793H92.6699C95.7025 17.6673 99.1888 16.3613 103.129 16.3613C106.538 16.3613 109.26 17.1693 111.297 18.7852C113.355 20.3789 114.385 23.334 114.385 27.6504C114.385 28.2923 114.352 29.1556 114.285 30.2402C114.241 31.3027 114.219 32.3984 114.219 33.5273C114.219 36.5156 114.274 41.6732 114.385 49ZM150.609 29.8418C150.609 30.9707 150.543 32.4427 150.41 34.2578L129.027 34.623C129.337 37.1243 130.411 39.2051 132.248 40.8652C134.085 42.5254 136.498 43.3555 139.486 43.3555C142.807 43.3555 146.337 42.8574 150.078 41.8613L149.414 48.3027C146.359 49.4095 142.574 49.9629 138.059 49.9629C132.348 49.9629 127.965 48.3581 124.91 45.1484C121.878 41.9388 120.361 38.0762 120.361 33.5605C120.361 28.8457 121.8 24.7617 124.678 21.3086C127.577 17.8333 131.595 16.0957 136.73 16.0957C141.423 16.0957 144.91 17.3685 147.189 19.9141C149.469 22.4596 150.609 25.7689 150.609 29.8418ZM142.84 29.543C142.84 24.4518 140.671 21.9062 136.332 21.9062C132.193 21.9062 129.736 24.5404 128.961 29.8086L142.84 29.543Z" fill="#E46D07"/>
</svg>
