<svg width="185" height="80" viewBox="0 0 185 80" fill="none" xmlns="http://www.w3.org/2000/svg">
<path fill-rule="evenodd" clip-rule="evenodd" d="M128.468 24.7018C130.538 19.7346 134.525 13.0277 139.461 8.48346C140.925 7.1363 142.444 6.00508 143.994 5.16285C142.4 6.76517 141.584 8.75122 141.584 10.6248C141.584 13.2544 143.223 14.9358 145.11 16.0974C146.601 17.0154 148.497 17.7606 150.308 18.4721L150.309 18.4725C150.72 18.6341 151.127 18.7939 151.523 18.9537C153.773 19.8598 155.806 20.7972 157.284 22.0896C158.69 23.3207 159.584 24.8637 159.584 27.1248C159.584 31.2861 156.867 34.0435 152.908 35.8186C148.937 37.5988 144.047 38.205 140.619 38.1252C139.79 38.106 139.103 38.7617 139.084 39.59C139.065 40.4182 139.721 41.1052 140.549 41.1244C144.287 41.2114 149.648 40.5676 154.135 38.5561C158.634 36.5395 162.584 32.9636 162.584 27.1248C162.584 23.886 161.227 21.554 159.259 19.8319C157.361 18.1712 154.895 17.0774 152.644 16.171C152.18 15.984 151.728 15.8057 151.288 15.6326L151.287 15.6322C149.496 14.9264 147.924 14.3068 146.683 13.5429C145.194 12.6264 144.584 11.7453 144.584 10.6248C144.584 8.34147 147.407 3.8112 155.563 5.13683C159.869 7.70991 164.516 13.6601 168.953 25.0865C173.448 36.6648 177.642 53.6409 181.099 77.837C181.216 78.6571 181.976 79.2269 182.796 79.1098C183.616 78.9926 184.186 78.2328 184.069 77.4127C180.596 53.1053 176.361 35.8784 171.749 24.0007C167.156 12.1701 162.101 5.41788 156.829 2.40151C153.319 0.394021 149.79 0.0878745 146.446 0.962123C143.15 1.82412 140.107 3.81156 137.429 6.27624C132.084 11.1965 127.882 18.3103 125.699 23.5479C123.919 27.8202 122.234 30.7589 120.671 32.7126C119.109 34.6643 117.734 35.5537 116.579 35.886C114.334 36.5322 112.093 35.2647 109.587 33.0099C107.035 30.7131 105.675 29.5115 103.589 28.6206C101.807 27.8595 99.964 27.5553 98.5576 27.5012C94.8049 27.3568 92.1293 28.8348 90.049 31.0315C88.2591 32.9214 86.8681 35.3975 85.5573 37.7309C85.4078 37.997 85.2593 38.2612 85.1115 38.5226C83.6158 41.1655 82.1397 43.5925 80.1394 45.3618C78.2038 47.0739 75.7299 48.2073 72.1179 48.1253C66.7829 48.004 63.1347 46.9757 60.5682 45.3882C58.0277 43.8169 56.4112 41.6137 55.2839 38.8677C54.1404 36.0821 53.5196 32.7883 52.9657 29.0828C52.8396 28.2391 52.717 27.3736 52.5919 26.4912L52.5918 26.4903C52.1756 23.5536 51.7329 20.4301 51.0491 17.3043C50.1539 13.2117 48.7965 10.5926 46.9067 9.31858C44.8688 7.94473 42.6949 8.41844 41.0149 9.29496C39.3515 10.1628 37.8693 11.5611 36.8276 12.6509C36.3761 13.1232 35.9847 13.5623 35.6898 13.8931L35.6897 13.8932L35.5458 14.0545L35.5161 14.0877C28.6427 13.7624 24.4343 16.421 21.1149 19.2297C20.4324 19.8072 19.7794 20.3978 19.162 20.9561L19.1619 20.9562C19.0233 21.0816 18.8865 21.2053 18.7516 21.3269C18.0039 22.0006 17.3063 22.6154 16.6055 23.1556C15.2101 24.2312 13.8941 24.9368 12.3855 25.138C8.55014 25.6494 5.64423 26.5345 3.66569 27.9085C1.58858 29.351 0.583794 31.3041 0.583794 33.6248C0.583794 35.49 1.43163 37.7127 3.6807 38.9865C5.89363 40.2399 9.11609 40.3758 13.4743 38.9231C14.5799 38.5546 15.6184 38.6451 16.8377 39.0095C17.4621 39.1961 18.1059 39.4458 18.8296 39.7347L19.08 39.8349L19.0803 39.835C19.7202 40.0912 20.418 40.3705 21.1484 40.6217C22.8259 41.1984 24.7608 41.6586 27.0546 41.5105C29.3488 41.3624 31.8975 40.6131 34.8318 38.925C35.5498 38.5119 35.7971 37.5949 35.384 36.8768C34.9709 36.1588 34.0539 35.9115 33.3358 36.3246C30.7291 37.8242 28.6218 38.4031 26.8613 38.5168C25.1005 38.6304 23.582 38.286 22.1238 37.7847C21.4686 37.5594 20.8428 37.309 20.1964 37.0503L19.9419 36.9485C19.221 36.6607 18.4643 36.3645 17.6967 36.1351C16.1318 35.6675 14.4201 35.4456 12.5257 36.077C8.5587 37.3994 6.32305 37.0353 5.15919 36.3761C4.03146 35.7374 3.58379 34.6349 3.58379 33.6248C3.58379 32.3208 4.07901 31.2739 5.3769 30.3726C6.77336 29.4028 9.11745 28.6003 12.782 28.1117C15.0235 27.8128 16.8325 26.7684 18.4371 25.5316C19.2363 24.9155 20.0075 24.2334 20.7598 23.5556C20.9032 23.4264 21.0457 23.2975 21.1879 23.1689C21.8032 22.6125 22.4116 22.0624 23.0527 21.5199C26.1255 18.9199 29.7505 16.6598 35.973 17.1207C36.0098 17.1235 36.0468 17.1248 36.0837 17.1248C36.4756 17.1248 36.757 16.9728 36.8354 16.9297C36.951 16.8663 37.0393 16.7996 37.0893 16.7599C37.1919 16.6784 37.2822 16.5905 37.3439 16.5282C37.4737 16.3974 37.6286 16.2259 37.7819 16.0545L37.9346 15.8834C38.23 15.5521 38.5838 15.1553 38.9962 14.7238C39.9858 13.6885 41.1911 12.5868 42.4026 11.9547C43.5976 11.3312 44.4863 11.3049 45.2297 11.8061C46.1211 12.407 47.2637 14.038 48.1184 17.9454C48.7759 20.9508 49.1972 23.922 49.6107 26.8381L49.6107 26.8382L49.6107 26.8383C49.7385 27.7397 49.8656 28.636 49.9987 29.5263C50.5542 33.2426 51.2147 36.8551 52.5087 40.007C53.8189 43.1986 55.7962 45.9641 58.9901 47.9396C62.1579 49.899 66.3848 50.9957 72.0497 51.1245C76.4378 51.2242 79.6409 49.8079 82.127 47.6089C84.5485 45.467 86.239 42.6214 87.7224 40.0001C87.8686 39.7417 88.0126 39.486 88.155 39.2331L88.1553 39.2325L88.1554 39.2324C89.5069 36.8323 90.7094 34.697 92.2272 33.0943C93.6932 31.5464 95.401 30.5583 97.8085 30.4947C97.6556 30.5968 97.5046 30.703 97.3561 30.8132C95.5731 32.1364 94 34.1744 94 37.0001C94 39.8782 95.6938 41.8626 97.6023 43.097C99.4879 44.3165 101.746 44.9298 103.418 45.1157C104.242 45.2071 104.983 44.6138 105.075 43.7905C105.166 42.9671 104.573 42.2255 103.749 42.134C102.422 41.9865 100.638 41.4874 99.2315 40.5779C97.8481 39.6832 97 38.5219 97 37.0001C97 35.4257 97.8435 34.1873 99.1439 33.2223C100.306 32.3595 101.719 31.8131 102.819 31.5643C104.157 32.2069 105.201 33.098 107.58 35.2398C110.075 37.485 113.464 39.9044 117.409 38.769C119.35 38.2105 121.209 36.842 123.014 34.5869C124.816 32.3336 126.629 29.1164 128.468 24.7018ZM76.5938 74.8751C78.4896 72.6667 79.4375 70.0834 79.4375 67.1251C79.4375 64.5001 78.5885 62.2501 76.8906 60.3751C75.2031 58.5001 72.4792 57.5626 68.7188 57.5626C68.4479 57.5626 67.8698 57.5782 66.9844 57.6094C66.099 57.6407 65.4323 57.6563 64.9844 57.6563H62.25C62.3854 60.3334 62.4531 63.5678 62.4531 67.3595C62.4531 71.3074 62.3854 74.8542 62.25 78.0001C64.9583 78.1251 67.0833 78.1876 68.625 78.1876C72.0417 78.1876 74.6979 77.0834 76.5938 74.8751ZM73.4219 62.7501C74.5885 64.1147 75.1719 65.797 75.1719 67.797C75.1719 69.797 74.6302 71.4949 73.5469 72.8907C72.474 74.2761 70.8177 74.9688 68.5781 74.9688C67.901 74.9688 67.224 74.9011 66.5469 74.7657C66.4427 72.3178 66.3906 69.849 66.3906 67.3595C66.3906 65.0886 66.3385 62.9115 66.2344 60.8282C67.0156 60.7344 67.6302 60.6876 68.0781 60.6876C70.474 60.6876 72.2552 61.3751 73.4219 62.7501ZM92.7031 78.1095L96.3594 77.9845C96.0781 75.5053 95.9375 73.1042 95.9375 70.7813C95.9375 67.6459 95.9896 65.0938 96.0938 63.1251L91.875 63.2657C92 65.224 92.0625 68.9428 92.0625 74.422C91.1771 75.0053 90.125 75.297 88.9062 75.297C87.7917 75.297 87.0417 74.8542 86.6562 73.9688C86.2812 73.0834 86.0938 71.3647 86.0938 68.8126C86.0938 67.0209 86.1771 65.1251 86.3438 63.1251L81.9844 63.2813C82.1823 65.8126 82.2812 67.6563 82.2812 68.8126C82.2812 69.2501 82.2708 69.7605 82.25 70.3438C82.2396 70.9272 82.2344 71.3803 82.2344 71.7032C82.2344 74.4011 82.6667 76.2032 83.5312 77.1095C84.4062 78.0053 85.7031 78.4532 87.4219 78.4532C89.2448 78.4532 90.8385 77.8907 92.2031 76.7657H92.4531C92.4531 77.099 92.5365 77.547 92.7031 78.1095ZM109.672 78.0001H113.828C113.776 74.5522 113.75 72.1251 113.75 70.7188C113.75 70.1876 113.76 69.672 113.781 69.172C113.812 68.6615 113.828 68.2553 113.828 67.9532C113.828 65.922 113.344 64.5313 112.375 63.7813C111.417 63.0209 110.135 62.6407 108.531 62.6407C106.677 62.6407 105.036 63.2553 103.609 64.4844H103.359L103.094 62.8282L99.0938 63.2657C99.6042 65.474 99.8594 67.823 99.8594 70.3126C99.8594 72.1772 99.7656 74.7397 99.5781 78.0001H103.781C103.781 74.7397 103.755 71.0782 103.703 67.0157C104.766 66.2032 105.891 65.797 107.078 65.797C108.068 65.797 108.802 66.0886 109.281 66.672C109.771 67.2553 110.016 68.3647 110.016 70.0001C110.016 72.698 109.901 75.3647 109.672 78.0001ZM130.781 71.0626C130.844 70.2084 130.875 69.5157 130.875 68.9845C130.875 67.0678 130.339 65.5105 129.266 64.3126C128.193 63.1147 126.552 62.5157 124.344 62.5157C121.927 62.5157 120.036 63.3334 118.672 64.9688C117.318 66.5938 116.641 68.5157 116.641 70.7345C116.641 72.8595 117.354 74.6772 118.781 76.1876C120.219 77.698 122.281 78.4532 124.969 78.4532C127.094 78.4532 128.875 78.1928 130.312 77.672L130.625 74.6407C128.865 75.1095 127.203 75.3438 125.641 75.3438C124.234 75.3438 123.099 74.9532 122.234 74.172C121.37 73.3907 120.865 72.4115 120.719 71.2345L130.781 71.0626ZM124.156 65.2501C126.198 65.2501 127.219 66.448 127.219 68.8438L120.688 68.9688C121.052 66.4897 122.208 65.2501 124.156 65.2501ZM137.891 77.297C138.422 76.7136 138.687 76.0417 138.687 75.2813C138.687 74.5938 138.474 74.0105 138.047 73.5313C137.62 73.0417 137.01 72.797 136.219 72.797C135.281 72.797 134.547 73.0782 134.016 73.6407C133.495 74.1928 133.234 74.849 133.234 75.6095C133.234 76.3074 133.453 76.9063 133.891 77.4063C134.328 77.9063 134.937 78.1563 135.719 78.1563C136.646 78.1563 137.37 77.8699 137.891 77.297ZM152.078 78.1095L155.734 77.9845C155.453 75.5053 155.312 73.1042 155.312 70.7813C155.312 67.6459 155.365 65.0938 155.469 63.1251L151.25 63.2657C151.375 65.224 151.437 68.9428 151.437 74.422C150.552 75.0053 149.5 75.297 148.281 75.297C147.167 75.297 146.417 74.8542 146.031 73.9688C145.656 73.0834 145.469 71.3647 145.469 68.8126C145.469 67.0209 145.552 65.1251 145.719 63.1251L141.359 63.2813C141.557 65.8126 141.656 67.6563 141.656 68.8126C141.656 69.2501 141.646 69.7605 141.625 70.3438C141.615 70.9272 141.609 71.3803 141.609 71.7032C141.609 74.4011 142.042 76.2032 142.906 77.1095C143.781 78.0053 145.078 78.4532 146.797 78.4532C148.62 78.4532 150.214 77.8907 151.578 76.7657H151.828C151.828 77.099 151.911 77.547 152.078 78.1095ZM170.297 78.0001L170.375 74.8751C168.052 75.073 165.708 75.172 163.344 75.172V74.9376C163.344 74.5626 164.328 73.0938 166.297 70.5313C167.984 68.3334 169.156 66.8751 169.812 66.1563L170.047 63.1563H158.703L158.625 66.2345C160.708 66.0574 162.99 65.9688 165.469 65.9688V66.2188C165.469 66.5938 164.437 68.0782 162.375 70.672C160.448 73.099 159.224 74.547 158.703 75.0157L158.484 78.0001H170.297Z" fill="white"/>
</svg>
